<svg width="45" height="62" viewBox="0 0 45 62" fill="none" xmlns="http://www.w3.org/2000/svg">
<path d="M44.4402 0.0103333C41.7914 0.0826667 39.2804 0.716444 37.0209 1.79111C32.7291 3.83711 29.3467 7.48133 27.6486 11.9591C25.9746 10.292 23.6668 9.26211 21.1179 9.26211C18.8308 9.26211 16.74 10.0922 15.1246 11.4631C13.5952 7.76033 10.9017 4.66033 7.502 2.62467C5.26656 1.28478 2.728 0.403 0.0137781 0.110222C0.00344476 0.351333 0 0.592444 0 0.833556C0 8.71789 4.92555 15.4483 11.8661 18.1212C11.8592 18.2521 11.8558 18.3864 11.8558 18.5208C11.8558 19.8882 12.152 21.1902 12.6859 22.3579C13.1164 23.3017 13.6986 24.1559 14.4012 24.8964C14.4736 24.9757 14.5493 25.0514 14.6251 25.1238C14.7836 25.2822 14.9489 25.4338 15.1211 25.5784C15.2486 25.6887 15.3794 25.7954 15.5172 25.8953C16.1613 26.691 16.5437 27.7002 16.5437 28.8024C16.5437 29.3088 16.461 29.7979 16.3094 30.256C15.9443 30.8002 15.6102 31.3651 15.3037 31.9507C13.9672 34.5099 13.2129 37.4204 13.2129 40.5067C13.2129 40.9958 13.2301 41.4849 13.2714 41.9637C13.2714 41.974 13.2714 41.9947 13.2749 42.0153C13.4471 44.1681 13.9879 46.2176 14.8387 48.0982C14.8869 48.2084 14.9386 48.3187 14.9902 48.4254C15.0212 48.5322 15.159 48.7974 15.3484 49.1384C15.3898 49.2177 15.4311 49.2969 15.4724 49.3761C15.7583 49.8997 16.0683 50.406 16.4024 50.8951C16.8227 51.5564 17.1878 52.0766 17.2429 52.0352C17.2704 52.0731 17.3049 52.1144 17.3359 52.1523C17.2808 52.2281 17.2291 52.3073 17.1774 52.3866C16.8812 52.8447 16.6263 53.3269 16.4093 53.8332C16.399 53.8194 16.3921 53.8057 16.3818 53.7919C16.3887 53.8091 16.399 53.8263 16.4059 53.8436C15.9443 54.9423 15.6894 56.1513 15.6894 57.4189C15.6894 57.536 15.6894 57.6531 15.6963 57.7702C15.7514 59.2789 16.1717 60.698 16.8674 61.938C17.0603 61.9449 17.2532 61.9483 17.4461 61.9483C19.9778 61.9483 22.3923 61.442 24.5899 60.5189C25.7954 60.016 26.939 59.3857 27.9999 58.6486C28.2444 58.4763 28.489 58.3007 28.7232 58.1181C30.7623 57.1399 32.3881 55.4349 33.2664 53.3407C33.3698 53.0961 33.4593 52.8481 33.542 52.5967C33.8313 51.7046 33.9829 50.7504 33.9829 49.7653C33.9829 48.391 33.6832 47.089 33.1459 45.9179C32.302 44.0682 30.8691 42.5492 29.0883 41.5951C28.5854 41.3264 28.0516 41.0991 27.497 40.9269C27.5004 40.7857 27.5004 40.6444 27.5004 40.5032C27.5004 39.8178 27.4626 39.1427 27.3902 38.4779C27.1904 36.6489 26.7254 34.8991 26.0366 33.2699C25.9642 32.6051 25.9263 31.93 25.9263 31.2446C25.9263 29.853 26.0813 28.4993 26.3707 27.1939C26.4706 26.753 26.5842 26.3156 26.7151 25.885C26.8942 25.7472 27.0699 25.6026 27.2421 25.451C27.3799 25.3304 27.5108 25.2064 27.6417 25.079C28.4924 24.2317 29.1813 23.219 29.6532 22.0961C30.0287 21.204 30.2663 20.243 30.3456 19.2372C30.504 19.0512 30.6659 18.8687 30.8312 18.6896C34.224 17.7596 37.231 15.8892 39.5457 13.3748C42.5906 10.075 44.4471 5.66611 44.4471 0.823222C44.4471 0.547667 44.4402 0.272111 44.4299 0L44.4402 0.0103333Z" fill="#751F26"/>
</svg>
