<svg width="162" height="20" viewBox="0 0 162 20" fill="none" xmlns="http://www.w3.org/2000/svg">
<path d="M30.2387 19.6728V12.1728H24.3955V19.6667H19.5898V0.275805H24.3812V7.61803H30.2227V0.281298H35.0369V19.6734C33.4476 19.6728 31.8756 19.6728 30.2387 19.6728Z" fill="#751F26"/>
<path d="M140.839 9.78044V0.275755H145.393V0.716404C145.393 6.88336 145.394 13.051 145.388 19.218C145.388 19.4817 145.492 19.8226 145.171 19.9637C144.851 20.1042 144.667 19.8041 144.469 19.6248C141.149 16.602 137.833 13.5754 134.516 10.5502C134.413 10.4559 134.302 10.3684 134.142 10.2334V19.6635H129.577V19.2667C129.577 13.0873 129.576 6.90798 129.58 0.728713C129.58 0.464343 129.485 0.0853362 129.812 0.00640171C129.998 -0.0385584 130.295 0.162338 130.475 0.32631C133.823 3.37119 137.161 6.42735 140.503 9.48159C140.592 9.56225 140.683 9.64179 140.839 9.78044Z" fill="#751F26"/>
<path d="M149.347 0.26959H161.649V4.74434H154.168V7.75605H160.402V12.0157H154.182V15.1809H162V19.6623H149.347V0.26959Z" fill="#751F26"/>
<path d="M83.7316 15.1807V19.6702H71.0725V0.281724H83.3608V4.73979H75.8837V7.76076H82.1088V12.0068H75.8832V15.1807H83.7316Z" fill="#751F26"/>
<path d="M16.5001 4.27232C15.2778 5.19299 14.0896 6.08782 12.879 6.99994C12.7511 6.80769 12.638 6.62775 12.5157 6.45391C11.5412 5.0753 10.1725 4.52683 8.53558 4.70372C6.9975 4.87013 6.02172 5.83453 5.46432 7.21253C4.72537 9.03921 4.71415 10.8991 5.47737 12.7183C6.11443 14.2374 7.23362 15.1995 8.94957 15.2826C10.7589 15.3701 12.1078 14.6109 12.9574 13.0006C13.0249 12.8736 13.0885 12.7449 13.1688 12.587C14.4034 13.4677 15.6233 14.3379 16.8585 15.2185C16.8301 15.298 16.8153 15.3664 16.7832 15.4262C15.221 18.3708 12.7919 19.8639 9.43027 19.9441C4.98423 20.0501 1.32477 16.9386 0.328076 12.5778C-0.413424 9.33247 0.0753339 6.27091 2.06698 3.54635C5.53724 -1.2007 11.75 -0.644802 14.726 2.08891C15.4162 2.72242 16.015 3.42805 16.5001 4.27232Z" fill="#751F26"/>
<path d="M107.785 13.5305H110.652C110.175 12.2992 109.707 11.0926 109.208 9.80331C108.718 11.0852 108.257 12.2931 107.785 13.5305ZM118.107 19.7684C117.96 19.7764 117.856 19.7869 117.751 19.7869C116.32 19.7881 114.889 19.782 113.459 19.7931C113.219 19.7949 113.094 19.7376 113.009 19.4967C112.799 18.9057 112.546 18.3301 112.325 17.7427C112.252 17.5486 112.161 17.4592 111.935 17.4605C110.141 17.4703 108.347 17.4691 106.552 17.4611C106.35 17.4605 106.253 17.5203 106.185 17.7131C105.968 18.3276 105.738 18.9383 105.492 19.5416C105.449 19.6452 105.304 19.7764 105.205 19.7776C103.739 19.7913 102.271 19.7851 100.804 19.782C100.782 19.782 100.76 19.7653 100.701 19.7419C100.936 19.1891 101.168 18.6357 101.406 18.0841C103.92 12.2512 106.435 6.41818 108.951 0.585778C108.984 0.508166 109.011 0.42679 109.052 0.35345C109.245 0.00465359 109.547 -0.00399214 109.749 0.334327C109.811 0.437878 109.857 0.550684 109.905 0.661661C112.585 6.8988 115.264 13.1362 117.943 19.3734C117.994 19.4935 118.043 19.615 118.107 19.7684Z" fill="#751F26"/>
<path d="M47.5254 13.4399C47.0373 12.1826 46.5701 10.9809 46.0714 9.69842C45.5783 10.9976 45.1198 12.203 44.6502 13.4399H47.5254ZM54.9709 19.6906C53.3514 19.6906 51.7755 19.695 50.2004 19.6802C50.1004 19.6789 49.9545 19.5477 49.9101 19.4429C49.659 18.8544 49.425 18.2578 49.2013 17.6582C49.1239 17.4511 49.0245 17.3606 48.7846 17.3624C47.002 17.3735 45.2187 17.3735 43.436 17.3624C43.1962 17.3612 43.1016 17.4511 43.0281 17.6625C42.8224 18.256 42.5918 18.8403 42.3761 19.4299C42.3187 19.5865 42.2625 19.6969 42.0542 19.6956C40.5749 19.6864 39.0962 19.6906 37.5563 19.6906C37.6094 19.5508 37.6452 19.4436 37.6904 19.34C39.7067 14.6582 41.7249 9.97703 43.735 5.29274C43.824 5.08564 43.9247 4.99938 44.1583 5.00121C45.5653 5.01169 46.9724 5.00925 48.3794 5.00365C48.5809 5.00304 48.7045 5.04434 48.7934 5.25327C50.8265 10.0047 52.8681 14.7525 54.9079 19.5014C54.9264 19.544 54.9376 19.5896 54.9709 19.6906Z" fill="#751F26"/>
<path d="M58.6161 4.746H54.0347V0.281724H67.989V4.74233H63.4298V19.6671H58.6161V4.746Z" fill="#751F26"/>
<path d="M98.2534 19.6716H86.9386V0.276397H91.7208V15.1809H98.2534V19.6716Z" fill="#751F26"/>
<path d="M125.531 0.272846H120.747V19.6656H125.531V0.272846Z" fill="#751F26"/>
<path d="M48.4542 4.57864H44.0551C44.311 3.97717 44.5531 3.40154 44.8004 2.82845C45.1582 1.99648 45.5103 1.16147 45.8873 0.338149C45.9534 0.1933 46.1239 0.0115276 46.255 0.00349177C46.3811 -0.00393376 46.5819 0.16492 46.643 0.303666C47.2548 1.68349 47.8449 3.07247 48.44 4.45973C48.453 4.48994 48.4487 4.52747 48.4542 4.57864Z" fill="#751F26"/>
</svg>
