<svg width="48" height="66" viewBox="0 0 48 66" fill="none" xmlns="http://www.w3.org/2000/svg">
<path d="M23.5325 64.027C-0.995773 52.6937 1.94527 27.3581 1.95782 15.5228L45.3539 15.5688C45.3414 27.4041 48.09 52.7439 23.5325 64.027ZM1.95364 13.5732L0.0877698 15.5395C0.0584848 16.9536 0.0292 18.7358 0.0208328 19.6101C-0.154877 33.5205 0.786425 55.1704 23.4195 65.6293C35.3929 60.0861 44.4628 50.5685 46.8475 35.7587C48.228 27.1991 47.4081 19.0621 47.4122 13.5858L1.95364 13.5732Z" fill="#751F26"/>
<path d="M14.2534 44.666L10.2246 48.9793C10.0865 49.1215 10.0782 49.2679 10.1535 49.36C10.2288 49.452 10.4338 49.657 10.5007 49.6696C10.5676 49.6821 10.6848 49.7407 10.8772 49.5357C10.9525 49.4562 12.8602 47.6071 15.1194 45.44C14.9692 45.357 14.8289 45.2573 14.701 45.1429C14.5409 44.9945 14.3913 44.8352 14.2534 44.666Z" fill="#751F26"/>
<path d="M15.4205 44.1718C15.7805 44.4892 16.1716 44.7695 16.5877 45.0085L16.1694 45.3976C16.0146 45.5566 15.4623 45.3014 14.9143 44.8161C14.3662 44.3308 14.0776 43.8079 14.2156 43.6405L14.6549 43.2222C14.8727 43.5671 15.1296 43.8858 15.4205 44.1718Z" fill="#751F26"/>
<path d="M35.238 48.9545C35.4377 48.7733 35.5703 48.5301 35.6145 48.2642L36.0119 48.4524C36.1249 48.5779 36.0328 49.0339 35.6647 49.3895C35.2965 49.7451 34.8029 49.8707 34.6857 49.7451L34.4766 49.3268C34.7692 49.3066 35.0424 49.173 35.238 48.9545Z" fill="#751F26"/>
<path d="M34.6482 48.3177C34.794 48.1816 34.9021 48.0101 34.9619 47.8198L35.2171 47.9997C35.3008 48.0876 35.2171 48.3721 34.9578 48.6356C34.6984 48.8992 34.3302 48.987 34.2424 48.895L34.0959 48.6105C34.2979 48.5513 34.4858 48.4516 34.6482 48.3177Z" fill="#751F26"/>
<path d="M33.0669 26.1326C33.7515 26.7623 34.5051 27.3124 35.3135 27.7726C35.2884 27.7391 35.2674 27.714 35.2465 27.6805C34.6232 26.7727 32.9665 25.5009 31.6821 24.6182C32.0737 25.1828 32.5395 25.6922 33.0669 26.1326Z" fill="#751F26"/>
<path d="M35.8446 28.5213L35.3928 28.9397C34.7653 29.174 33.3303 28.103 32.2049 27.0905C31.4519 26.4337 29.9374 24.7603 30.3642 24.0826L30.5524 23.8901C30.4227 23.8106 30.2972 23.7395 30.2136 23.6935C30.0647 23.6147 29.8956 23.5826 29.7283 23.6015C29.5526 23.6224 29.4061 23.6977 29.3894 23.8441C29.4176 24.2619 29.5499 24.6661 29.7743 25.0197C30.0128 25.4924 30.9541 26.8563 32.8492 28.3665C33.6284 28.96 34.4968 29.426 35.4221 29.7471C35.5476 29.7931 35.9994 29.8893 36.1961 29.6927C36.3927 29.4961 36.1961 29.1489 36.0204 28.81C35.9701 28.7089 35.9113 28.6124 35.8446 28.5213Z" fill="#751F26"/>
<path d="M34.5184 47.6231C33.8155 46.7864 28.1886 40.214 27.3352 39.1974C26.4232 38.1139 20.6875 31.2863 18.8049 28.9142C16.6085 26.1656 16.186 22.3586 16.186 21.8984C16.186 21.7352 16.186 21.5763 16.186 21.4382C16.186 21.3922 16.0647 21.4047 16.0354 21.4382C15.9308 21.6557 15.2656 23.0363 13.178 25.0277C11.925 26.2095 10.4916 27.1839 8.9317 27.9143C8.89405 27.9143 8.87313 27.9855 8.88986 28.0022C9.38213 28.0709 9.87808 28.1101 10.375 28.1193C12.3413 28.2825 13.1487 28.9226 14.9393 30.0647C17.0018 31.3867 21.997 36.2313 22.9425 37.1433C23.8879 38.0553 33.6022 47.7695 33.8197 48.0206C33.8726 48.0832 33.9299 48.1419 33.9912 48.1963C34.1259 48.1798 34.2534 48.1262 34.3594 48.0415C34.4653 47.9595 34.5499 47.8533 34.6062 47.7319L34.5184 47.6231ZM33.5687 47.3428C33.5687 47.3428 28.2179 41.9042 24.8125 38.39C18.1272 31.4704 15.0397 29.3326 13.4165 28.4582C12.7416 28.1365 12.0421 27.8693 11.3247 27.6592C11.1741 27.5797 11.1532 27.4709 11.4167 27.2408C11.8259 26.9238 12.2836 26.6752 12.7722 26.5045C13.1519 26.5229 13.5224 26.6274 13.8558 26.8099C14.7678 27.2031 15.5292 27.6466 17.5457 29.6756C18.2276 30.345 18.9848 31.1357 19.8466 32.0519C25.9211 38.5113 33.7109 47.2466 33.7109 47.2466L33.5687 47.3428Z" fill="#751F26"/>
<path d="M38.3881 23.7058C38.1873 23.9401 37.8442 24.4798 37.6351 24.6639C37.861 24.4672 37.9823 23.9861 37.7397 22.7185C37.6638 22.2159 37.5319 21.7233 37.3464 21.2501C37.2753 21.0827 37.1791 21.1246 37.0661 21.2501C36.9183 21.4415 36.788 21.646 36.677 21.8609C36.6477 21.9696 36.677 21.8609 36.2587 20.6058C36.0619 20.0673 35.9408 19.5041 35.8989 18.9324C35.8989 18.7776 35.8989 18.6228 35.8989 18.514C35.8989 18.4052 35.8445 18.4136 35.5893 18.514C34.8482 18.9901 34.2656 19.676 33.9159 20.4845C33.6523 21.1539 33.6314 21.7019 33.5896 21.3672C33.5143 20.7146 33.5268 20.7229 33.4599 20.7439C32.987 20.911 32.5773 21.2202 32.2867 21.6291C31.9962 22.0379 31.839 22.5265 31.8366 23.0281C31.5229 22.9444 31.2761 22.9486 31.1505 23.0867C30.7573 23.505 31.6317 24.9651 33.1085 26.3331C34.5852 27.7011 36.0997 28.4625 36.4971 28.0358C36.6561 27.8643 36.6017 27.5254 36.3925 27.0903C36.5343 27.0753 36.6743 27.0473 36.8109 27.0067C36.8109 27.0067 38.4843 26.6887 38.5387 25.1575C38.5931 23.6263 38.3881 23.7058 38.3881 23.7058ZM37.9154 25.6512C37.6958 25.9946 37.3821 26.2676 37.0117 26.4377C36.4851 26.6675 35.8988 26.7232 35.3383 26.5967C33.6649 26.0779 32.6232 24.3459 32.6232 24.3459C31.2886 22.183 33.0792 21.2626 33.2298 21.2333C33.1263 21.6205 33.1007 22.0243 33.1545 22.4215C33.2792 22.7659 33.4274 23.1013 33.5979 23.4255C33.6541 23.5872 33.6678 23.7605 33.6377 23.929C33.6077 24.0975 33.5349 24.2554 33.4264 24.3877C33.3678 24.4672 33.5268 24.4254 33.5603 24.3877C33.5923 24.3595 33.6258 24.3329 33.6607 24.3083C33.7954 24.2308 33.9059 24.1174 33.9798 23.9807C34.0537 23.844 34.0881 23.6894 34.079 23.5343C33.9242 22.8649 33.4431 22.4466 34.0121 21.0702C34.3142 20.4283 34.731 19.847 35.2421 19.3549C35.3718 19.2671 35.4554 19.1583 35.4554 19.2461C35.4554 19.334 35.6019 19.9615 35.6772 20.359C35.7525 20.7564 36.2127 21.5764 36.0955 22.7143C35.9784 23.8522 34.1376 25.0864 33.8866 25.1617C33.7985 25.1945 33.7154 25.2396 33.6398 25.2956C33.577 25.3625 33.6649 25.3792 33.7151 25.3834C34.2596 25.2969 34.7773 25.0881 35.2295 24.7726C35.7115 24.4369 36.1235 24.0106 36.4428 23.5176C36.6694 23.0282 36.8392 22.5144 36.949 21.9864C37.0033 21.8567 37.0535 21.8609 37.0745 21.9362C37.0954 22.0115 37.2251 22.501 37.2711 22.7478C37.341 23.0653 37.3788 23.3891 37.3841 23.7142C37.4189 24.0275 37.3681 24.3443 37.2369 24.6309C37.1058 24.9176 36.8992 25.1632 36.6394 25.3416C36.3639 25.5375 36.0395 25.6533 35.7023 25.6763H35.5809C35.5307 25.6763 35.4889 25.6972 35.5809 25.7474L35.7023 25.8018C35.9085 25.8707 36.1269 25.8951 36.3432 25.8735C36.5596 25.8518 36.7688 25.7846 36.9573 25.6763C37.2216 25.5113 37.4647 25.3146 37.6811 25.0906C37.8024 24.9818 37.9614 24.7643 37.9823 24.8396C38.045 25.1063 38.0215 25.386 37.9154 25.6386V25.6512Z" fill="#751F26"/>
<path d="M15.2784 19.728C14.7655 19.8025 14.2739 19.9835 13.8351 20.2593C11.7928 21.4229 9.99556 22.9715 8.54291 24.8194C8.22779 25.2302 7.94789 25.6668 7.70619 26.1247C7.07447 27.3128 7.94884 27.5973 8.54291 27.3463C9.61977 26.8856 10.6233 26.2697 11.5216 25.5181C14.0317 23.4263 15.4751 21.4558 15.6801 20.5773C15.8056 20.1798 15.7763 19.7573 15.2784 19.728ZM14.9814 20.9831C14.6748 21.5548 14.3058 22.0908 13.8811 22.5812C13.1992 23.3803 12.3876 24.2044 12.1701 24.4011C12.1408 24.4304 12.0153 24.4011 12.0696 24.2839C12.4504 23.3426 11.8688 22.7235 11.94 22.5059C12.0055 22.2516 12.1206 22.0127 12.2788 21.8031C13.0486 21.0835 14.789 20.2928 14.8768 20.3597C14.9647 20.4267 15.0567 20.456 15.0734 20.5857C15.0663 20.7171 15.0351 20.8462 14.9814 20.9664V20.9831Z" fill="#751F26"/>
<path d="M22.7921 37.6963L16.0984 44.139C16.1904 44.2268 16.4582 44.4193 16.4582 44.4193C16.4582 44.4193 22.2482 38.8551 22.6833 38.4535C22.7963 38.3406 23.0557 38.1105 23.1519 38.0352L22.7921 37.6963Z" fill="#751F26"/>
<path d="M34.7025 30.2364H34.9703C35.0525 30.2322 35.134 30.2181 35.2129 30.1946C35.2673 30.1486 35.2924 30.0858 35.2129 30.0816C34.7083 30.0253 34.2187 29.8749 33.7696 29.6382C33.1852 29.7852 32.6142 29.9812 32.0627 30.2239C31.159 30.6422 29.1635 31.8262 25.0803 35.5663L25.4025 35.9344C26.7781 34.6491 28.2252 33.4424 29.7366 32.3198C30.9611 31.4558 32.3213 30.8025 33.7612 30.387C34.071 30.3145 34.3856 30.2642 34.7025 30.2364Z" fill="#751F26"/>
<path d="M30.7157 27.2663C29.9414 26.5523 29.365 25.6501 29.0423 24.6474C29.0451 24.628 29.0451 24.6083 29.0423 24.5889C29.0423 24.5889 28.9879 24.5889 28.9712 24.614C28.9692 24.639 28.9692 24.6642 28.9712 24.6893C28.8749 25.89 28.9712 26.4003 28.4817 27.6178C27.9323 28.8987 27.1902 30.088 26.2811 31.1445C25.6871 31.839 24.6746 32.9727 23.771 34.0312L24.4236 34.8051C24.4864 34.7256 24.6914 34.5123 24.9257 34.2571C27.002 32.0234 29.2759 29.9818 31.7198 28.1574C31.3558 27.8897 31.0127 27.5676 30.7157 27.2663Z" fill="#751F26"/>
<path d="M21.4953 36.5078C20.1816 37.993 18.8638 39.4363 18.4789 39.8798C18.1526 40.2396 15.2869 43.327 15.2869 43.327C15.3315 43.4056 15.3833 43.4798 15.4417 43.5487C15.5379 43.6492 15.6843 43.7872 15.6843 43.7872L22.1521 37.1312L21.4953 36.5078Z" fill="#751F26"/>
<path d="M25.3899 0.458133C28.1636 0.458133 29.9166 2.96827 29.9166 5.56208C29.9166 8.15589 28.2431 9.8586 26.1514 9.8586C23.3316 9.8586 21.6122 7.31499 21.6122 4.68353C21.6331 2.43278 22.9886 0.458133 25.3899 0.458133ZM25.574 10.2895C28.7493 10.2895 30.9373 8.22701 30.9373 5.0224C30.9373 2.09391 28.7075 0.00212458 25.8041 0.00212458C25.1245 -0.0175793 24.4479 0.0999393 23.8147 0.347657C23.1815 0.595374 22.6048 0.968205 22.119 1.44386C21.6332 1.91952 21.2483 2.48825 20.9872 3.11605C20.7262 3.74384 20.5944 4.41782 20.5998 5.0977C20.5998 8.09314 22.4866 10.2895 25.574 10.2895Z" fill="#751F26"/>
<path d="M33.82 1.11514C33.82 0.579646 34.1086 0.604748 34.6065 0.604748C35.9661 0.604748 37.2505 1.17371 37.2505 2.85969C37.2736 3.11972 37.2399 3.38166 37.1518 3.6274C37.0638 3.87315 36.9234 4.09684 36.7404 4.28301C36.5574 4.46919 36.3362 4.61341 36.092 4.70571C35.8478 4.79801 35.5865 4.83618 35.3261 4.8176C34.6776 4.8176 33.82 4.88453 33.82 4.62515V1.11514ZM36.5435 4.92637C37.0374 4.74577 37.4667 4.42288 37.7772 3.99846C38.0877 3.57404 38.2654 3.06712 38.288 2.54174C38.288 -0.127376 35.2298 0.148739 35.0081 0.148739C34.2885 0.148739 33.5062 0.207309 32.7113 0.207309C32.4148 0.205383 32.1186 0.185826 31.8244 0.148739C31.6613 0.148739 31.5525 0.232411 31.5525 0.316082C31.5525 0.784641 32.7364 0.21986 32.7364 1.54605V8.57444C32.7364 9.62451 31.7282 9.41115 31.7282 9.77512C31.7271 9.79435 31.7297 9.81362 31.7361 9.83182C31.7424 9.85002 31.7523 9.86679 31.7651 9.88117C31.7779 9.89555 31.7935 9.90726 31.8108 9.91562C31.8282 9.92399 31.847 9.92884 31.8663 9.92991C32.3934 9.92991 32.9163 9.87134 33.4351 9.87134C34.5814 9.87134 34.8993 9.92991 35.0248 9.92991C35.1504 9.92991 35.2591 9.95919 35.2591 9.81695C35.2591 9.34839 33.82 9.77512 33.82 8.58699V5.65849C33.82 5.52043 33.7363 5.26942 34.1756 5.26942C35.7277 5.26942 35.5227 5.23177 36.0205 6.00573L37.5559 8.42383C38.083 9.21452 38.6185 9.92154 39.6477 9.92154C39.7732 9.92154 40.8651 9.92154 40.8651 9.7542C40.8651 9.41951 39.8694 9.93409 38.8737 8.41128L36.5435 4.92637Z" fill="#751F26"/>
<path d="M40.5597 0.997622C40.1999 0.403557 39.5264 0.579266 39.5264 0.332436C39.5269 0.282398 39.5453 0.234201 39.5783 0.196589C39.6113 0.158978 39.6567 0.134444 39.7063 0.127441C40.0786 0.127441 40.338 0.186012 41.2793 0.186012C41.7311 0.186012 42.116 0.127441 42.2457 0.127441C42.3754 0.127441 42.5051 0.127441 42.5051 0.265499C42.5051 0.499778 41.8566 0.51233 41.8566 0.913952C41.8857 1.12201 41.9727 1.31771 42.1076 1.47873L43.7811 4.14785C43.8898 4.311 43.9735 4.39468 44.053 4.39468C44.1325 4.39468 44.2036 4.29845 44.3124 4.11856L45.7348 1.80923C45.9102 1.59459 46.0115 1.32896 46.0234 1.05201C46.0234 0.374272 44.9901 0.662937 44.9901 0.332436C44.9901 0.152543 45.1282 0.127441 45.2788 0.127441C45.6093 0.127441 45.9565 0.186012 46.287 0.186012C46.6844 0.186012 47.0861 0.127441 47.4835 0.127441C47.524 0.133002 47.5614 0.152192 47.5895 0.18185C47.6177 0.211507 47.6349 0.249864 47.6383 0.290601C47.6383 0.445393 47.404 0.499779 47.3078 0.554165C46.9774 0.805797 46.712 1.13286 46.5338 1.50802L44.6052 4.52018C44.3835 4.86742 44.2747 4.93854 44.2747 5.14353V8.52804C44.2747 9.72872 45.4043 9.36475 45.4043 9.78311C45.4043 9.90861 45.2788 9.92116 45.0863 9.92116C44.8939 9.92116 44.0781 9.86259 43.5761 9.86259C42.9569 9.86259 42.459 9.92116 42.321 9.92116C42.1829 9.92116 42.116 9.92116 42.116 9.758C42.116 9.36893 43.1786 9.72872 43.1786 8.74558V5.39873C43.1388 5.13982 43.0288 4.89676 42.8607 4.69589L40.5597 0.997622Z" fill="#751F26"/>
<path d="M19.0265 8.64524C19.0935 9.80409 20.1143 9.2937 20.1143 9.77481C20.1143 9.91286 19.9344 9.91286 19.7838 9.91286C19.5202 9.91286 19.0391 9.85429 18.491 9.85429C18.0727 9.85429 17.6208 9.91286 17.2945 9.91286C17.1732 9.91286 17.1439 9.84593 17.1439 9.79154C17.1439 9.37318 18.0141 9.67858 17.9806 8.65779L17.6083 3.30702C17.6083 2.95978 17.5372 2.76734 17.4535 2.76734C17.3698 2.76734 17.2318 2.89284 17.0937 3.18569L14.2531 8.99248C14.182 9.1138 13.9644 9.68277 13.8347 9.68277C13.705 9.68277 13.6046 9.37737 13.5586 9.26441L10.6301 3.11039C10.5841 3.00162 10.5172 2.95978 10.4586 2.95978C10.4 2.95978 10.3791 3.0309 10.3666 3.16896L9.9482 8.00934C9.88126 9.84174 11.2033 9.23512 11.2033 9.73297C11.2033 9.87103 11.0485 9.88358 10.856 9.88358C10.6636 9.88358 10.057 9.82501 9.65116 9.82501C8.93159 9.82501 8.69731 9.88358 8.43375 9.88358C8.33334 9.88358 8.2915 9.81664 8.2915 9.72042C8.2915 9.24768 9.17424 9.81664 9.27046 8.38168C9.4378 6.12674 9.60514 4.66249 9.60514 3.19824C9.60514 -0.052386 8.53415 0.721573 8.53415 0.269748C8.53415 0.148425 8.64292 0.119141 8.76843 0.119141C9.01526 0.119141 9.26209 0.17771 9.52984 0.17771C9.79759 0.17771 10.0193 0.119141 10.262 0.119141C10.5046 0.119141 10.4837 0.35342 10.5548 0.504028L13.8515 7.52405C14.0021 7.8169 14.0565 7.9424 14.1569 7.9424C14.2573 7.9424 14.3619 7.65374 14.5752 7.19773L17.8677 0.591883C17.9472 0.441275 18.0601 0.106589 18.2233 0.123323C18.3864 0.140058 18.8006 0.181894 18.8676 0.181894C19.1897 0.181894 19.311 0.123323 19.5327 0.123323C19.5654 0.133466 19.5938 0.15416 19.6135 0.182168C19.6332 0.210176 19.643 0.243919 19.6415 0.278116C19.6415 0.721573 18.5371 0.127507 18.5914 1.77165L19.0265 8.64524Z" fill="#751F26"/>
<path d="M2.24657 4.15615C2.24657 4.62471 2.22147 4.62471 2.76952 4.62471H4.25887C5.68546 4.62471 5.31731 3.52024 5.64781 3.52024C5.75658 3.52024 5.79424 3.67085 5.79424 3.78381C5.79424 4.26492 5.79424 4.73766 5.79424 5.17275C5.79424 5.53254 5.79424 5.89232 5.79424 6.26466C5.79424 6.39017 5.73985 6.44456 5.64781 6.44456C5.22945 6.44456 5.68546 5.22714 4.53498 5.22714H2.48922C2.20055 5.22714 2.24239 5.46142 2.24239 5.6706V8.22675C2.24239 9.06347 2.13362 9.37305 3.28828 9.37305C6.46779 9.37305 6.93635 7.95064 7.11206 7.95064C7.20828 7.95064 7.22501 8.08869 7.22501 8.1138C7.16085 8.62895 6.9163 9.10472 6.53472 9.45672C6.11637 9.95875 5.79005 9.92946 5.1918 9.92946C4.14173 9.92946 3.10002 9.84579 2.04995 9.87508C1.5019 9.87508 0.924568 9.92946 0.376521 9.92946C0.251014 9.92946 0.171526 9.90018 0.171526 9.79141C0.171526 9.68263 0.334685 9.64916 0.778143 9.42743C1.13375 9.26009 1.16303 8.87521 1.16303 8.22675V1.91376C1.16303 1.29041 1.16303 0.625219 0.418356 0.516446C0.309584 0.491345 0 0.46206 0 0.303085C0 0.144109 0.0836719 0.135742 0.48111 0.135742C3.08329 0.135742 3.79867 0.194312 4.37601 0.194312C4.65212 0.194312 5.91556 0.135742 6.34647 0.135742C6.45106 0.135742 6.48034 0.2738 6.48034 0.441142C6.48034 1.97233 6.2879 2.08528 6.20422 2.08528C5.87372 2.08528 6.09545 1.4201 5.87372 1.10214C5.51812 0.633586 4.08734 0.717257 3.53511 0.717257C2.21729 0.717257 2.24239 0.658687 2.24239 1.58744L2.24657 4.15615Z" fill="#751F26"/>
</svg>
