<svg width="111" height="62" viewBox="0 0 111 62" fill="none" xmlns="http://www.w3.org/2000/svg">
<path d="M89.5102 61.915L80.454 61.9726L76.8398 34.7516L75.3121 34.6638L75.3011 61.9698L66.611 61.9534V0.0548478L77.5114 0.12615C82.2212 0.156316 86.0061 3.12084 87.5145 7.61837C89.7111 14.159 90.2892 27.136 84.2829 31.9544L89.5074 61.915H89.5102ZM75.3066 7.51964V27.0345C77.3573 27.5117 79.0474 26.1597 79.5346 24.1166C80.4017 20.4747 81.5303 6.55157 75.3066 7.51964ZM55.0389 48.0604L49.93 48.0659L48.8125 61.9726L40.2766 61.9534L46.4232 0.0575902L58.5458 0.0521054L64.7007 61.9506L56.1758 61.989L55.0417 48.0632L55.0389 48.0604ZM54.5682 40.4475L52.8946 15.0119L52.6331 9.02247C51.766 9.96037 52.3413 10.9723 52.2753 12.0035L50.4118 40.5134L54.571 40.4475H54.5682ZM109.373 27.21L100.485 27.1579L100.479 7.43737L110.937 7.39897L110.906 0L91.7701 0.0466207L91.7811 62L110.997 61.9616L110.956 54.5544L100.477 54.5434L100.485 34.6638L109.368 34.6254L109.373 27.2073V27.21ZM8.69282 27.1661L8.70108 7.42914L19.2299 7.40446L19.2189 0.0383935L0 0.0301663V61.9616L8.69007 61.9671L8.70108 34.6501L17.6003 34.6254L17.5756 27.2018L8.69007 27.1634L8.69282 27.1661ZM30.1166 54.516V0.0822718L21.4403 0.0301663V61.989L38.3414 61.9781L39.0296 54.5955L30.1138 54.5188L30.1166 54.516Z" fill="#751F26"/>
</svg>
