<svg width="71" height="61" viewBox="0 0 71 61" fill="none" xmlns="http://www.w3.org/2000/svg">
<path d="M44.2189 23.0055L36.3308 9.49617L39.0582 4.9556L49.3386 23.0055H44.2189Z" fill="#751F26"/>
<path d="M70.8984 59.8757L69.0716 56.7457L58.9246 39.5713H53.77L63.159 55.4611C63.2266 55.575 63.2625 55.7046 63.2632 55.8367C63.2638 55.9688 63.2291 56.0987 63.1626 56.2133C63.0962 56.3279 63.0002 56.4231 62.8846 56.4892C62.7689 56.5553 62.6376 56.59 62.504 56.5898H8.48384C8.35078 56.5898 8.22007 56.5552 8.10483 56.4894C7.9896 56.4236 7.89391 56.329 7.82738 56.2151C7.76086 56.1011 7.72583 55.9719 7.72583 55.8403C7.72583 55.7087 7.76086 55.5795 7.82739 55.4656L38.0803 3.65142L37.6892 3.00384L36.1565 0.376028C36.09 0.261744 35.9943 0.166802 35.8789 0.100783C35.7635 0.0347634 35.6326 0 35.4992 0C35.3659 0 35.235 0.0347634 35.1196 0.100783C35.0042 0.166802 34.9085 0.261744 34.842 0.376028L0.101557 59.8757C0.035027 59.9897 8.45105e-07 60.1189 0 60.2505C-8.45074e-07 60.382 0.0350232 60.5113 0.101552 60.6252C0.168081 60.7392 0.26377 60.8338 0.379002 60.8996C0.494235 60.9654 0.62495 61 0.75801 61H70.242C70.375 61 70.5058 60.9654 70.621 60.8996C70.7362 60.8338 70.8319 60.7392 70.8984 60.6252C70.965 60.5113 71 60.382 71 60.2505C71 60.1189 70.965 59.9897 70.8984 59.8757Z" fill="#751F26"/>
<path d="M66.9673 33.797H44.7586C44.3583 33.797 44.0339 34.1178 44.0339 34.5136V37.4906C44.0339 37.8864 44.3583 38.2072 44.7586 38.2072H66.9673C67.3675 38.2072 67.692 37.8864 67.692 37.4906V34.5136C67.692 34.1178 67.3675 33.797 66.9673 33.797Z" fill="#751F26"/>
</svg>
