<svg width="126" height="21" viewBox="0 0 126 21" fill="none" xmlns="http://www.w3.org/2000/svg">
<path d="M27.222 9.95889C27.4792 8.21244 27.6931 6.72633 27.8065 5.09552H28.0918C28.2341 6.72633 28.4626 8.21244 28.7192 9.97299L29.5878 14.4328H26.3239L27.222 9.95889ZM25.1555 20.5955L25.5564 18.1705H30.3462L30.7471 20.5955H36.221L31.5306 0.39037H24.7706L20.1799 20.5955H25.1555ZM4.97789 20.5955V13.0197C4.97789 11.6487 4.92119 10.1476 4.79289 8.32952L5.00853 8.29816L7.53356 18.1808H11.8602L14.4334 8.31945L14.6258 8.32808C14.4975 10.1611 14.4546 11.6472 14.4546 13.0183L14.4259 20.5941H19.4439V0.39037H12.6223L11.2648 5.80147C10.7969 8.07292 10.3613 9.00986 9.89593 11.8739H9.61098C9.10523 9.05474 8.73121 8.18453 8.24207 5.80147L6.79871 0.39037H0V20.5955H4.97789ZM42.9659 20.9994C47.4709 20.9994 50.0653 18.6759 50.1649 12.9751L45.1472 11.9361C45.1046 15.7031 44.3488 16.8575 43.0801 16.8575C41.7258 16.8575 41.0703 15.7753 41.0703 13.5378V7.41904C41.0703 5.19621 41.7258 4.1137 43.0661 4.1137C44.4771 4.1137 45.1472 5.18211 45.1472 8.67444L50.0793 7.96677C50.0381 2.33877 47.6133 0.000575343 42.9659 0.000575343C38.1191 0.000575343 35.8381 2.81458 35.8381 8.6589V12.3264C35.8381 18.1863 38.0624 21 42.9659 21M62.2107 20.5955V16.3092H56.522V0.390082H51.3474V20.5952L62.2107 20.5955ZM74.8886 20.5955V16.3092H68.4309V12.1812H74.1188V8.47249H68.4309V4.67667H74.632V0.39037H63.2563V20.5955H74.8886ZM82.6361 9.95889C82.8927 8.21244 83.1037 6.72633 83.2208 5.09552H83.5061C83.6484 6.72633 83.8761 8.21244 84.1327 9.97299L85.0013 14.4328H81.7368L82.6361 9.95889ZM80.5715 20.5955L80.9725 18.1705H85.7622L86.1631 20.5955H91.637L86.9415 0.39037H80.1841L75.5939 20.5955H80.5715ZM97.3864 20.5955V14.4618C97.3864 12.5422 97.2441 10.1326 97.0585 8.09737L97.3578 8.03926C97.8255 10.0164 98.1708 11.1277 98.7548 12.73L101.863 20.5955H107.522V0.39037H102.504V6.9861C102.504 8.6169 102.633 10.4784 102.832 12.701L102.533 12.7441C102.091 11.0532 101.706 9.85821 101.263 8.71759L98.0852 0.39037H92.3687V20.5955H97.3864ZM118.543 20.9845C122.991 20.9845 126 18.7185 126 14.8507C126 11.1127 123.719 9.88582 121.709 8.8177L119.699 7.74958C117.59 6.6383 117.204 6.03218 117.204 5.29632C117.204 4.48451 117.872 3.89679 118.844 3.89679C120.341 3.89679 120.818 4.72759 121.083 6.82442L125.569 6.0247C125.51 2.18573 123.219 0 118.915 0C114.839 0 112.314 2.15034 112.3 5.77241C112.272 9.16405 114.353 10.5935 116.321 11.6754L118.288 12.7579C120.255 13.8402 120.911 14.5044 120.911 15.5435C120.911 16.4381 119.908 17.0733 118.785 17.0733C117.248 17.0733 116.708 16.1461 116.4 13.7711L111.656 14.6146C111.84 19.0113 113.966 20.9845 118.542 20.9845M110.754 6.58767L112.615 0.39037H109.051L108.26 5.55464L110.754 6.58767Z" fill="#751F26"/>
</svg>
