<svg width="87" height="44" viewBox="0 0 87 44" fill="none" xmlns="http://www.w3.org/2000/svg">
<path d="M39.2622 25.5203H44.8445C44.5271 24.2826 44.3268 23.1387 44.1917 21.9262L43.9644 18.0941V7.50176C44.0049 6.49285 44.0386 5.56402 44.1805 4.57112C44.4528 2.89647 45.1056 1.37968 46.1387 0.00701695L40.7366 0.00244141C40.3517 1.25157 39.6967 2.34283 38.8863 3.37462L31.9153 12.2283L23.9494 2.38859C23.3889 1.69768 23.013 0.926702 22.8959 0.00701695L17.0368 0.0138802L19.6524 3.322V18.5014C19.6389 19.977 19.5286 21.3725 19.3463 22.8161C19.2067 23.7404 19.0266 24.6143 18.8061 25.5248L24.3703 25.5157C23.8031 23.1135 23.5172 20.7754 23.5172 18.3389L23.5239 7.70308L31.8163 18.0141L32.7774 16.7489L38.2493 9.64083L40.1221 7.28671L40.0996 18.8857C40.0951 21.1346 39.7687 23.2851 39.2667 25.5203H39.2622ZM60.5648 7.8129L61.1905 7.04421L61.7757 6.32127L62.2754 5.68527L62.5838 5.27347C62.7256 5.08358 62.8607 4.90285 63.0092 4.72669L63.3334 4.34235L63.9051 3.71092L64.5173 3.0223C65.0396 2.43434 65.5595 1.88985 66.1492 1.3751C66.3361 1.21267 66.5567 1.14404 66.7637 1.01364C67.2049 0.739104 67.5808 0.368485 67.977 0.00472912H61.8388C60.9136 1.99738 59.3988 4.22796 58.0032 5.89574L53.6838 11.0592L53.632 9.66371L53.6365 5.29635C53.7198 3.48443 53.9606 1.74115 54.5121 0.00244141H48.9344C49.4971 2.10948 49.7672 4.23025 49.7874 6.43108V18.2795C49.7942 19.5926 49.7312 20.8212 49.6006 22.1092C49.4701 23.2737 49.254 24.3878 48.9411 25.5203L54.5098 25.5157C53.9719 23.5436 53.6545 21.5716 53.6477 19.524L53.632 13.2532L53.677 12.3061L59.921 20.3247L61.4156 22.3906C62.0324 23.3629 62.523 24.3741 62.8044 25.5203L69.4491 25.5111C67.1464 22.9717 65.0103 20.4277 62.9147 17.783L57.8187 11.3109C58.4084 10.6429 58.3656 10.2814 58.9801 9.73234C59.1219 9.60651 59.2435 9.39832 59.3718 9.24504L59.8962 8.61819L60.567 7.81061L60.5648 7.8129ZM63.4099 34.2367C63.9591 33.4382 63.7768 32.3241 62.9552 31.7956L61.114 30.6083C60.8641 30.4481 60.6188 30.2216 60.504 29.9494C60.3284 29.5376 60.576 29.1052 60.9699 28.9199C61.5372 28.6522 62.2552 28.7048 62.7864 29.0526L63.3559 29.4255L63.3626 28.1283C62.1539 27.6845 60.3284 27.7097 59.401 28.7231C58.9846 29.1784 58.8473 29.8396 59.0837 30.4115C59.2637 30.8485 59.5946 31.1665 59.9818 31.409L61.5912 32.4087C61.8748 32.5849 62.1471 32.8709 62.2214 33.2003C62.3137 33.6144 62.0436 33.9942 61.6947 34.1932C60.7493 34.7285 59.6824 34.438 58.9419 33.5961L58.9306 35.0191C60.2181 35.5979 62.5613 35.4698 63.4099 34.2367ZM21.0502 33.8272C19.8617 34.1291 18.716 34.3831 17.4623 34.4334L17.4713 29.7115C17.4713 29.096 17.6176 28.5561 17.7661 27.9659H15.8079C15.9542 28.4944 16.0847 28.9908 16.0847 29.5467V33.4405C16.0847 34.0674 15.9744 34.6462 15.8056 35.241H20.3322L21.0502 33.8272ZM25.7186 35.2433C25.5633 34.6119 25.4237 34.0193 25.4237 33.3627V30.0089C25.4237 29.2997 25.5362 28.6568 25.7253 27.9636H23.7625C23.9088 28.5607 24.0439 29.1143 24.0439 29.732V33.5984C24.0462 34.1589 23.9021 34.6553 23.7625 35.2341L25.7186 35.241V35.2433ZM32.9575 35.2387C32.7166 34.4471 32.6896 33.7425 32.6581 32.967L32.6513 28.7872C33.4932 28.7346 34.263 28.8627 35.0418 29.1532L35.4785 27.9659H28.9464L28.4782 29.1372C29.4416 28.8947 30.3329 28.8124 31.2918 28.7826L31.2873 33.3513C31.2445 34.001 31.1995 34.5775 30.9992 35.2387H32.9575ZM47.0211 32.3012L47.8247 31.1299L44.9413 31.1207V28.7986C45.8101 28.7163 46.6362 28.8055 47.46 29.1532L48.142 27.9705L43.2643 27.9659C43.4174 28.4966 43.5434 28.9817 43.5434 29.5147V33.5366C43.5434 34.1314 43.4016 34.6713 43.2711 35.241L45.2249 35.2364C45.0651 34.6256 44.9413 34.088 44.9413 33.4977V31.9466C45.6931 31.9031 46.3301 32.0633 47.0188 32.2989L47.0211 32.3012ZM52.7811 31.9306C53.578 31.9603 54.179 32.0724 54.8542 32.2989L55.66 31.1299L52.7744 31.1207V28.7986C53.6432 28.7186 54.4716 28.8078 55.2954 29.1555L55.9774 27.9682L51.0817 27.9636C51.228 28.595 51.3743 29.1967 51.3743 29.8464V33.365C51.3743 34.0033 51.2775 34.5844 51.0907 35.241H55.7973L56.5199 33.8203C55.6826 34.1314 54.9398 34.3007 54.1092 34.3533L52.7676 34.4334L52.7766 31.9329L52.7811 31.9306ZM70.7051 35.241C70.534 34.5547 70.426 33.9072 70.426 33.198L70.417 28.7872C71.2475 28.7414 72.0083 28.849 72.7962 29.1578L73.2373 27.9636H66.7075L66.2393 29.1372C67.2049 28.8947 68.0963 28.8101 69.0552 28.7826L69.0439 33.1889C69.0439 33.9049 68.9561 34.5638 68.7535 35.241H70.7051ZM0.0988211 42.8295C0.0493013 42.8593 -0.0204766 43.0149 0.0132869 43.056L0.143839 43.2208C0.512987 43.3557 0.900142 43.4724 1.33907 43.4472C15.2744 42.6374 29.1714 42.5939 43.1473 43.4724C57.1614 42.658 71.1372 42.6214 85.1513 43.4724C85.606 43.4999 86.0112 43.3603 86.3848 43.2047C86.4479 43.127 86.5086 42.9599 86.4411 42.905C86.2025 42.7106 85.9279 42.6214 85.597 42.5985C78.7273 42.1341 71.8688 41.8161 64.9653 41.8824L56.8125 41.9602C56.79 41.9602 56.6932 41.9533 56.6707 41.951C56.6527 41.9488 56.6504 41.9076 56.6707 41.9076C56.6932 41.9076 56.7922 41.9076 56.8125 41.9076L57.3617 41.8481C66.1245 40.901 74.885 40.2878 83.6838 39.8394C83.8661 39.8303 84.8205 39.693 84.7214 39.5123C84.7034 39.4825 84.6336 39.407 84.5999 39.3979C83.3191 39.0433 65.2039 40.432 62.5433 40.7156L47.8292 42.2805C52.2387 41.2807 56.682 40.4617 61.1522 39.6656C67.9927 38.4462 74.831 37.4258 81.7007 36.5267C81.9483 36.4947 82.5448 36.3666 82.6078 36.163C82.6641 35.9754 81.7637 35.9479 81.5814 35.9708C69.0011 37.5219 56.2273 39.6473 43.8586 42.4658C43.4872 42.5504 43.2261 42.6031 42.8479 42.5184C30.8371 39.844 18.6327 37.8216 6.4261 36.314C6.20776 36.2865 5.2894 36.3208 5.34567 36.4924C5.4132 36.7006 5.95116 36.8241 6.19876 36.8562C12.481 37.6798 18.7385 38.6017 25.0005 39.6884C29.4596 40.4617 33.8893 41.2624 38.2808 42.2256C32.0841 41.5003 25.9257 40.8369 19.7177 40.3427C14.2862 39.9081 8.87508 39.5626 3.44816 39.311C3.15554 39.2972 1.98057 39.2446 1.9108 39.5123C1.86128 39.7067 2.70086 39.828 2.88544 39.8371C11.9408 40.3016 20.9647 40.9742 29.9683 41.9259C29.4303 41.9991 29.1512 41.935 28.5367 41.9236C19.4206 41.7429 10.3359 41.9556 1.23553 42.5619C0.812357 42.5893 0.474721 42.6053 0.103323 42.8341L0.0988211 42.8295Z" fill="#751F26"/>
<path d="M39.2622 25.5203C39.7642 23.2851 40.0904 21.1344 40.095 18.8856L40.1175 7.28656L38.2447 9.64067L32.7728 16.7488L31.8116 18.0139L23.5193 7.70293L23.5126 18.3388C23.5126 20.7753 23.7984 23.1134 24.3657 25.5155L18.8014 25.5247C19.022 24.6141 19.2021 23.7402 19.3417 22.816C19.524 21.3701 19.6343 19.9768 19.65 18.5012V3.31956L17.0322 0.0114389L22.8913 0.00457554C23.0084 0.92426 23.3843 1.69524 23.9447 2.38615L31.9107 12.2259L38.8817 3.37218C39.692 2.34268 40.3493 1.24912 40.732 0L46.1341 0.00457554C45.1032 1.37953 44.4482 2.89403 44.1758 4.56868C44.034 5.56158 44.0025 6.49041 43.9597 7.49932V18.0917L44.1871 21.9237C44.3221 23.1362 44.5225 24.2801 44.8399 25.5155H39.2576L39.2622 25.5203Z" fill="#751F26"/>
<path d="M60.5648 7.8129L59.894 8.62079L59.3695 9.24764C59.2412 9.40092 59.1197 9.60911 58.9779 9.73493C58.3634 10.2817 58.4084 10.6432 57.8164 11.3135L62.9125 17.7856C65.0081 20.4326 67.1442 22.9743 69.4468 25.5137L62.8022 25.5229C62.5186 24.3767 62.0279 23.3655 61.4134 22.3932L59.9188 20.3273L53.6748 12.3087L53.6298 13.2558L53.6455 19.5266C53.65 21.5764 53.9696 23.5462 54.5076 25.5183L48.9389 25.5229C49.2518 24.3904 49.4701 23.2785 49.5984 22.1118C49.7289 20.8238 49.792 19.5929 49.7852 18.2821V6.43368C49.7627 4.23284 49.4949 2.11207 48.9321 0.00732422H54.5099C53.9584 1.74603 53.7175 3.48931 53.6343 5.30123L53.6298 9.66859L53.6815 11.0641L58.001 5.90063C59.3966 4.23284 60.9114 2.00226 61.8365 0.00732422H67.9747C67.5786 0.37108 67.2027 0.741699 66.7615 1.01852C66.5544 1.14663 66.3338 1.21756 66.147 1.37999C65.5573 1.89474 65.0373 2.43923 64.5151 3.02718L63.9029 3.7158L63.3311 4.34723L63.007 4.73157C62.8562 4.91002 62.7211 5.09075 62.5816 5.27835L62.2732 5.69015L61.7735 6.32615L61.1883 7.04909L60.5625 7.81778L60.5648 7.8129Z" fill="#751F26"/>
<path d="M0.0988211 42.8295C0.47022 42.6008 0.80778 42.5846 1.23095 42.5572C10.3313 41.9509 19.4182 41.7405 28.5321 41.9189C29.1466 41.9303 29.4257 41.9944 29.9637 41.9212C20.9601 40.9695 11.9362 40.2969 2.88086 39.8325C2.69404 39.8233 1.8567 39.7021 1.90622 39.5076C1.976 39.2399 3.15097 39.2925 3.44358 39.3063C8.87051 39.5602 14.2817 39.9057 19.7131 40.338C25.9211 40.8345 32.0818 41.4957 38.2763 42.2209C33.8825 41.26 29.455 40.4593 24.996 39.6837C18.734 38.5971 12.4764 37.6751 6.19418 36.8515C5.94659 36.8195 5.40862 36.6936 5.34109 36.4877C5.28482 36.3161 6.20319 36.2818 6.42153 36.3093C18.6282 37.8169 30.8348 39.8393 42.8433 42.5137C43.2237 42.5984 43.4848 42.5457 43.854 42.4611C56.2227 39.6449 68.9966 37.5172 81.5768 35.9661C81.7592 35.9432 82.6595 35.973 82.6032 36.1583C82.5402 36.3619 81.9437 36.49 81.6961 36.522C74.8264 37.4211 67.9882 38.4438 61.1477 39.6609C56.6774 40.457 52.2341 41.276 47.8246 42.2758L62.5387 40.711C65.1993 40.4273 83.3123 39.0386 84.5953 39.3932C84.6291 39.4024 84.6988 39.4779 84.7168 39.5076C84.8181 39.686 83.8615 39.8256 83.6792 39.8347C74.8804 40.2831 66.1199 40.8963 57.3572 41.8434L56.8079 41.9029C56.7877 41.9052 56.6886 41.9029 56.6661 41.9029C56.6459 41.9029 56.6481 41.9441 56.6661 41.9464C56.6886 41.9486 56.7854 41.9578 56.8079 41.9555L64.9607 41.8777C71.8642 41.8114 78.7227 42.1294 85.5924 42.5938C85.9233 42.6167 86.1957 42.7059 86.4365 42.9004C86.5063 42.9553 86.4455 43.1223 86.3803 43.2001C86.0066 43.3533 85.6014 43.4952 85.1468 43.4677C71.1327 42.6167 57.1591 42.651 43.1427 43.4677C29.1691 42.5915 15.2698 42.6327 1.33449 43.4426C0.895565 43.4677 0.508411 43.351 0.139263 43.2161L0.00871074 43.0513C-0.0250528 43.0079 0.0469761 42.8546 0.094245 42.8249L0.0988211 42.8295Z" fill="#751F26"/>
<path d="M52.7811 31.9306L52.7722 34.4311L54.1137 34.351C54.942 34.3007 55.6871 34.1314 56.5244 33.818L55.8019 35.241H51.0952C51.2798 34.5821 51.3789 34.001 51.3789 33.3604V29.8418C51.3789 29.1944 51.2325 28.5904 51.084 27.959L55.9797 27.9636L55.2977 29.1509C54.4738 28.8032 53.6455 28.714 52.7767 28.794V31.1161L55.6623 31.1253L54.8565 32.2943C54.179 32.0678 53.578 31.9534 52.7834 31.926L52.7811 31.9306Z" fill="#751F26"/>
<path d="M63.4099 34.2367C62.5636 35.4698 60.2181 35.5979 58.9306 35.0191L58.9419 33.5961C59.6847 34.4403 60.7493 34.7285 61.6947 34.1932C62.0436 33.9965 62.316 33.6167 62.2214 33.2003C62.1471 32.8709 61.8748 32.5872 61.5912 32.4087L59.9818 31.409C59.5946 31.1688 59.2637 30.8508 59.0837 30.4115C58.8496 29.8396 58.9846 29.1784 59.401 28.7231C60.3284 27.7097 62.1539 27.6822 63.3626 28.1283L63.3559 29.4255L62.7864 29.0526C62.2552 28.7048 61.5372 28.6499 60.9699 28.9199C60.576 29.1052 60.3284 29.5376 60.504 29.9494C60.621 30.2216 60.8664 30.4481 61.114 30.6083L62.9552 31.7956C63.7768 32.3241 63.9591 33.4382 63.4099 34.2367Z" fill="#751F26"/>
<path d="M47.0211 32.3012C46.3323 32.0656 45.6953 31.9055 44.9435 31.949V33.5001C44.9435 34.0903 45.0696 34.628 45.2294 35.2388L43.2756 35.2434C43.4062 34.6737 43.548 34.1361 43.548 33.539V29.5171C43.548 28.9863 43.4197 28.499 43.2666 27.9683L48.1443 27.9728L47.4623 29.1556C46.6385 28.8056 45.8124 28.7164 44.9435 28.801V31.1231L47.8269 31.1323L47.0234 32.3036L47.0211 32.3012Z" fill="#751F26"/>
<path d="M32.9575 35.2387H30.9992C31.1995 34.5753 31.2444 33.9987 31.2872 33.349L31.2917 28.7803C30.3328 28.81 29.4437 28.8924 28.478 29.1349L28.9462 27.959H35.4783L35.0417 29.1509C34.2651 28.8604 33.493 28.7323 32.6512 28.7849L32.658 32.9646C32.6895 33.7402 32.7165 34.4471 32.9573 35.2364L32.9575 35.2387Z" fill="#751F26"/>
<path d="M70.7051 35.241H68.7535C68.9561 34.5615 69.0416 33.9028 69.0439 33.1867L69.0551 28.7804C68.0962 28.8102 67.2049 28.8925 66.2393 29.135L66.7074 27.9614H73.2373L72.7962 29.1578C72.0061 28.849 71.2475 28.7414 70.417 28.7872L70.426 33.198C70.426 33.9072 70.534 34.5547 70.7051 35.241Z" fill="#751F26"/>
<path d="M21.0502 33.8272L20.3322 35.241H15.8056C15.9744 34.6462 16.0845 34.0675 16.0845 33.4384V29.5446C16.0845 28.9886 15.954 28.4899 15.8077 27.9614H17.766C17.6174 28.554 17.4733 29.0939 17.4711 29.7093L17.4621 34.4312C18.7158 34.3809 19.8615 34.1293 21.05 33.825L21.0502 33.8272Z" fill="#751F26"/>
<path d="M25.7186 35.2433L23.7625 35.2367C23.9021 34.6579 24.0461 34.1614 24.0461 33.6009V29.7346C24.0439 29.1169 23.9066 28.561 23.7603 27.9639H25.723C25.534 28.6571 25.4237 29.2997 25.4237 30.0089V33.3627C25.4237 34.0193 25.561 34.6098 25.7163 35.2436L25.7186 35.2433Z" fill="#751F26"/>
</svg>
