<svg width="296" height="43" viewBox="0 0 296 43" fill="none" xmlns="http://www.w3.org/2000/svg">
<path d="M197.679 43H194.47C191.857 42.4904 190.133 40.8485 188.466 38.9278L185.862 35.9183C185.598 35.6134 185.296 35.5045 184.894 35.6439C182.942 36.3146 180.83 36.3886 178.774 36.2754C174.118 36.0228 169.92 34.0019 166.836 30.4567C163.368 26.4629 162.188 21.5588 162.646 16.3063C163.018 12.0424 164.957 8.08781 168.067 5.22202C170.887 2.6219 174.312 1.00608 178.096 0.609744L179.258 0.487795C182.251 0.178568 185.814 0.927681 188.483 2.38236C194.37 5.58787 197.316 10.7968 197.744 17.4604C197.791 18.1965 197.791 18.8672 197.744 19.5989C197.454 24.5248 195.372 28.7102 191.779 32.0551C192.906 33.4619 193.93 34.9427 194.953 36.4453C195.977 37.9478 197.441 39.5419 199.316 39.6638C200.422 39.7335 201.449 39.4853 202.21 38.6926L203.557 39.703L202.909 40.4521C201.549 42.0244 199.631 42.6472 197.675 42.9956L197.679 43ZM177.223 32.3948L176.541 31.1884C180.402 28.2398 184.756 26.6284 189.334 29.3548C191.053 26.2016 191.472 23.4054 191.628 19.8733C191.77 16.6896 191.317 12.7872 190.254 9.79074C188.609 5.1654 185.05 2.3388 180.083 2.378C178.23 2.39107 176.485 2.68723 174.869 3.63233C172.917 4.77342 171.531 6.52426 170.589 8.60174C169.553 10.8883 168.969 13.2968 168.844 15.8011L168.762 17.4256C168.723 18.1791 168.723 18.8716 168.762 19.625L168.84 21.0405C169.013 24.172 170.248 28.4141 172.321 30.8966C172.801 31.4715 173.34 32.0333 173.919 32.495C176.692 34.7031 180.45 34.9035 183.668 33.8626C182.32 32.1204 179.158 31.1405 177.219 32.3905L177.223 32.3948ZM35.0845 43H31.8753C29.232 42.3859 27.7333 41.1621 25.9451 39.0715L24.1656 36.9853L23.3148 35.9923C22.9649 35.5873 22.6237 35.5263 22.1356 35.6874C20.1488 36.332 18.2527 36.3799 16.1795 36.2798C12.4737 36.1012 9.01838 34.7685 6.17638 32.3992C2.62604 29.4332 0.609 25.3784 0 20.875V15.7619C0.755851 10.5311 3.56762 6.05824 8.05954 3.20551C10.6467 1.56356 13.5794 0.69685 16.6676 0.49215C18.9783 0.339714 21.5569 0.605388 23.7381 1.43725C27.3705 2.82224 30.4802 5.28299 32.5189 8.63658C34.5575 11.9902 35.3652 16.2932 35.0369 20.3262C34.7346 24.0239 33.2618 27.3993 30.8992 30.2172C30.355 30.8661 29.746 31.4018 29.1499 32.042C30.3204 33.5664 31.3657 35.0385 32.4239 36.5977C32.9853 37.4252 33.6462 38.1351 34.4236 38.7579C35.9008 39.9426 38.1208 40.0514 39.5807 38.7057L40.9369 39.7117C38.989 42.0113 37.7839 42.399 35.0888 43H35.0845ZM14.5944 32.4079L13.9422 31.1753C17.7387 28.2094 22.2047 26.6632 26.688 29.3461C28.1695 26.7547 28.7612 23.9499 28.9297 21.0405C29.1413 17.308 28.8994 13.4318 27.6642 9.89527C26.2432 5.82305 23.1895 2.83966 18.8056 2.44333C17.9029 2.36058 16.9829 2.36494 16.0716 2.44333C13.2339 2.68723 10.7504 4.16368 9.13932 6.49813C7.07909 9.48151 6.36643 13.1835 6.15047 16.7375C5.96907 19.7078 6.23685 22.6084 7.0143 25.4873C7.46349 27.1467 8.15024 28.6536 9.07454 30.0821C10.7979 32.752 13.5924 34.3983 16.7626 34.4505C18.2743 34.4767 19.6694 34.3547 21.112 33.8713C19.7644 32.2162 16.6201 31.0839 14.5987 32.4035L14.5944 32.4079ZM115.088 0.00435543L115.058 26.7503C115.058 27.7433 114.924 28.6362 115.01 29.6031C115.144 31.1361 115.568 32.556 116.647 33.7319C118.159 35.3869 120.401 36.0794 122.612 36.1578C126.72 36.3059 130.736 34.4157 133.673 31.5368L132.537 30.3783C130.525 32.2816 126.897 34.4026 124.158 33.9714C122.444 33.7014 122.305 32.8391 122.025 31.2581V0.00435543H115.088ZM95.423 0.00435543L95.4532 30.1388C95.4532 31.6501 96.3559 33.096 97.3364 34.0673C98.6796 35.4 100.381 35.9792 102.221 36.1665C105.763 36.5236 109.236 35.1648 111.719 32.5821L110.864 31.6065C110.808 31.5412 110.657 31.3757 110.588 31.4062C110.281 31.5499 108.704 33.2833 106.342 33.8582C105.301 34.1108 104.014 34.1892 103.184 33.3835C102.588 32.8042 102.385 31.7328 102.385 30.8269L102.364 0.00435543H95.4316H95.423ZM295.106 30.8748C293.236 32.2946 291.4 33.4749 288.968 33.8495C286.83 34.1761 284.442 33.3356 283.85 31.0795C283.401 29.3635 284.049 27.6867 285.574 26.7416C286.489 26.1754 287.478 25.8618 288.541 25.5613V24.0631C287.249 23.7365 285.604 23.0744 284.947 21.9072C284.291 20.74 284.71 19.0632 285.79 18.2226C286.645 17.5519 287.681 17.3124 288.761 17.4692C289.767 17.6129 290.562 18.2575 291.404 18.9325L292.134 18.1312C290.497 16.4544 288.273 15.6835 285.967 15.7445C284.507 15.7837 283.159 15.9927 281.945 16.8463C280.265 18.031 279.341 20.1651 279.898 22.1947C280.179 23.2269 281.013 23.9542 281.812 24.4943C280.905 24.8558 280.015 25.3174 279.389 26.0404C277.302 28.4315 278.093 32.4514 280.464 34.4636C282.045 35.805 284.235 36.4932 286.273 36.5019C289.141 36.5193 292.8 35.0995 294.873 33.1265L296 32.0551V31.7415L295.106 30.8835V30.8748ZM241.25 0.00435543C240.093 0.326649 239.1 1.03221 238.724 2.25605C238.214 3.91543 238.957 5.75772 240.555 6.42409C242.425 7.20369 244.516 6.21068 245.06 4.33789C245.604 2.46511 244.511 0.55748 242.594 0H241.246L241.25 0.00435543ZM78.5524 0.00435543C77.2005 0.357136 76.2244 1.33708 75.9523 2.62625C75.6413 4.09835 76.3367 5.53996 77.464 6.21503C78.7683 6.99028 80.3405 6.803 81.4203 5.84918C82.1805 5.17411 82.513 4.33789 82.513 3.34488C82.513 1.53307 81.403 0.531348 79.8956 0.00435543H78.5481H78.5524ZM72.5574 31.367C71.0371 32.7868 68.3721 34.4331 66.3162 33.9497C64.8088 33.5969 64.6404 32.8913 64.3726 31.4758V16.3847H57.3367V24.1981C56.5204 26.6763 55.3542 28.9236 53.8555 31.0185C53.1903 31.833 52.5381 32.556 51.6095 33.0525C50.6809 33.549 49.4111 33.3181 48.8669 32.3338C48.638 31.9201 48.4393 31.2929 48.4393 30.779V16.3847H41.52C41.3559 16.572 41.3861 16.8986 41.4941 17.1338C41.4941 18.6625 41.4854 20.1433 41.4466 21.659L41.3429 25.5308C41.3213 26.3932 41.3386 27.2076 41.3602 28.0613C41.3991 29.6684 41.4854 31.2015 42.2629 32.6344C43.6666 35.2301 46.9232 36.4453 49.7264 36.1709C53.6611 35.7832 55.8639 32.3513 57.3022 29.1196C57.3972 29.9079 57.4663 30.6788 57.6175 31.4497C57.9716 33.2528 59.2155 34.6378 60.8525 35.3782C64.9298 37.2205 70.6958 36.0054 73.6545 32.5081L72.5574 31.3582V31.367ZM231.217 33.8234C230.137 34.1065 228.924 34.1761 227.995 33.5098C227.274 32.9958 227.291 32.0943 227.075 31.245V16.389H220.138V24.0065C219.262 26.7068 217.996 29.2241 216.251 31.441C215.569 32.1901 214.904 32.8783 213.945 33.2049C213.232 33.4444 212.36 33.2441 211.85 32.6866C211.34 32.1291 211.306 31.4628 211.137 30.7224V16.3847H204.205L204.149 23.2095L204.123 29.2808C204.279 31.0882 204.758 32.8478 206.114 34.0847C208.239 36.0271 211.254 36.7153 213.988 35.8529C216.977 34.9122 218.735 31.8852 220.061 29.2111C220.203 30.2912 220.242 31.2232 220.553 32.1422C221.305 34.3634 223.395 35.6395 225.607 36.0315C229.658 36.7501 233.515 35.5393 236.443 32.5734L235.273 31.367C233.994 32.5473 232.742 33.3573 231.221 33.8234H231.217ZM153.645 29.6248C153.753 31.9506 151.935 34.1021 149.559 34.2153C148.644 34.2589 147.676 33.9758 146.912 33.5664C145.206 32.6561 144.497 30.8792 144.45 29.0194C144.363 25.7355 146.773 23.0614 150.078 23.0614L150.047 21.659C148.117 21.2191 145.758 19.8428 145.551 17.7043C145.417 16.3455 146.657 15.3002 148.009 15.4483C149.529 15.6094 149.46 15.9404 151.313 15.984C152.431 16.0101 153.516 15.8011 154.431 15.1216L153.995 13.7323C151.283 15.0737 150.021 13.2445 147.391 13.0311C145.504 12.8787 143.793 13.5624 142.761 15.187C142.346 15.8359 142.281 16.6373 142.303 17.4343C142.277 19.3594 144.026 20.8924 145.387 21.9682C142.169 22.5779 139.716 24.1371 139.388 27.6519C139.098 30.0908 139.992 32.3382 141.893 33.954C143.43 35.2606 145.404 35.8791 147.426 36.062C150.306 36.3233 153.235 35.7092 155.2 33.4662C157.36 31.0011 157.623 27.1205 155.092 25.0735C153.662 23.915 151.559 23.9803 150.069 25.0343L150.298 26.3888C151.745 26.023 152.971 26.9855 153.386 28.2965C153.52 28.7233 153.628 29.1414 153.649 29.6205L153.645 29.6248ZM245.492 31.4062V16.4936H238.452L238.46 30.0125C239.039 34.6422 243.138 36.5367 247.315 36.1752C250.178 35.927 252.834 34.677 254.769 32.5342L253.672 31.367C251.94 32.9654 248.701 34.9383 246.464 33.5577C245.747 33.1178 245.626 32.225 245.488 31.4018L245.492 31.4062ZM86.6767 33.8626C85.6185 34.1282 84.3573 34.1587 83.5194 33.4053C82.8326 32.7868 82.9018 31.8243 82.6988 30.9358V16.4936H75.7622V30.252C76.3237 33.9279 79.1484 35.8573 82.6469 36.1796C86.1757 36.5062 89.6526 35.1082 92.0627 32.5647L90.9311 31.3539C89.644 32.5473 88.2877 33.4619 86.6767 33.8669V33.8626ZM275.026 30.5569L274.27 29.9341C272.335 31.833 268.31 33.9845 265.883 32.0377C264.056 30.5743 263.274 28.3487 263.39 25.9794C263.494 23.915 263.965 21.9246 264.872 20.0606L266.388 16.9422L265.598 16.1669C263.507 17.6042 259.939 18.0745 258.065 16.2279C257.192 15.3699 256.67 14.3159 256.259 13.1356L255.331 13.4448L255.262 14.6513C255.413 17.8002 257.465 19.6512 260.596 19.5379C261.378 19.5074 262.082 19.4987 262.851 19.3245C260.92 22.003 259.119 25.0561 258.704 28.3836C258.639 28.8975 258.674 29.3635 258.704 29.8426C258.851 32.4122 260.237 34.4897 262.574 35.5001C265.325 36.6891 268.409 36.1317 270.971 34.677C271.968 34.1108 272.845 33.4662 273.692 32.7128C274.037 32.4079 275.277 31.1927 275.303 30.9445C275.316 30.8313 275.121 30.6309 275.022 30.5525L275.026 30.5569Z" fill="#800020"/>
</svg>
