<svg width="198" height="20" viewBox="0 0 198 20" fill="none" xmlns="http://www.w3.org/2000/svg">
<path d="M14.3133 11.4755L17.6631 19.782C17.6631 19.782 17.6631 19.7892 17.6587 19.7892H12.4426C12.4426 19.7892 12.4382 19.7892 12.4382 19.7863L9.53394 12.3681C9.53394 12.3681 9.53103 12.3652 9.52958 12.3652H4.75896C4.75896 12.3652 4.75314 12.3681 4.75314 12.371V19.7849C4.75314 19.7849 4.75023 19.7907 4.74732 19.7907H0.00582314C0.00582314 19.7907 0 19.7878 0 19.7849V0.284925C0 0.284925 0.00291157 0.279111 0.00582314 0.279111H11.0727C14.2187 0.279111 17.0371 2.83762 17.2088 5.97471C17.3355 8.2861 16.1345 10.3547 14.3147 11.4697C14.3133 11.4697 14.3118 11.4741 14.3133 11.4755ZM12.4368 6.35413C12.463 5.62292 11.8312 5.02399 11.0975 5.02399H4.75605C4.75605 5.02399 4.75023 5.0269 4.75023 5.02981V7.61449C4.75023 7.61449 4.75314 7.6203 4.75605 7.6203H11.1513C11.8355 7.6203 12.412 7.05917 12.4368 6.35558V6.35413ZM35.8895 17.3892H27.9234L27.0005 19.7892H21.8572L29.3763 0.279111H34.4075L41.9543 19.7892H36.811L35.888 17.3892H35.8895ZM34.0727 12.6443L31.8919 7.00684L29.7403 12.6443H34.0727ZM48.8649 10.2646C48.9945 13.0571 51.3776 15.2566 54.1756 15.2101C55.5659 15.1868 56.847 14.6315 57.8311 13.6473L61.2406 16.9414C59.201 19.0377 56.4204 20.1381 53.487 19.9666C48.2593 19.6599 44.122 15.2799 44.106 10.0509C44.0885 4.53845 48.5679 0.0552406 54.0839 0.0552406C56.9911 0.0552406 59.7586 1.33886 61.6584 3.54412L58.0524 6.64196C57.0464 5.47028 55.5921 4.80012 54.0839 4.80012C51.1243 4.80012 48.7252 7.27868 48.862 10.2646H48.8649ZM84.7486 9.99274C84.7486 15.5197 80.2764 11.7532 74.7415 11.7532C69.2066 11.7532 64.7344 15.5197 64.7344 9.99274C64.7344 4.46577 69.2357 0 74.7415 0C80.2473 0 84.7486 4.49339 84.7486 9.99274ZM79.9896 9.72235C79.8615 7.14058 77.8161 5.00945 75.2394 4.76814C72.1415 4.47885 69.4861 6.92398 69.4861 9.99274C69.4861 12.8958 71.862 15.2406 74.7415 15.2406C77.6211 15.2406 80.141 12.749 79.9896 9.72381V9.72235ZM102.917 0.334351H107.668V19.7878H102.47L94.811 8.17707V19.7325L93.2023 19.7035L90.0593 16.1521V0.25149H95.2856L102.917 11.807V0.334351ZM130.588 0.279111V5.02399H124.439V19.7892H119.687V5.02399H113.538V0.279111H130.588ZM136.575 0.266027H148.768L151.863 2.57596V5.03998H141.326V7.63629H149.572V12.3812H141.326V14.9775H151.863V19.7224H136.575V0.266027ZM169.697 6.30906L174.476 4.82047V11.3752C174.476 16.2495 170.375 20.2108 165.417 19.9913C160.783 19.7849 157.174 15.8831 157.174 11.2502V4.82047L161.926 6.30906V11.2735C161.926 13.3246 163.489 15.0792 165.539 15.2173C167.816 15.37 169.697 13.5848 169.697 11.3752V6.30906ZM180.832 5.50953C180.957 4.53991 181.355 3.62989 181.937 2.85071C183.091 1.30542 184.974 0.266027 186.914 0.266027H198V19.7761H193.248V12.3521H188.469L185.562 19.7761H180.336L183.69 11.4581C181.751 10.2719 180.512 8.00262 180.833 5.50953H180.832ZM186.847 7.60576H193.248V5.00945H186.892C186.218 5.00945 185.595 5.5575 185.563 6.22911C185.528 6.98358 186.128 7.60431 186.847 7.60431V7.60576Z" fill="#751F26"/>
</svg>
