<svg width="127" height="62" viewBox="0 0 127 62" fill="none" xmlns="http://www.w3.org/2000/svg">
<path d="M25.7324 45.6869H29.4365C29.7355 45.6869 29.9788 45.4475 29.9788 45.1507C29.9788 44.8538 29.7367 44.6144 29.4365 44.6144H24.649C24.35 44.6144 24.1067 44.8538 24.1067 45.1507V53.2605C24.1067 53.5562 24.3488 53.7968 24.649 53.7968H28.3531C28.6521 53.7968 28.8954 54.0362 28.8954 54.333V56.1992C28.8954 56.4949 28.6533 56.7355 28.3531 56.7355H5.55126C5.25227 56.7355 5.00897 56.9749 5.00897 57.2717V57.3053C5.00897 57.6009 5.25106 57.8415 5.55126 57.8415H29.4353C29.7342 57.8415 29.9775 57.6021 29.9775 57.3053V53.2629C29.9775 52.9672 29.7355 52.7266 29.4353 52.7266H25.7312C25.4322 52.7266 25.1889 52.4872 25.1889 52.1904V46.2244C25.1889 45.9287 25.431 45.6881 25.7312 45.6881L25.7324 45.6869Z" fill="#751F26"/>
<path d="M5.01018 33.032C5.01018 33.3276 5.25227 33.5682 5.55247 33.5682H15.102C15.4009 33.5682 15.6443 33.3288 15.6443 33.032V27.1366C15.6443 26.9774 15.5728 26.8254 15.4482 26.7236L10.6704 22.0708C10.4694 21.9068 10.1789 21.9068 9.9792 22.0708L5.20749 26.7224C5.08402 26.8242 5.01139 26.975 5.01139 27.1342V33.0296L5.01018 33.032ZM6.09356 27.6405C6.09356 27.4849 6.16256 27.3365 6.28118 27.2348L9.96952 23.4725C10.1729 23.2989 10.4743 23.2989 10.6776 23.4725L14.372 27.2359C14.4919 27.3377 14.5597 27.4861 14.5597 27.6417V31.9618C14.5597 32.2575 14.3176 32.4981 14.0174 32.4981H6.63464C6.33566 32.4981 6.09235 32.2587 6.09235 31.9618V27.6405H6.09356Z" fill="#751F26"/>
<path d="M17.2457 45.6821L19.8846 45.6761C20.1799 45.6761 20.4196 45.4379 20.4196 45.1459C20.4196 44.8538 20.1799 44.6156 19.8834 44.6156H19.3374L16.1805 44.6192C15.8839 44.6192 15.6443 44.3822 15.6443 44.0889V37.036C15.6443 36.7439 15.4046 36.5057 15.108 36.5057H15.0959C14.7993 36.5057 14.5597 36.7427 14.5597 37.036V53.2665C14.5597 53.5598 14.7993 53.7968 15.0959 53.7968H15.108C15.4034 53.7968 15.6443 53.5598 15.6443 53.2665V46.8181C15.6443 46.5536 16.0086 46.4758 16.1188 46.7176L19.1958 53.4844C19.2817 53.6747 19.4742 53.7968 19.6848 53.7968H19.8809C20.1787 53.7968 20.4184 53.5574 20.4172 53.2641L20.4148 52.8655C20.4148 52.7841 20.3954 52.7039 20.3579 52.6321L17.0254 46.0376C16.9431 45.8749 17.0629 45.6833 17.2469 45.6821H17.2457Z" fill="#751F26"/>
<path d="M5.55126 8.16851C5.25227 8.16851 5.00897 8.40792 5.00897 8.70478V20.9145C5.00897 21.2101 5.25227 21.4507 5.55126 21.4507H5.86962C6.01246 21.4507 6.15045 21.3945 6.25092 21.2939L9.88478 17.309C10.1257 17.072 10.5154 17.0708 10.7588 17.3066L14.4011 21.2963C14.5028 21.3957 14.6396 21.4507 14.7812 21.4507H15.1007C15.3997 21.4507 15.643 21.2113 15.643 20.9145V8.70478C15.643 8.40911 15.4009 8.16851 15.1007 8.16851C14.8005 8.16851 14.5584 8.40792 14.5584 8.70478V19.8204C14.5584 19.9329 14.4168 19.9868 14.3418 19.9018L11.0069 16.2903C10.904 16.1754 10.7563 16.1096 10.6014 16.1096H9.99131C9.83515 16.1096 9.68506 16.1766 9.58216 16.2939L6.31024 19.8862C6.23519 19.9712 6.09235 19.9185 6.09235 19.806V8.70598C6.09235 8.41031 5.85025 8.16971 5.55005 8.16971L5.55126 8.16851Z" fill="#751F26"/>
<path d="M5.01018 53.2605C5.01018 53.5562 5.25227 53.7968 5.55247 53.7968C5.85267 53.7968 6.09477 53.5574 6.09477 53.2605V46.222C6.09477 45.9263 6.33687 45.6857 6.63707 45.6857H9.24444C9.54343 45.6857 9.78673 45.9251 9.78673 46.222V53.2605C9.78673 53.5562 10.0288 53.7968 10.329 53.7968C10.6292 53.7968 10.8713 53.5574 10.8713 53.2605V45.7839C10.8713 45.6797 10.8435 45.5744 10.7817 45.4894C10.6643 45.3266 9.91747 45.1207 9.31223 45.1207C10.0313 45.1207 10.7539 44.782 10.8338 44.5892C10.8592 44.527 10.8713 44.46 10.8713 44.3917V38.3468C10.8713 37.3305 10.0373 36.5057 9.00961 36.5057H5.5549C5.25591 36.5057 5.0126 36.7451 5.0126 37.042V53.2605H5.01018ZM6.09356 38.1121C6.09356 37.8165 6.33565 37.5759 6.63585 37.5759H9.24323C9.54222 37.5759 9.78552 37.8153 9.78552 38.1121V44.0793C9.78552 44.375 9.54343 44.6156 9.24323 44.6156H6.63585C6.33687 44.6156 6.09356 44.3762 6.09356 44.0793V38.1121Z" fill="#751F26"/>
<path d="M29.4365 20.3782H19.8797C19.5807 20.3782 19.3374 20.6176 19.3374 20.9145V29.1165C19.3374 29.4121 19.5795 29.6527 19.8797 29.6527H29.4365C29.7355 29.6527 29.9788 29.4133 29.9788 29.1165V20.9145C29.9788 20.6188 29.7367 20.3782 29.4365 20.3782ZM28.8942 28.0451C28.8942 28.3408 28.6521 28.5814 28.3519 28.5814H20.9607C20.6617 28.5814 20.4184 28.342 20.4184 28.0451V21.9858C20.4184 21.6901 20.6605 21.4495 20.9607 21.4495H28.3519C28.6509 21.4495 28.8942 21.6889 28.8942 21.9858V28.0451Z" fill="#751F26"/>
<path d="M34.4539 0H0.542295C0.242096 0 0 0.239405 0 0.536268V61.4637C0 61.7594 0.242096 62 0.542295 62H34.4539C34.7529 62 34.9962 61.7606 34.9962 61.4637V0.536268C34.9962 0.240602 34.7541 0 34.4539 0ZM33.6731 60.2871C33.6731 60.5827 33.4311 60.8233 33.1309 60.8233H1.86414C1.56515 60.8233 1.32184 60.5839 1.32184 60.2871V1.71175C1.32184 1.41608 1.56394 1.17548 1.86414 1.17548H33.1309C33.4298 1.17548 33.6731 1.41489 33.6731 1.71175V60.2871Z" fill="#751F26"/>
<path d="M5.55126 4.15967C5.25227 4.15967 5.00897 4.39907 5.00897 4.69594C5.00897 4.9928 5.25106 5.2322 5.55126 5.2322H9.24323C9.54222 5.2322 9.78552 5.47161 9.78552 5.76847V12.8513C9.78552 13.1469 10.0276 13.3875 10.3278 13.3875C10.628 13.3875 10.8701 13.1481 10.8701 12.8513V5.76847C10.8701 5.47281 11.1122 5.2322 11.4124 5.2322H29.4461C29.7451 5.2322 29.9884 4.9928 29.9884 4.69594C29.9884 4.39907 29.7463 4.15967 29.4461 4.15967H5.55126Z" fill="#751F26"/>
<path d="M28.1158 32.4981H19.8785C19.5795 32.4981 19.3362 32.7375 19.3362 33.0343V41.052C19.3362 41.3477 19.5783 41.5883 19.8785 41.5883H28.1158C29.1435 41.5883 29.9776 40.7635 29.9776 39.7473V34.3403C29.9776 33.324 29.1435 32.4993 28.1158 32.4993V32.4981ZM28.8942 39.9795C28.8942 40.2752 28.6521 40.5158 28.3519 40.5158H20.9607C20.6617 40.5158 20.4184 40.2764 20.4184 39.9795V34.1045C20.4184 33.8088 20.6605 33.5682 20.9607 33.5682H28.3519C28.6509 33.5682 28.8942 33.8076 28.8942 34.1045V39.9795Z" fill="#751F26"/>
<path d="M29.4365 8.16851H19.8797C19.5807 8.16851 19.3374 8.40792 19.3374 8.70478V16.7679C19.3374 17.0636 19.5795 17.3042 19.8797 17.3042H29.4365C29.7355 17.3042 29.9788 17.0648 29.9788 16.7679V8.70478C29.9788 8.40911 29.7367 8.16851 29.4365 8.16851ZM28.8942 15.6954C28.8942 15.9911 28.6521 16.2317 28.3519 16.2317H20.9607C20.6617 16.2317 20.4184 15.9923 20.4184 15.6954V9.77612C20.4184 9.48045 20.6605 9.23985 20.9607 9.23985H28.3519C28.6509 9.23985 28.8942 9.47925 28.8942 9.77612V15.6954Z" fill="#751F26"/>
<path d="M42.9309 5.49914H39.4617C39.2426 5.49914 39.0828 5.32198 39.0828 5.12447V4.55229C39.0828 4.35478 39.2426 4.17762 39.4617 4.17762H47.9144C48.1335 4.17762 48.2933 4.35478 48.2933 4.55229V5.12447C48.2933 5.32198 48.1335 5.49914 47.9144 5.49914H44.4452V17.6035C44.4452 17.801 44.2661 17.9781 44.0663 17.9781H43.3086C43.1088 17.9781 42.9297 17.801 42.9297 17.6035V5.49914H42.9309Z" fill="#751F26"/>
<path d="M50.885 9.89462C53.0977 9.89462 54.8517 11.7871 54.8517 14.0148C54.8517 16.2425 53.0977 18.1745 50.885 18.1745C48.6722 18.1745 46.9182 16.282 46.9182 14.0148C46.9182 11.7476 48.6722 9.89462 50.885 9.89462ZM50.885 16.8936C52.34 16.8936 53.4766 15.6116 53.4766 14.016C53.4766 12.4203 52.34 11.197 50.885 11.197C49.43 11.197 48.2933 12.4587 48.2933 14.016C48.2933 15.5733 49.43 16.8936 50.885 16.8936Z" fill="#751F26"/>
<path d="M57.1044 10.4668C57.1044 10.2693 57.2836 10.0921 57.4833 10.0921H57.8622C58.022 10.0921 58.1612 10.1903 58.2011 10.3686L58.3609 10.9408C58.3609 10.9408 59.0981 9.89582 60.7528 9.89582C61.3508 9.89582 62.347 9.99398 62.1485 10.5458L61.9088 11.2161C61.8096 11.4723 61.6292 11.4723 61.4307 11.3933C61.2515 11.3143 60.9525 11.2353 60.6535 11.2353C59.138 11.2353 58.4807 12.339 58.4807 12.339V17.6023C58.4807 17.7998 58.3016 17.9769 58.1019 17.9769H57.4833C57.2836 17.9769 57.1044 17.7998 57.1044 17.6023V10.4656V10.4668Z" fill="#751F26"/>
<path d="M67.0921 9.89462C69.3049 9.89462 71.0588 11.7871 71.0588 14.0148C71.0588 16.2425 69.3049 18.1745 67.0921 18.1745C64.8793 18.1745 63.1253 16.282 63.1253 14.0148C63.1253 11.7476 64.8793 9.89462 67.0921 9.89462ZM67.0921 16.8936C68.5471 16.8936 69.6837 15.6116 69.6837 14.016C69.6837 12.4203 68.5471 11.197 67.0921 11.197C65.6371 11.197 64.5005 12.4587 64.5005 14.016C64.5005 15.5733 65.6371 16.8936 67.0921 16.8936Z" fill="#751F26"/>
<path d="M73.3128 10.4668C73.3128 10.2693 73.4919 10.0921 73.6916 10.0921H74.0705C74.2497 10.0921 74.3501 10.1711 74.3889 10.3291L74.568 10.9408C74.568 10.9408 75.7047 9.89582 77.3594 9.89582C79.6714 9.89582 80.4497 11.3945 80.4497 13.4438V17.6035C80.4497 17.801 80.2706 17.9781 80.0709 17.9781H79.4329C79.2332 17.9781 79.0541 17.801 79.0541 17.6035V13.4438C79.0541 11.9451 78.3762 11.2161 77.2601 11.2161C75.7652 11.2161 74.6891 12.3401 74.6891 12.3401V17.6035C74.6891 17.801 74.5099 17.9781 74.3102 17.9781H73.6916C73.4919 17.9781 73.3128 17.801 73.3128 17.6035V10.4668Z" fill="#751F26"/>
<path d="M83.6987 11.2748H82.6819C82.4628 11.2748 82.303 11.0976 82.303 10.9001V10.4668C82.303 10.2501 82.4628 10.0921 82.6819 10.0921H83.6987V7.90397C83.6987 7.70646 83.8778 7.5293 84.0776 7.5293L84.7155 7.4898C84.9152 7.4898 85.0738 7.66696 85.0738 7.86446V10.0921H87.3858C87.6049 10.0921 87.7647 10.2501 87.7647 10.4668V10.9001C87.7647 11.0976 87.6049 11.2748 87.3858 11.2748H85.0738V15.8881C85.0738 16.677 85.2735 16.835 85.7311 16.835C86.2298 16.835 86.927 16.5393 87.1861 16.4017C87.4851 16.2437 87.565 16.3622 87.6642 16.5202L87.9632 17.0133C88.1024 17.2504 88.0431 17.3677 87.824 17.5065C87.5444 17.6837 86.4683 18.1769 85.5314 18.1769C83.9372 18.1769 83.6975 17.23 83.6975 16.0078V11.276L83.6987 11.2748Z" fill="#751F26"/>
<path d="M93.3874 9.89462C95.6001 9.89462 97.3541 11.7871 97.3541 14.0148C97.3541 16.2425 95.6001 18.1745 93.3874 18.1745C91.1746 18.1745 89.4206 16.282 89.4206 14.0148C89.4206 11.7476 91.1746 9.89462 93.3874 9.89462ZM93.3874 16.8936C94.8424 16.8936 95.979 15.6116 95.979 14.016C95.979 12.4203 94.8424 11.197 93.3874 11.197C91.9324 11.197 90.7957 12.4587 90.7957 14.016C90.7957 15.5733 91.9324 16.8936 93.3874 16.8936Z" fill="#751F26"/>
<path d="M39.6614 24.5223C39.5815 24.2458 39.7413 24.0495 40.0197 24.0495H40.8573C41.0171 24.0495 41.1757 24.1871 41.2156 24.326L43.9864 34.5378H44.0663L47.3952 24.0698C47.4351 23.9513 47.5549 23.8532 47.7341 23.8532H48.0924C48.2522 23.8532 48.3914 23.9513 48.4313 24.0698L51.8207 34.5378H51.9006L54.612 24.326C54.652 24.1883 54.8118 24.0495 54.9703 24.0495H55.808C56.0876 24.0495 56.2462 24.247 56.1663 24.5223L52.3981 37.7698C52.3581 37.9278 52.1983 38.0463 52.0398 38.0463H51.7202C51.581 38.0463 51.4406 37.9481 51.3813 37.8296L47.9326 27.1641H47.8333L44.444 37.8296C44.3847 37.9481 44.2443 38.0463 44.1051 38.0463H43.7855C43.6257 38.0463 43.4671 37.9278 43.4272 37.7698L39.659 24.5223H39.6614Z" fill="#751F26"/>
<path d="M59.7554 29.7653C61.9681 29.7653 63.7221 31.6578 63.7221 33.8854C63.7221 36.1131 61.9681 38.0451 59.7554 38.0451C57.5426 38.0451 55.7886 36.1526 55.7886 33.8854C55.7886 31.6183 57.5426 29.7653 59.7554 29.7653ZM59.7554 36.7643C61.2104 36.7643 62.347 35.4823 62.347 33.8866C62.347 32.291 61.2104 31.0676 59.7554 31.0676C58.3004 31.0676 57.1637 32.3293 57.1637 33.8866C57.1637 35.444 58.3004 36.7643 59.7554 36.7643Z" fill="#751F26"/>
<path d="M69.3654 29.7653C71.5781 29.7653 73.3321 31.6578 73.3321 33.8854C73.3321 36.1131 71.5781 38.0451 69.3654 38.0451C67.1526 38.0451 65.3986 36.1526 65.3986 33.8854C65.3986 31.6183 67.1526 29.7653 69.3654 29.7653ZM69.3654 36.7643C70.8204 36.7643 71.957 35.4823 71.957 33.8866C71.957 32.291 70.8204 31.0676 69.3654 31.0676C67.9104 31.0676 66.7737 32.3293 66.7737 33.8866C66.7737 35.444 67.9104 36.7643 69.3654 36.7643Z" fill="#751F26"/>
<path d="M78.8338 29.7653C80.1496 29.7653 80.9666 30.2776 80.9666 30.2776V24.4229C80.9666 24.2254 81.1458 24.0483 81.3455 24.0483H81.9629C82.1626 24.0483 82.3417 24.2254 82.3417 24.4229V37.4729C82.3417 37.6704 82.1626 37.8476 81.9629 37.8476H81.544C81.3649 37.8476 81.245 37.7099 81.2051 37.5328L81.0853 37.0001C81.0853 37.0001 80.129 38.0451 78.6328 38.0451C76.5992 38.0451 75.005 36.1526 75.005 33.8854C75.005 31.6183 76.4406 29.7653 78.8325 29.7653H78.8338ZM78.7744 36.8038C80.2101 36.8038 80.9473 35.5026 80.9473 35.5026V31.5596C80.9473 31.5596 80.1096 31.0868 79.0141 31.0868C77.2795 31.0868 76.4031 32.3293 76.4031 33.9058C76.4031 35.4823 77.3207 36.8038 78.7757 36.8038H78.7744Z" fill="#751F26"/>
<path d="M84.4359 30.4165C84.356 30.1399 84.4359 29.9628 84.7348 29.9628H85.3534C85.5325 29.9628 85.6718 30.0609 85.7117 30.1794L87.1667 35.3841H87.1873L89.44 29.9628C89.4799 29.8646 89.5998 29.7653 89.7789 29.7653H89.8782C90.0573 29.7653 90.1772 29.8634 90.2171 29.9628L92.4504 35.4033H92.4698L93.9054 30.1794C93.9454 30.0609 94.0846 29.9628 94.2444 29.9628H94.8629C95.1619 29.9628 95.2418 30.1399 95.1619 30.4165L92.9891 37.8488C92.9492 37.9673 92.81 38.0463 92.6502 38.0463H92.5509C92.3718 38.0463 92.2519 37.9481 92.212 37.8488L89.7801 31.9343L87.4282 37.8488C87.3882 37.9469 87.2684 38.0463 87.0892 38.0463H86.99C86.8108 38.0463 86.691 37.9673 86.651 37.8488L84.4383 30.4165H84.4359Z" fill="#751F26"/>
<path d="M100.225 29.7653C102.438 29.7653 104.192 31.6578 104.192 33.8854C104.192 36.1131 102.438 38.0451 100.225 38.0451C98.0126 38.0451 96.2586 36.1526 96.2586 33.8854C96.2586 31.6183 98.0126 29.7653 100.225 29.7653ZM100.225 36.7643C101.68 36.7643 102.817 35.4823 102.817 33.8866C102.817 32.291 101.68 31.0676 100.225 31.0676C98.7704 31.0676 97.6337 32.3293 97.6337 33.8866C97.6337 35.444 98.7704 36.7643 100.225 36.7643Z" fill="#751F26"/>
<path d="M106.445 30.3374C106.445 30.1399 106.624 29.9628 106.824 29.9628H107.203C107.362 29.9628 107.502 30.0609 107.542 30.2393L107.701 30.8115C107.701 30.8115 108.438 29.7665 110.093 29.7665C110.691 29.7665 111.687 29.8646 111.489 30.4164L111.249 31.0868C111.15 31.3429 110.97 31.3429 110.771 31.2639C110.592 31.1849 110.293 31.1059 109.994 31.1059C108.478 31.1059 107.821 32.2096 107.821 32.2096V37.4729C107.821 37.6704 107.642 37.8476 107.442 37.8476H106.824C106.624 37.8476 106.445 37.6704 106.445 37.4729V30.3362V30.3374Z" fill="#751F26"/>
<path d="M113.123 24.4229C113.123 24.2254 113.302 24.0483 113.502 24.0483H114.12C114.32 24.0483 114.499 24.2254 114.499 24.4229V32.9589L117.889 30.1986C118.048 30.0609 118.207 29.9616 118.367 29.9616H119.443C119.782 29.9616 119.761 30.3362 119.622 30.4548L115.835 33.4509L120.241 37.3544C120.4 37.4921 120.38 37.8476 120.041 37.8476H118.944C118.765 37.8476 118.626 37.7494 118.546 37.6896L114.499 33.8842V37.4717C114.499 37.6692 114.32 37.8464 114.12 37.8464H113.502C113.302 37.8464 113.123 37.6692 113.123 37.4717V24.4217V24.4229Z" fill="#751F26"/>
<path d="M121.556 36.7439C121.636 36.6254 121.776 36.3501 121.836 36.2508C121.935 36.0927 122.154 36.0532 122.375 36.1921C122.375 36.1921 123.232 36.8816 124.249 36.8816C125.066 36.8816 125.544 36.4674 125.544 35.9347C125.544 35.2453 124.946 34.9292 123.79 34.3583C122.733 33.8459 121.518 33.1552 121.518 31.8146C121.518 30.9862 122.196 29.7641 124.05 29.7641C125.086 29.7641 125.884 30.1184 126.263 30.3746C126.442 30.4931 126.502 30.7684 126.383 30.9862L126.223 31.3022C126.103 31.5189 125.825 31.5788 125.644 31.4794C125.644 31.4794 124.787 31.0066 124.05 31.0066C123.153 31.0066 122.913 31.4603 122.913 31.7954C122.913 32.4454 123.571 32.7411 124.389 33.1361C125.764 33.7861 127 34.3978 127 35.8174C127 36.9606 125.884 38.0451 124.249 38.0451C122.913 38.0451 122.095 37.4933 121.657 37.1581C121.558 37.0791 121.497 36.8816 121.558 36.7439H121.556Z" fill="#751F26"/>
<path d="M40.9566 44.1739C40.9566 43.9764 41.1164 43.7992 41.3355 43.7992H42.1126C42.3123 43.7992 42.4915 43.9764 42.4915 44.1739V56.2782H48.2328C48.4519 56.2782 48.6117 56.4554 48.6117 56.6529V57.2251C48.6117 57.4226 48.4519 57.5997 48.2328 57.5997H41.3355C41.1164 57.5997 40.9566 57.4226 40.9566 57.2251V44.1739Z" fill="#751F26"/>
<path d="M50.4456 50.8964H49.4288C49.2097 50.8964 49.0499 50.7192 49.0499 50.5217V50.0884C49.0499 49.8717 49.2097 49.7137 49.4288 49.7137H50.4456V47.5255C50.4456 47.328 50.6247 47.1509 50.8244 47.1509L51.4624 47.1114C51.6621 47.1114 51.8207 47.2885 51.8207 47.486V49.7137H54.1327C54.3518 49.7137 54.5116 49.8717 54.5116 50.0884V50.5217C54.5116 50.7192 54.3518 50.8964 54.1327 50.8964H51.8207V55.5097C51.8207 56.2986 52.0204 56.4566 52.478 56.4566C52.9767 56.4566 53.6739 56.1609 53.933 56.0232C54.2319 55.8652 54.3118 55.9837 54.4111 56.1417L54.7101 56.6349C54.8493 56.8719 54.79 56.9892 54.5709 57.1281C54.2913 57.3053 53.2151 57.7984 52.2782 57.7984C50.684 57.7984 50.4444 56.8528 50.4444 55.6294V50.8976L50.4456 50.8964Z" fill="#751F26"/>
<path d="M59.995 49.5162C61.3108 49.5162 62.1279 50.0285 62.1279 50.0285V44.1739C62.1279 43.9764 62.3071 43.7992 62.5068 43.7992H63.1241C63.3239 43.7992 63.503 43.9764 63.503 44.1739V57.2239C63.503 57.4214 63.3239 57.5985 63.1241 57.5985H62.7053C62.5262 57.5985 62.4063 57.4609 62.3664 57.2837L62.2465 56.751C62.2465 56.751 61.2903 57.796 59.7941 57.796C57.7605 57.796 56.1663 55.9035 56.1663 53.6364C56.1663 51.3692 57.6019 49.5162 59.9938 49.5162H59.995ZM59.9357 56.5547C61.3714 56.5547 62.1085 55.2536 62.1085 55.2536V51.3105C62.1085 51.3105 61.2709 50.8377 60.1754 50.8377C58.4408 50.8377 57.5644 52.0802 57.5644 53.6567C57.5644 55.2332 58.4819 56.5547 59.9369 56.5547H59.9357Z" fill="#751F26"/>
<path d="M67.1914 55.5492C67.8293 55.5492 68.328 56.0424 68.328 56.6732C68.328 57.3041 67.8293 57.7972 67.1914 57.7972C66.5534 57.7972 66.0547 57.2849 66.0547 56.6732C66.0547 56.0616 66.5728 55.5492 67.1914 55.5492Z" fill="#751F26"/>
</svg>
