<svg width="83" height="76" viewBox="0 0 83 76" fill="none" xmlns="http://www.w3.org/2000/svg">
<path d="M47.2786 10.8793C47.2744 10.8887 47.2692 10.8976 47.265 10.907C47.2687 10.8986 47.2739 10.8897 47.2786 10.8793Z" fill="#751F26"/>
<path d="M82.7865 63.5537C80.4233 60.3708 78.2609 54.4304 78.0073 53.7719C77.5336 52.5405 77.0105 51.3343 76.4399 50.1551C75.9497 49.142 75.4251 48.1489 74.867 47.1774C74.2241 46.0579 73.5372 44.9675 72.8084 43.9082C71.0688 41.427 73.4808 43.8611 74.1627 45.1315C74.845 46.402 75.2753 47.525 76.7559 48.7302C75.2753 47.0354 75.2379 45.7319 73.8272 43.6193C72.8583 42.2356 70.8651 41.2129 69.6666 39.8316C69.5463 39.6917 70.5671 40.4891 71.516 41.1758C72.1405 41.6277 73.6076 42.4412 73.959 43.345C73.7344 41.5941 71.8015 40.9195 71.5255 40.6301C70.6679 39.7303 71.3059 40.0728 71.3004 39.636C71.2959 39.2693 71.2135 38.7517 71.0213 38.0355C71.0513 40.0989 69.3496 38.9473 67.3753 37.2385C68.0283 37.7521 69.6281 38.8094 70.609 37.9788C69.5408 38.4874 64.9578 35.0723 64.5205 34.6987C64.3284 34.5342 64.1347 34.3711 63.94 34.2096C64.8799 34.5086 65.7974 34.8577 66.6905 35.2529C67.7887 35.7053 64.2001 34.5943 66.8327 36.1146C66.336 35.1119 69.2098 36.5223 69.6985 36.8167C69.8797 36.9125 69.9426 36.9406 70.301 37.1598C70.1423 32.7807 69.1819 29.0261 67.7492 25.8332C64.3628 23.3204 62.2543 20.8211 60.6943 19.0416C59.1344 17.2621 55.3956 12.235 54.243 8.61975C54.524 12.4326 58.6981 18.0485 60.0619 19.5075C65.9716 25.8301 67.3564 28.362 65.749 26.8789C63.6525 25.1726 57.4088 18.6213 55.9437 14.2823C55.8044 16.3578 60.2531 22.1161 62.1949 24.661C62.8378 25.4495 65.3791 30.5413 61.9872 26.6813C61.9877 26.6843 61.9882 26.6873 61.9892 26.6898C60.1642 24.4649 57.5615 20.3306 55.7235 16.0859C55.3377 15.1952 54.2569 14.2989 53.9564 13.4151C53.6954 12.6477 54.2015 11.8894 54.0248 11.1501C53.604 9.38713 51.8873 7.49476 52.0561 6.28952C51.6722 7.61011 52.988 9.28381 53.3509 11.1135C53.4892 11.8111 52.9471 12.5394 53.1807 13.2943C53.4617 14.2011 54.5385 15.1465 54.9453 16.121C55.9142 18.4417 57.5221 20.9325 59.0845 23.4854C53.6614 17.0018 47.4082 6.89841 49.9805 1.57288C48.3272 4.50448 49.037 8.17788 50.3169 11.3753C50.3124 11.3718 50.3084 11.3678 50.304 11.3643C51.0627 13.1909 51.0752 13.9633 50.9294 14.4027C50.563 15.317 49.1044 12.1642 49.2547 11.1757C48.9267 12.4561 49.6046 13.5189 49.9371 14.175C50.4083 15.1044 51.0602 16.1396 51.6967 17.0489C51.7985 17.7275 51.8639 18.3886 51.8719 18.8084C51.8779 19.1248 51.2948 18.4623 50.585 18.5611C52.1873 19.338 54.0847 22.0635 54.4406 23.5451C54.7127 24.656 54.8824 25.8096 54.9393 26.9958C54.9453 27.1242 54.9498 27.2521 54.9533 27.3795C55.0277 27.3875 55.147 27.6909 55.2398 27.8218C55.2343 27.8218 55.2288 27.8213 55.2233 27.8208C54.0653 27.7541 52.9551 25.7584 53.8546 23.9508C52.1279 26.6035 53.8651 27.3253 53.5281 27.6327C53.5147 27.6398 53.5022 27.6473 53.4912 27.6558C53.2905 27.8058 52.6521 27.3504 52.121 26.91C51.7026 26.5629 51.3742 25.5097 51.3642 25.2313C51.3437 23.1694 53.1243 20.5713 50.7253 19.0556C51.9997 20.1851 51.3812 23.8004 51.1371 22.5174C50.9424 21.2108 50.609 19.9529 50.1527 18.7582C50.1148 18.6584 48.7011 14.8757 49.076 13.4066C48.12 15.7228 49.7039 18.1047 49.1219 17.6162C48.9137 17.4511 48.748 17.0033 48.3786 17.075C49.5257 18.4247 49.1514 18.5962 49.4568 19.4022C49.7753 20.2423 50.0319 21.114 50.2231 22.0113C50.0054 21.1426 49.4339 19.5757 48.167 19.4935C49.5023 20.0161 50.5381 24.0321 50.5525 24.1956C50.5745 24.4418 50.9943 25.5232 50.9968 25.5894C50.9993 25.6601 50.9125 25.6365 50.6184 25.3492C50.3499 25.0628 50.0723 24.7854 49.7858 24.5176C49.3146 24.0767 42.3486 14.7443 46.2087 13.7276C41.7111 14.4243 47.5046 22.6979 47.0877 22.4346C46.2381 21.9025 43.9639 17.4572 43.8935 15.0171C43.9315 13.9342 45.0162 13.3058 45.9411 13.1719C46.4099 13.1197 46.9145 13.0911 47.4497 13.1037C48.9557 13.1327 47.9983 12.745 48.2788 11.8678C48.4515 11.3282 49.072 10.6245 48.7425 9.59427C48.9302 10.5242 48.0811 11.269 47.9264 11.8142C47.7277 12.5148 48.139 12.8734 47.6938 12.7415C47.5789 12.7074 47.4636 12.6753 47.3503 12.6462C46.929 12.569 48.437 11.0202 48.7605 8.49235C48.2404 10.0176 47.1541 12.2771 45.0107 12.726C44.6722 12.7957 44.3238 12.9246 43.9305 12.9632C43.5371 13.0018 43.271 12.257 44.48 12.0193C44.7945 11.9661 45.1205 11.914 45.4295 11.8718C46.9689 11.6461 48.4091 9.12732 48.3671 7.54591C48.1001 8.76018 47.5799 9.94185 46.5821 10.4504C43.8131 11.7635 44.3627 9.46637 44.8779 9.24067C45.393 9.01497 46.7972 10.8727 47.4262 8.84996C48.157 6.27046 47.1262 3.23905 48.3631 1.56335C46.4328 3.39002 47.7816 6.06331 46.7508 8.20998C46.1513 9.3776 45.8094 9.14889 44.4316 9.00093C43.0544 8.85247 44.0308 7.34529 45.702 4.51952C42.702 8.2812 42.8767 8.52495 42.7918 8.81736C42.7863 8.83592 42.6186 8.84194 42.3795 8.83491C42.3795 8.79278 42.3406 8.7677 42.5692 8.55956C43.7448 6.12751 45.2443 3.8354 47.0508 1.8703C47.6518 1.21627 48.2843 0.592338 48.9452 0C48.1919 0.606883 47.4716 1.25339 46.7872 1.93601C45.8228 2.89749 44.9293 3.9312 44.1156 5.0276C44.1236 5.01255 44.1321 4.99701 44.1396 4.98246C42.994 6.46506 42.3895 7.18078 42.5068 6.94054C43.3424 5.23173 43.7038 3.60017 45.1959 3.01235C43.6414 3.27065 42.6171 5.75486 41.7296 7.48573C41.7201 7.49024 41.7111 7.49476 41.7016 7.49927C41.5963 7.69688 41.4351 7.74553 41.3742 7.77462C39.7668 8.54201 37.6758 9.62587 36.5935 9.88467C36.1043 9.99602 39.4234 7.64422 41.5034 4.95136C40.5121 6.04275 38.6896 7.58152 36.8741 8.85147C35.674 9.34399 33.554 9.65897 33.9194 9.48142C35.3765 8.77473 36.7193 7.84534 37.3802 6.4766C33.5386 10.3366 29.5681 9.62788 28.0431 10.6942C27.7845 10.9234 27.3148 12.3102 26.7552 13.5435C26.1008 13.9719 25.6046 14.2858 25.668 14.1966C26.4502 13.0941 26.7213 12.0409 26.3988 11.0332C25.8367 14.507 22.9131 16.3006 20.0458 19.3084C18.5662 20.8607 16.8396 23.3665 15.5257 25.5006C11.4584 28.033 13.7077 28.4051 10.6423 29.9233C10.2384 30.1235 10.0128 30.5663 10.0907 31.0122C10.4915 33.3018 10.4456 33.5757 10.5055 34.3049C10.5829 35.1486 10.6248 35.9701 10.6348 36.7706C10.7795 48.7748 3.65628 55.9401 0.354713 58.829C0.0067865 59.0949 -0.0421333 59.0984 0.0267532 59.2789C0.260868 59.8251 2.62647 61.6809 3.20652 62.1253C4.55729 63.0567 5.85016 64.3065 8.8018 63.5868C11.7534 62.8666 35.2253 60.8267 34.1011 71.87C35.4799 65.8232 28.7789 63.6039 22.7074 62.9072C23.9044 62.8114 26.5251 63.0521 28.423 63.3782C30.0902 63.6911 31.2478 64.0467 33.3564 64.7951C33.3564 64.793 33.3564 64.7915 33.3564 64.7895C33.4926 64.8422 33.6329 64.8954 33.7782 64.9505C36.7717 66.08 34.6083 69.14 34.9827 73.0943C35.1279 72.0721 35.3281 70.1055 36.93 66.8228C37.1756 66.4141 37.5275 66.3358 37.6104 66.3594C37.7976 66.4121 37.8285 66.8735 37.7287 67.0741C37.4267 67.6835 37.1466 68.3054 36.8895 68.9394C36.0704 70.9602 35.4844 73.1008 35.1639 75.3282C35.1859 75.3493 35.2083 75.3704 35.2308 75.3909C35.8103 73.1916 36.6544 71.1006 37.7272 69.1546C37.9573 68.7368 38.1545 68.3872 38.3741 68.0271C38.9836 67.0882 39.2317 67.3094 39.2177 68.0792C39.2037 68.8491 37.3997 70.0564 37.2315 73.4454C38.0631 69.9164 39.7209 69.0167 40.2475 68.2021C40.5186 67.8445 40.6938 68.1179 40.2675 68.8135C39.5671 69.9736 39.2132 71.2285 39.5227 72.1037C39.326 70.3668 41.0357 68.0602 42.8537 67.7964C44.6717 67.5326 49.8272 66.4171 50.1402 66.053C50.4402 65.7044 44.5484 65.0408 45.0646 64.4706C47.2909 62.0957 50.1188 59.7564 53.2172 58.0005C55.0726 57.1047 57.7931 57.4493 56.7034 57.8094C53.4448 58.8877 49.1309 61.4487 48.8873 64.4515C50.6299 58.5206 66.381 56.6608 65.1375 57.8831C64.9324 58.0978 62.9177 58.9013 60.581 59.123C59.368 59.2378 53.5631 59.2172 52.3825 62.5501C53.5037 60.5669 56.659 59.938 59.1928 59.7268C62.8812 59.3868 52.4809 60.3518 54.9777 63.3029C53.5107 60.8408 61.818 59.6501 62.9077 59.4399C63.9515 59.2378 64.1486 59.0522 63.0055 59.8883C61.9702 60.7635 60.8695 61.5625 59.7115 62.2772C59.7115 62.2772 63.5791 60.3783 66.5207 58.3997C67.244 57.9924 67.2001 58.7884 67.0803 58.8812C66.7239 59.1576 66.0306 59.7293 65.0147 60.435C64.6109 60.7159 63.7932 60.7395 63.2886 61.0524C62.5687 61.4988 62.1105 62.2456 61.1895 62.7081C59.6236 63.494 57.7707 64.2614 55.6432 64.8653C57.7048 64.6305 59.5727 64.0598 61.2494 63.3591C62.11 62.9995 62.5568 62.3279 63.317 61.9277C63.8247 61.6608 64.6728 61.6689 65.136 61.4045C67.3449 60.1436 69.0486 59.0081 70.2596 58.8993C71.2709 58.7593 72.2882 58.7072 73.2696 58.7724C75.4386 58.9805 70.4932 59.3135 66.7349 61.4351C66.5053 61.5645 65.9866 61.6573 65.768 61.8003C65.4625 62.0004 65.463 62.2577 65.1869 62.4864C64.9279 62.7011 64.6848 62.9288 64.4606 63.17C64.7182 63.005 64.9853 62.8445 65.2608 62.6895C65.5279 62.5391 65.5094 62.35 65.7909 62.2095C66.0495 62.0806 66.6071 61.9994 66.8752 61.879C68.9752 60.9366 71.3223 60.27 73.323 59.9661C74.53 59.9575 75.1994 60.2891 74.9544 60.3157C71.5624 60.6086 68.2748 63.314 66.9146 62.4914C68.3203 63.9886 72.0491 60.3447 76.0411 61.079C76.715 61.222 77.284 61.1954 77.8386 61.3308C78.0682 61.387 77.5126 61.6538 75.5878 61.6984C73.9545 61.6774 72.3002 61.9262 71.2764 62.844C75.1979 60.5985 82.3202 64.3116 82.8538 63.8466C82.9033 63.7874 82.8424 63.6304 82.7845 63.5507L82.7865 63.5537ZM69.2787 50.5749C71.7521 47.4683 69.3536 43.3069 70.5571 45.3261C70.7613 45.6471 70.9619 45.9706 71.1586 46.2967C71.1826 46.3368 71.2065 46.3764 71.2305 46.416C71.4372 46.7611 71.4861 47.1799 71.3593 47.5621C71.3588 47.5641 71.3578 47.5661 71.3573 47.5681C71.2829 47.7918 71.206 48.014 71.1262 48.2347C70.7068 49.3948 70.2117 50.5188 69.6471 51.5996C70.1038 51.8554 70.1508 52.8756 70.0944 52.9759C69.701 52.844 69.71 52.8535 69.0471 52.688C69.0376 52.6855 69.0281 52.683 69.0186 52.6805C67.5146 52.2938 65.9607 52.0325 64.3683 51.9081C64.0283 51.8815 63.4493 51.5033 62.3311 51.259C63.1363 51.2881 64.1576 51.3187 65.1755 51.1678C66.9555 50.904 67.0868 50.8949 68.4735 52.1187C68.3732 51.7731 67.8505 47.7883 67.8026 47.5255C67.7163 46.9768 69.1814 49.6852 68.7735 51.8178C70.0949 48.2873 67.0868 43.825 65.6741 41.0042C64.9962 39.6866 64.1926 38.4613 63.2831 37.3394C62.7155 36.5945 61.809 35.1395 63.2856 36.4667C68.7456 41.4381 70.6839 47.4964 69.2787 50.5749ZM58.7236 39.2352C57.0773 42.1493 56.5866 44.6204 56.5167 44.4374C56.4458 44.2523 56.3774 44.0637 56.3111 43.8716C57.0803 41.0704 58.3083 38.6344 60.1033 36.3774C60.1278 36.3468 60.0204 36.0333 60.0449 36.0027C60.1018 36.0413 60.2151 36.1261 60.27 36.1702C60.272 36.1732 60.4842 36.3362 60.7987 36.6693C62.0217 37.9959 62.6551 39.6741 63.5242 41.3152C65.8493 46.0504 58.9537 51.6287 58.6168 43.1745C57.3049 52.7773 65.8878 47.712 65.1106 45.1817C65.3482 45.9696 65.5374 46.7611 65.6816 47.5521C65.8683 48.4278 61.8494 49.9906 60.2281 49.3692C59.1414 48.9524 58.6472 48.4995 58.2269 47.86C56.63 45.434 59.3286 34.0236 62.3641 41.8188C60.7338 35.3978 59.0266 38.6991 58.7241 39.2342L58.7236 39.2352ZM58.788 33.0576C55.9232 30.9225 56.658 32.538 55.8074 34.2287C55.5169 34.7513 56.0101 33.0847 56.0769 32.6022C56.2227 31.5715 56.9146 31.4676 55.8004 30.8357C56.4154 31.2981 55.8828 31.9486 55.753 32.4743C55.5244 33.3991 55.1375 34.1154 55.0501 33.7131C55.2723 33.0781 55.46 32.4271 55.6107 31.7626C55.6247 31.7014 55.6382 31.6397 55.6516 31.578C55.6711 31.4867 55.6896 31.3954 55.708 31.3036C55.6387 31.2369 55.5877 30.6732 55.5224 30.4435C56.8911 31.2941 58.2134 32.2125 59.4843 33.195C60.8885 34.2428 60.9968 34.6234 60.8451 34.7814C60.5037 35.132 60.1752 35.4941 59.8597 35.8663C58.1775 37.8504 56.8681 40.1285 55.9976 42.5776C55.9801 42.6268 55.9636 42.6764 55.9462 42.7261C55.6866 41.885 55.735 39.5322 55.7824 37.8449C55.8029 37.1117 56.1034 32.4778 58.6397 33.3811C59.4689 33.6915 60.1298 34.6169 59.7639 35.45C60.7617 34.4614 59.0935 33.2853 58.788 33.0576ZM54.821 31.8117C54.9149 32.0379 54.6757 32.3509 54.522 31.8388C54.4506 31.6286 54.3752 31.4205 54.2964 31.2144C54.2884 31.1933 54.2804 31.1717 54.2719 31.1507C53.7029 29.6956 54.2534 29.6756 55.1155 30.1937C55.0002 30.3196 54.8759 30.616 54.7646 30.5393C54.7277 30.7865 54.6862 31.0328 54.6393 31.277C54.6338 31.3056 54.827 31.7836 54.821 31.8117ZM56.054 27.4582C56.1947 27.4201 56.2806 27.5605 56.2871 27.5731C56.3974 27.7932 56.6789 27.9357 56.1029 27.879C56.0066 27.871 55.9102 27.8645 55.8139 27.8574C55.8947 27.7396 55.9661 27.4592 56.0545 27.4632C56.0545 27.4612 56.054 27.4602 56.054 27.4582ZM64.0413 26.9386C65.7485 28.9418 67.1742 30.3823 67.0733 30.4289C66.7848 30.5618 66.3475 30.458 65.7266 30.0257C64.4546 29.015 63.942 26.8217 64.0413 26.9386ZM51.5614 15.3491C51.2579 14.4699 51.2264 13.867 51.2189 13.387C52.5897 16.1707 54.1227 18.2857 54.2824 18.6885C55.0317 20.1039 55.6042 20.9691 53.4862 18.6413C52.9022 17.9999 52.0735 16.7505 51.5614 15.3491ZM55.2104 22.2736C55.0831 21.8729 54.0812 20.5618 52.9042 19.4809C53.7523 20.64 53.8531 21.0809 53.929 21.5529C53.9365 21.601 53.6544 21.1431 53.1508 20.5558C52.4339 19.8752 52.3531 19.3841 51.9747 17.4376C52.6131 18.3193 53.2067 19.0361 53.5506 19.344C54.9787 20.625 56.0615 22.4502 56.6874 23.1734C57.3888 23.9839 57.9029 25.0788 58.5129 25.7489C59.2677 26.5785 59.0191 26.1441 60.3684 27.4437C61.0363 28.19 61.6493 28.7417 62.109 29.1083C61.794 28.9232 61.3807 28.6935 60.8531 28.4197C58.2763 26.9887 56.8022 24.9665 55.9551 23.0184C55.9551 23.8661 56.974 25.4765 57.3329 26.6216C57.4527 27.0033 57.4991 27.3328 57.4102 27.5655C57.258 27.8584 56.7958 26.7289 56.6765 26.2118C56.4948 25.4249 56.1408 24.2282 55.8333 23.8189C55.9846 24.4845 56.2846 25.5558 56.374 26.2093C56.4019 26.4135 56.4034 26.5845 56.3904 26.7365C56.3705 26.9622 56.048 26.1943 55.8723 25.1706C55.7295 24.175 55.5069 23.207 55.2104 22.2736ZM44.7072 20.1355C45.2543 21.5318 43.8256 18.7592 43.5446 17.9587C43.4587 17.6397 43.3824 17.3182 43.3229 16.9942C43.2251 16.2895 43.3963 15.5252 43.5795 14.9424C43.4358 16.3758 44.1601 18.6509 44.7072 20.1355ZM42.9326 24.4659C43.0993 24.8932 43.3684 25.6506 43.8436 26.1943C43.3469 25.792 43.0015 25.3742 42.7739 25.0457C42.6026 24.7984 42.6935 24.0978 42.9326 24.4659ZM43.9829 13.53C44.2968 13.4537 44.6533 13.373 45.0466 13.3023C44.4636 13.4728 44.1206 13.7216 43.915 13.9864C43.9125 13.9899 43.9095 13.9934 43.907 13.9964C43.906 13.9974 43.905 13.9989 43.9045 13.9999C43.4442 14.5863 43.1487 15.0372 43.1373 14.7728C43.1183 14.0757 43.2311 13.7271 43.9829 13.53ZM43.2581 9.38211C43.6354 9.30788 43.8685 9.3134 44.2514 9.25522C43.8755 9.36907 43.4947 11.1521 43.2301 11.2043C42.678 11.3216 42.9051 9.46437 43.2581 9.38211ZM41.444 13.7271C41.469 13.6142 41.7416 12.4782 41.8269 12.3478C42.1504 11.9029 42.4454 12.4326 42.3476 13.4969C42.3291 13.9884 42.3306 14.4844 42.3526 14.984C42.3535 15.0076 42.3545 15.0311 42.3555 15.0547C42.3715 15.3837 42.396 15.7102 42.4289 16.0338C42.4659 16.3954 42.5128 16.753 42.5707 17.1076C43.9804 22.2756 39.8372 20.954 41.444 13.7271ZM42.5298 9.4739C42.9231 9.41973 41.8793 11.3091 41.6562 11.3542C41.5983 11.3673 41.5414 11.3803 41.484 11.3934C41.765 11.8663 41.2229 12.8629 41.0013 13.9899C39.2586 22.2937 41.9857 20.3256 43.5875 21.7665C43.7298 22.8494 43.4113 23.4763 43.0384 23.7607C42.8447 23.8851 42.7339 23.8956 42.3615 24.019C41.5514 24.2392 41.2424 23.4302 40.4082 20.0783C40.1272 22.8248 40.7926 24.5878 41.2299 24.972C41.8389 25.4114 42.2911 25.5673 42.8607 26.0538C44.224 27.2832 47.5645 35.7329 41.3382 27.9377C45.709 35.8603 47.0538 31.3503 45.1255 28.2231C45.5628 28.6925 45.9841 29.1775 46.3879 29.6766C48.0562 31.6658 47.1382 33.1012 45.5638 33.4874C43.896 33.8555 41.9248 31.2324 40.7437 27.6874C40.4971 26.7706 40.2964 25.8347 40.1447 24.8822C40.0938 24.5637 40.0483 24.2437 40.0089 23.9217C39.9425 23.3836 39.8916 22.8409 39.8562 22.2932C39.8182 21.7023 39.7993 21.1065 39.7993 20.5056C39.7993 18.0365 40.1237 15.6435 40.7317 13.3675C40.6673 13.388 41.3093 11.1165 41.6861 10.0597C41.7715 9.81997 42.1079 9.60079 42.1194 9.53258C42.1384 9.53007 42.3356 9.49747 42.5298 9.4739ZM48.0706 31.9938C48.4954 32.6227 47.9548 32.8168 47.6893 32.9001C47.4427 32.9768 47.1981 33.0581 46.955 33.1418C47.8101 32.6277 47.9963 31.8799 48.0706 31.9938ZM44.8519 33.9639C44.6063 34.0717 44.3627 34.1826 44.1211 34.2974C43.8411 34.4308 43.5052 34.327 43.3524 34.0567C43.2431 33.8631 43.1363 33.668 43.0309 33.4719C43.6314 34.1906 44.0522 34.2262 44.8519 33.9639ZM42.1015 31.5539C42.0545 31.4471 42.0086 31.3402 41.9632 31.2324C41.9292 31.1446 41.8998 31.0709 41.8738 31.0087C42.3391 31.7796 42.7818 32.3434 43.6289 33.1564C42.9546 32.8048 42.3875 32.1222 42.1015 31.5539ZM36.7323 38.8691C36.029 38.7738 35.387 38.4368 35.3416 37.376C35.3251 36.4907 36.0724 35.5874 35.4774 33.8972C35.5053 35.5423 34.4046 36.0579 34.2359 37.3193C33.8236 41.8759 40.4437 39.4655 41.5738 41.0268C41.9652 41.5885 42.3361 42.1648 42.685 42.7547C42.6605 42.7602 42.6356 42.7657 42.6106 42.7717C42.5612 42.7828 42.5113 42.7938 42.4614 42.8048C42.4249 42.8128 42.3885 42.8209 42.3516 42.8289C42.2437 42.852 42.1359 42.875 42.0276 42.8971C41.9103 42.9212 41.7925 42.9443 41.6747 42.9663C41.6707 42.9668 41.6672 42.9678 41.6632 42.9683C41.6522 42.9703 41.6412 42.9728 41.6302 42.9743C41.6153 42.9774 41.6008 42.9799 41.5858 42.9829C41.5703 42.9859 41.5549 42.9889 41.5394 42.9914C41.5119 42.9964 41.4845 43.0014 41.4565 43.0064C41.4495 43.008 41.442 43.009 41.4351 43.0105C41.4286 43.0115 41.4221 43.013 41.4156 43.014C41.3901 43.0185 41.3647 43.023 41.3397 43.0275C41.3078 43.033 41.2763 43.0385 41.2449 43.0441C41.2269 43.0471 41.2089 43.0501 41.1905 43.0536C41.189 43.0536 41.187 43.0536 41.1855 43.0541C41.1395 43.0621 41.0936 43.0696 41.0477 43.0772C40.9848 43.0877 40.9214 43.0977 40.858 43.1078C40.855 43.1078 40.8515 43.1088 40.848 43.1093C40.7846 43.1193 40.7212 43.1288 40.6578 43.1384C40.6543 43.1384 40.6513 43.1394 40.6479 43.1399C40.589 43.1489 40.53 43.1574 40.4706 43.1654C40.4647 43.1664 40.4592 43.1674 40.4532 43.1679C40.4222 43.1725 40.3913 43.177 40.3598 43.181C40.3289 43.1855 40.2979 43.1895 40.2665 43.194C40.255 43.1955 40.2425 43.197 40.232 43.199C40.1971 43.2036 40.1617 43.2081 40.1267 43.2131C40.1077 43.2151 40.0893 43.2176 40.0703 43.2201C40.0104 43.2276 39.9505 43.2352 39.8911 43.2427C39.8162 43.2517 39.7413 43.2602 39.666 43.2688C39.6101 43.2753 39.5542 43.2813 39.4977 43.2873C39.4918 43.2883 39.4858 43.2888 39.4798 43.2893C39.4668 43.2908 39.4538 43.2923 39.4403 43.2933C39.3969 43.2978 39.3535 43.3024 39.3096 43.3064C39.2951 43.3079 39.2806 43.3094 39.2661 43.3104C39.2596 43.3109 39.2532 43.3119 39.2467 43.3124C39.1773 43.3194 39.1074 43.3254 39.038 43.3315C39.0011 43.335 38.9641 43.338 38.9277 43.341C38.9092 43.3425 38.8908 43.344 38.8723 43.3455C38.8538 43.347 38.8353 43.3485 38.8169 43.35C38.7799 43.353 38.743 43.356 38.7061 43.359C38.6691 43.362 38.6322 43.3651 38.5952 43.3676C38.5907 43.3676 38.5867 43.3681 38.5823 43.3686C38.5648 43.3701 38.5468 43.3711 38.5288 43.3721C38.5259 43.3721 38.5224 43.3726 38.5194 43.3726C38.5174 43.3726 38.5149 43.3731 38.5129 43.3726C38.5099 43.3726 38.5069 43.3726 38.5039 43.3731C38.4999 43.3731 38.4964 43.3731 38.4929 43.3741C38.4914 43.3741 38.3192 43.3871 38.0991 43.4042C37.4861 43.4508 36.8806 43.2542 36.4063 42.8615C36.1048 42.6117 42.8912 43.5231 41.2893 41.3197C41.9637 42.9673 35.8827 42.4402 34.8988 41.2435C34.3412 40.5102 33.8411 39.7328 33.2126 38.9664C32.1538 37.865 35.3396 36.566 35.077 31.2369C34.8145 34.5131 33.1507 36.5213 32.0895 37.8339C32.9815 36.0163 33.6793 34.0853 34.1555 32.068C34.2963 31.4722 34.4176 30.8688 34.5189 30.2584C35.1619 26.1702 35.3631 26.1622 36.0799 24.2603C36.0599 24.3706 36.0394 24.481 36.0205 24.5923C35.5802 27.1753 35.5143 29.7353 35.7834 32.217C35.7834 32.2185 35.7834 32.22 35.7839 32.2215C35.8278 32.6232 35.8797 33.023 35.9411 33.4207C36.0394 34.0627 36.1607 34.6977 36.303 35.3266C36.316 35.3497 36.3295 35.3728 36.3429 35.3958C36.8965 35.8457 37.4317 36.3157 37.9473 36.8057C38.2892 37.1307 38.6222 37.4637 38.9462 37.8053C39.4883 38.364 39.3265 38.6374 38.8952 38.7693C38.6556 38.8425 35.9296 38.4157 35.8592 36.8057C35.2832 38.1474 37.1741 38.9283 36.7303 38.8681L36.7323 38.8691ZM44.0957 45.4726C44.5974 46.5886 45.126 47.9809 45.6237 49.8567C46.5671 53.6068 39.9839 54.4449 39.1224 56.7606C41.0058 54.7459 43.7188 54.5668 44.8155 53.8987C46.2212 52.9669 46.0385 51.6769 46.029 52.6559C46.0195 53.6349 45.9766 54.1119 44.2344 54.6426C41.3772 55.58 39.7174 56.546 39.0155 57.2737C37.5814 58.5998 39.1713 55.5128 39.371 55.0945C40.7013 52.3078 41.3013 46.7671 43.8311 50.2554C41.7086 45.2138 38.5748 52.4818 37.7451 53.9083C37.6318 53.7132 37.8714 52.863 38.1245 52.0585C39.2487 48.6128 43.4897 45.4214 44.7546 49.7002C44.2344 43.8681 39.2217 48.3917 39.02 48.0692C38.8338 47.7928 39.0165 47.4638 39.4114 47.1267C39.9575 46.6603 40.9529 46.4602 41.8928 46.077C42.5113 45.8247 43.3754 45.1496 43.8646 45.0167C43.2011 45.1115 42.3595 45.6863 41.8359 45.8026C40.6803 46.0604 39.8077 46.078 39.2472 46.3764C38.4255 46.8138 38.1779 47.2461 38.3157 47.5345C38.1215 47.382 37.9293 47.227 37.7396 47.0696C36.2711 45.8518 34.9308 44.483 33.7432 42.9864C32.996 42.045 32.8153 41.7455 32.1943 40.7093C32.9645 41.6949 33.295 41.9336 34.1905 42.8038C35.1669 43.7528 36.2137 44.629 37.3218 45.4244C37.6628 45.6692 38.0811 45.7796 38.4974 45.7329C38.6826 45.7123 43.2471 44.8707 43.7453 44.7223C44.4132 44.5412 44.8375 44.5999 44.9942 44.5878C44.5 44.7689 44.0383 45.3417 44.0972 45.4726H44.0957ZM41.3737 58.0913C41.6797 58.0561 41.6667 58.2257 41.447 58.5161C40.6583 59.3687 39.7728 59.8979 39.0235 60.2419C38.3436 60.5544 37.9708 60.598 37.6079 60.6161C33.6728 60.8107 32.8836 56.3524 33.0923 55.6592C33.245 55.1521 33.1767 56.5911 34.6852 59.1801C35.7534 60.7239 38.7051 61.0068 41.3282 58.3139C39.9041 59.0482 37.4302 59.6225 36.1468 58.7092C34.8634 57.7958 34.3048 56.5485 33.0499 52.9899C34.8484 56.0404 35.3316 56.384 35.8373 56.9206C36.3285 57.4412 36.6165 57.8314 37.6867 58.183C38.0416 58.319 38.5693 58.4248 39.3959 58.4764C39.4009 58.4754 39.4054 58.4739 39.4099 58.4719C39.8791 58.489 40.5445 58.3746 41.3737 58.0913ZM39.1423 61.7616C38.0611 62.7266 36.9345 63.0496 37.4846 62.5842C37.7357 62.3715 38.0062 62.1293 38.2972 61.8625C39.052 61.1718 39.98 60.6367 40.85 60.1466C40.2415 60.7049 39.6745 61.2541 39.1423 61.7616ZM27.7391 58.9394C27.1206 58.5823 26.5071 58.182 25.7214 57.3374C24.8015 56.1432 25.6555 55.5649 26.1028 56.3744C26.1802 56.5144 26.4088 56.8243 26.7537 57.2406C26.7672 57.2572 26.7822 57.2752 26.8007 57.2968C26.8007 57.2968 26.8007 57.2973 26.8012 57.2978C26.9849 57.518 27.1995 57.7662 27.4401 58.0331C28.1045 58.8055 28.5977 59.4414 27.7391 58.9394ZM22.1947 50.4485C21.9876 50.0353 21.422 50.5413 21.3052 49.7283C21.2857 49.5322 24.5658 47.544 26.309 48.8436C25.7469 47.7141 23.3983 48.1178 23.9249 47.9453C25.2372 47.5149 26.7457 47.709 27.5934 49.8417C28.1454 51.1753 27.6033 51.9683 27.2574 52.851C27.0308 53.3766 24.3996 55.7505 22.8896 53.345C22.8207 53.2267 22.7523 53.1078 22.6849 52.9884C22.0255 51.6914 22.3914 50.8403 22.1947 50.4485ZM22.664 39.49C21.3711 39.961 18.7968 42.9663 19.1932 42.39C19.5002 41.9436 19.8511 41.4882 20.1905 41.1C20.9683 40.2103 22.2092 38.7538 23.3458 38.3605C23.7287 38.2136 24.18 38.2893 24.5229 39.8256C24.6622 40.7123 24.6407 42.0259 23.7662 43.0315C23.5226 43.334 21.7784 44.5462 20.4721 45.3557C18.2507 46.7726 19.8251 43.5717 20.4152 42.6965C21.0057 41.8208 22.1723 40.2394 23.1417 40.0698C24.1111 39.9003 23.1696 42.7386 20.9069 43.4734C25.1793 42.9508 24.3786 38.8415 22.6635 39.491L22.664 39.49ZM15.1399 29.7694C15.05 29.8546 13.5645 30.9184 13.4721 31.0027C13.4706 31.0042 14.736 29.657 14.9152 29.2422C15.341 28.2261 16.0144 28.4969 16.6843 27.8735C16.595 28.1132 16.5076 28.3545 16.4242 28.5987C16.3364 28.856 15.7294 29.2111 15.1399 29.7694ZM12.1413 48.8621C15.3271 45.9812 15.2941 44.6867 15.4768 43.6655C15.7394 44.8707 15.8517 45.3648 15.9076 45.5483C16.2665 46.7486 13.0084 48.8185 12.1413 48.8621ZM18.8063 23.3831C18.5807 23.7713 18.3621 24.168 18.1509 24.5738C17.2239 25.9741 16.0379 27.063 16.1891 26.7375C16.3708 26.3457 16.563 25.948 16.7617 25.5493C17.4211 24.8596 18.121 24.1284 18.8063 23.3831ZM33.1532 12.6016C34.512 11.8392 31.5678 14.2532 31.2773 14.4463C30.8779 14.7117 30.4821 14.988 30.0932 15.2729C29.7044 15.5628 30.5106 14.7718 30.7447 14.4518C30.9623 14.1549 31.5189 13.5902 32.3655 13.0515C32.6286 12.8955 32.8901 12.7455 33.1497 12.6016C33.1507 12.6016 33.1522 12.6016 33.1532 12.6016ZM35.9965 14.8656C35.5862 15.313 34.9852 15.2067 34.6722 15.4605C34.21 15.6611 33.8151 15.8407 33.4787 16.0042C33.3624 16.0608 33.6958 15.4986 34.6008 14.6821C34.9832 14.337 36.6574 13.8184 37.6084 12.6498C36.9944 13.6463 36.1762 14.6695 35.9965 14.8656ZM36.7353 14.6625C36.594 15.0256 36.4553 15.4093 36.2805 15.8096C35.5508 17.4812 35.2363 18.8249 35.071 17.9758C34.9467 17.1743 35.101 16.0423 36.2756 15.0126C36.3959 14.9073 36.5811 14.8014 36.7353 14.6625ZM34.779 15.9485C32.8467 17.5299 32.9141 16.8488 33.4088 16.3156C33.7093 16.0137 33.4931 16.591 34.779 15.9485ZM34.6782 16.4119C34.8873 16.1616 35.0061 16.0403 34.9368 16.1887C34.9148 16.2279 34.8943 16.267 34.8744 16.3061C34.8689 16.3161 34.8634 16.3257 34.8569 16.3367C34.8584 16.3352 34.8604 16.3332 34.8619 16.3317C34.0822 17.9231 35.1259 19.5757 34.6702 21.0398C34.2135 22.6994 34.2998 23.9162 34.2544 24.4403C34.2409 24.5983 34.468 25.1134 34.4341 25.1345C34.3532 25.0111 34.3183 25.1696 34.1001 24.5271C33.882 23.8846 34.0123 23.0927 33.88 21.6722C33.8241 21.0694 34.195 21.0077 34.1985 20.3918C34.2005 20.0236 33.3559 18.8706 33.3918 18.537C33.4512 17.9863 34.1835 17.4968 34.3477 17.1437C34.0432 17.4687 32.9425 17.9597 32.8392 18.377C32.7573 18.7075 33.7372 19.7598 33.7013 20.1094C33.6559 20.5453 33.2905 20.6927 33.2925 21.101C33.2975 22.3263 33.4542 23.2837 33.4033 23.1127C33.1532 22.2731 32.0715 18.8946 31.9856 17.8313C31.9442 16.7971 33.6134 17.6839 34.6782 16.4119ZM32.8816 22.9106C33.2645 24.5065 33.2995 24.2663 33.3614 26.9516C33.3614 28.859 33.1677 30.7208 32.7993 32.5189C32.4598 34.1775 31.6432 35.7911 31.0202 37.3258C30.8635 37.7125 30.55 38.2873 30.3758 38.6655C30.3398 38.7437 30.3034 38.822 30.267 38.8997C30.0393 39.3832 30.9598 39.5833 29.1109 40.4636C29.0939 40.4947 29.7174 40.8919 29.8861 41.0544C30.0323 41.1943 30.1766 41.3363 30.3194 41.4802C32.7144 43.8887 34.5933 46.3373 35.9696 49.5016C36.615 50.9671 35.4589 53.1269 34.1496 51.4506C34.3298 51.6598 35.411 52.7296 35.6037 49.4168C35.1913 52.0154 33.5141 50.5463 32.5796 47.9478C32.354 47.37 32.1089 46.8012 31.8463 46.2435C30.9269 44.2919 30.1322 42.9774 28.8014 41.3112C28.5912 41.0479 28.3761 40.7886 28.1564 40.5338C28.6202 39.6751 29.3565 38.6073 29.7288 37.6965C29.8511 37.3975 31.8284 33.6725 32.36 29.7182C32.7014 27.0469 32.4973 25.0954 32.333 24.5256C32.1693 23.9558 31.6676 21.8874 31.4056 21.3151C31.143 20.7434 30.3653 19.4699 30.5155 18.1709C30.1222 19.5833 30.816 20.3913 31.0307 21.1366C31.4026 22.4246 31.5453 22.7315 31.6966 23.6173C31.9357 25.0151 32.343 26.9075 31.6018 24.6695C31.2034 23.5947 30.2565 21.0127 30.0094 19.1268C29.9615 18.0465 30.4022 17.2731 30.9843 16.5799C29.934 18.9297 32.4439 21.0689 32.8806 22.9111L32.8816 22.9106ZM37.2764 56.4421C36.7158 56.7616 35.726 56.1653 34.9338 54.4866C34.8664 54.307 36.5596 55.9978 36.8591 55.8378C37.1591 55.6778 37.9553 54.934 38.5174 54.3316C40.1057 52.6935 39.1918 54.5387 38.0302 55.6778C37.7212 56.0048 37.4726 56.251 37.2764 56.4421ZM31.462 54.2092C31.16 53.7056 30.8625 53.0702 30.5675 51.7867C30.1981 49.8597 29.6285 48.0045 28.8807 46.244C28.7504 45.9365 28.6147 45.6326 28.4734 45.3312C28.086 44.5031 28.5358 43.8145 28.0711 43.0345C27.9373 42.8098 28.7315 43.8571 29.1059 44.6019C29.3764 45.1396 29.6295 45.6873 29.8646 46.244C30.1447 46.9065 30.3997 47.5826 30.6279 48.2708C30.9618 49.2764 31.2389 50.3076 31.4565 51.3614C31.4565 51.3609 31.4555 51.3599 31.455 51.3594C32.1578 55.2218 31.6936 54.6737 31.462 54.2092ZM23.3369 37.5977C22.4309 37.9402 21.6372 38.5627 21.7195 38.4237C22.1728 37.6578 22.7698 37.1493 23.1756 36.4115C23.1936 36.4586 23.2111 36.5053 23.2295 36.5524C23.254 36.6146 23.3029 36.734 23.3643 36.8804C23.5485 37.382 23.4207 37.5661 23.3369 37.5977ZM29.4099 16.5223C29.7927 16.5278 29.2421 16.9877 29.022 17.5189C28.8024 18.05 28.722 18.9904 28.6067 19.4945C28.4285 20.0808 28.2343 19.8285 28.2717 19.4363C28.3182 18.9483 28.7415 16.8714 29.2362 16.5368C29.2366 16.5348 29.2371 16.5328 29.2376 16.5308C29.2641 16.5178 29.2916 16.5062 29.32 16.4962C29.3175 16.5117 29.3435 16.5213 29.4099 16.5223ZM25.4883 38.0887C25.4349 37.9778 25.373 37.871 25.3041 37.7682C25.1484 37.4668 24.9971 37.0936 24.8638 36.6382C24.76 36.2836 24.6717 35.933 24.5973 35.5849C24.3846 34.4258 24.9267 31.5534 25.1659 28.8846C25.2602 27.8309 25.4768 27.061 25.6436 26.2861C25.7559 25.9611 25.7843 25.4319 26.2056 24.7608C26.2171 24.7292 26.3564 24.499 26.7677 25.0412C26.9549 25.3145 27.1391 25.5518 27.3168 25.7584C27.3113 27.3348 27.8614 28.199 28.0611 30.3251C28.3616 33.5195 26.7777 38.4172 26.6329 38.689C26.6274 38.7001 26.6215 38.7111 26.6155 38.7221C26.4827 38.9709 25.9835 38.8626 25.4883 38.0887ZM25.7 25.3537C25.706 25.3005 25.7125 25.2398 25.7194 25.1736C25.7244 25.154 25.7294 25.1345 25.7344 25.1154C25.7304 25.1235 25.7269 25.131 25.7229 25.1395C25.7689 24.6811 25.8203 23.9784 25.7923 23.5711C25.7763 23.2486 25.8887 23.4457 25.9965 23.7602C26.0379 23.9077 26.0304 23.9919 25.9935 24.1038C25.8627 24.5848 25.6895 25.4414 25.7 25.3537ZM24.791 26.4907C24.9866 25.6661 25.1679 24.8511 25.352 24.1123C25.7169 22.9477 25.5198 24.982 25.3505 26.0077C25.1758 26.6823 24.755 26.6592 24.791 26.4907ZM25.1259 26.9897C24.6397 29.0847 24.2733 32.5314 24.2663 32.0896C24.2613 31.7691 24.194 30.8954 24.194 30.5678C24.194 29.964 24.2798 29.2372 24.4061 28.4744C24.4995 27.6924 24.8109 27.5781 25.1259 26.9897ZM28.5138 30.1079C28.1225 28.2236 27.814 27.2395 27.6298 26.099C27.8619 26.3367 28.0746 26.5208 28.2553 26.6652C28.6182 28.2226 29.4198 30.4841 29.2227 31.6171C28.9287 32.9783 28.5338 34.3014 28.0471 35.5789C27.9513 35.8307 29.024 32.563 28.5138 30.1079ZM28.6047 26.9311C28.6895 26.9938 28.7544 27.0429 28.7954 27.0825C29.2287 27.5028 29.5047 28.0495 29.5951 28.6333C29.7099 29.4163 29.1034 28.2451 28.6047 26.9311ZM29.3275 24.2523C28.8163 23.375 28.2867 22.0068 28.6661 20.312C28.6686 20.3712 28.8727 21.5333 28.994 22.243C29.1158 22.9527 29.3575 23.531 29.66 24.3225C29.941 25.1691 29.9315 25.1761 29.3275 24.2523ZM28.4909 17.2024C28.5203 17.2049 28.3636 17.4371 28.3356 17.4888C26.922 20.0888 28.411 23.7392 28.6286 24.0065C28.388 23.7527 28.1864 23.542 27.9907 23.3454C27.7626 23.1413 26.8905 20.7409 27.7386 18.7166C26.6284 20.3266 27.2564 22.6102 27.2924 22.6849C27.2889 22.6809 27.2839 22.6759 27.2774 22.6703C27.1905 22.5926 26.5925 21.9862 26.9689 19.665C27.1386 18.7988 27.7281 17.9728 28.4909 17.2024ZM23.5091 22.8619C23.5685 22.8233 23.6603 22.7676 23.4597 23.0636C21.9981 25.144 20.0313 27.9773 19.9569 27.8956C20.0613 27.6132 20.4177 26.7365 20.538 26.4456C20.9648 25.4299 22.7528 23.4056 23.5091 22.8619ZM23.6044 23.2296C23.8006 22.9246 23.7357 23.1057 23.6903 23.2436C23.4487 23.7652 23.225 24.2076 23.0678 24.478C22.8037 24.9309 22.4119 25.5056 21.9941 26.0508C20.3408 27.867 22.4608 25.0071 23.6044 23.2296ZM25.5422 45.435C25.7519 45.1782 26.5261 43.5852 27.4396 46.5083C27.1586 42.7095 26.0394 43.8681 26.2056 43.685C26.5381 43.3184 26.907 43.5792 26.9479 43.656C27.4037 44.5151 27.2664 44.795 27.791 46.0945C28.0586 46.7455 28.2922 47.4151 28.4959 48.1003C28.4849 48.0817 28.4744 48.0656 28.4654 48.0526C27.5424 47.036 26.91 45.2093 23.5181 46.904C23.7507 46.6623 24.8948 46.2274 25.5422 45.435ZM29.4283 52.5526C29.4283 52.5526 29.4293 52.5506 29.4293 52.5496C29.5192 53.5436 29.4578 54.4851 29.1907 55.0729C28.8972 54.0442 28.7629 53.0351 28.8308 52.1428C28.8208 51.8208 28.9222 49.3893 29.4283 52.5526ZM29.7024 55.7344C30.0783 54.9079 29.8901 53.1549 29.9415 53.343C30.0952 53.9068 30.2405 53.7418 30.3957 54.3973C30.5605 55.093 30.564 56.2801 30.4147 57.3725C30.3987 57.5471 30.4042 57.7542 30.4277 57.9829C30.1721 57.5365 29.942 57.0746 29.7403 56.6066C29.6664 56.2174 29.631 55.8909 29.7024 55.7344ZM33.3449 61.3383C31.4265 59.7945 31.0626 57.8014 31.0626 57.0119C31.0626 56.8915 31.5593 58.2708 32.2222 59.4159C32.7968 60.4079 33.4118 61.2907 33.3449 61.3383ZM32.08 15.153C30.6418 16.3337 29.6445 17.1908 29.5107 19.182C29.4842 21.5318 31.2818 24.8341 31.5389 26.573C32.1319 30.9455 29.9595 34.8491 30.0897 34.3822C30.5315 32.8003 30.836 31.1607 30.9898 29.477C31.0641 28.7412 31.0731 28.1493 31.0117 27.6443C30.9933 27.4943 31.0532 26.8528 30.8964 25.9104C30.8235 25.4725 30.7042 24.97 30.5081 24.4218C30.0393 23.0661 29.7069 22.9863 29.5521 22.068C29.3994 21.1612 28.5792 17.561 30.1077 16.2028C30.5495 15.8652 31.5139 15.3391 32.4788 14.818C32.3355 14.9298 32.2033 15.0422 32.08 15.153ZM29.3974 15.0607C30.3234 14.4448 30.2026 14.7984 29.7298 15.309C29.2237 15.8552 28.8648 16.2274 28.8074 16.275C27.9593 16.9767 26.572 18.3409 26.0474 19.1128C25.5313 19.8722 26.2935 17.8539 26.9874 17.1241C27.0243 17.0885 27.0612 17.0529 27.0987 17.0178C27.8509 16.3071 28.6212 15.6556 29.3974 15.0607ZM25.06 19.1499C25.0615 19.1529 25.0625 19.1559 25.0635 19.1595C25.0645 19.2708 25.051 19.4027 25.0261 19.5507C24.6986 21.4019 21.4105 24.3676 21.5688 24.0832C22.4808 22.4401 23.6908 20.7283 25.06 19.1499ZM20.6413 30.791C20.9912 32.4682 18.4988 37.6463 18.1958 37.2305C17.9477 36.89 18.4854 33.4829 20.6413 30.791ZM18.3456 40.4455C18.3735 40.0347 22.2631 34.0125 22.038 32.1703C22.0036 31.8734 22.623 29.0657 22.7488 29.7503C22.7423 29.963 22.7239 30.1887 22.6899 30.4304C22.4119 32.4106 22.3645 33.5055 22.6056 34.6259C21.3556 38.1363 18.2592 41.7425 18.3456 40.4455ZM35.5498 62.372C34.5374 62.1092 33.6364 60.8849 32.5607 59.1556C31.8643 58.0361 31.3651 56.6092 31.0901 55.2484C31.0477 55.0388 31.758 55.0734 32.2122 56.7777C32.3994 57.5656 32.7279 58.5582 33.289 59.4124C33.7297 60.0834 35.5048 62.8004 37.2679 61.9146C36.7717 62.2256 36.3794 62.4257 36.2007 62.4332C35.983 62.4312 35.7654 62.4097 35.5498 62.372ZM34.8843 25.0994C34.8754 23.7487 35.5218 21.0619 36.7063 18.3028C37.0228 17.566 37.6233 17.1708 38.0142 16.4475C38.6062 15.3526 38.4829 14.2447 39.3445 13.3314C38.1824 14.1785 38.5308 14.829 37.7751 15.8472C37.3158 16.4661 36.7687 16.8809 36.3949 17.4371C36.0834 18.0134 36.2431 17.1773 36.6819 15.9886C36.9215 15.3396 37.4886 14.676 37.7002 14.0847C37.8175 13.7567 39.7713 9.95288 40.5395 9.80242C40.6758 9.77333 41.1026 9.69157 41.4281 9.6354C41.5668 9.61132 41.6871 9.59226 41.7585 9.58374C41.7276 9.64392 41.191 9.94135 41.1051 10.1239C40.6134 11.1666 39.8656 13.6664 39.8137 13.686C39.6455 14.2613 39.4967 14.8446 39.366 15.4349C39.2926 15.4469 38.6387 16.6823 38.1909 17.6116C37.6313 18.8179 37.1551 20.0768 36.7692 21.3818C35.8657 23.9177 34.9108 26.0985 34.8843 25.0994ZM42.8273 7.51783C42.7968 7.5745 42.2951 8.0555 42.0845 8.46276C42.1174 8.6689 42.1454 8.74463 42.1105 8.84896C41.8928 8.863 41.798 8.87353 41.5554 8.88056C40.9793 8.8946 41.3227 9.14688 43.1008 6.64713C43.2061 6.50318 43.4168 6.37177 42.8273 7.51783ZM41.3337 8.2195C41.0103 8.76018 40.6978 9.12782 40.3748 9.16042C40.0858 9.19052 39.3665 9.29183 38.9362 9.36506C38.6656 9.4112 40.1028 8.91316 41.3337 8.2195ZM37.1846 10.7478C38.3856 10.308 38.4844 10.8291 38.15 11.6341C37.6079 12.8203 35.068 13.9297 34.4935 14.3786C33.1722 15.4113 32.4029 16.603 32.2741 16.7008C31.455 17.3202 31.5968 17.8278 31.7121 18.8946C31.7445 19.1931 29.7972 16.8623 35.6311 13.3258C37.1062 12.4536 37.5594 11.8111 37.8545 11.2464C37.3483 11.6702 36.9514 12.3548 35.5732 13.064C34.8509 13.3815 34.2274 13.6965 33.6913 14.0085C32.676 14.5737 31.6901 15.1726 31.6941 15.0517C31.7021 14.8932 32.4484 14.3676 33.4048 13.7557C33.9659 13.3966 34.9133 12.6302 35.5128 12.2686C36.6589 11.5769 37.8839 11.0623 38.0342 10.8803C37.3148 11.1401 36.2376 11.5423 35.3705 11.9676C34.9992 12.1497 34.0702 12.9171 33.6838 13.1257C33.4657 13.2436 34.5908 11.8758 35.5947 11.3903C36.1438 11.1491 36.6754 10.9354 37.1841 10.7494L37.1846 10.7478ZM31.6072 10.4479C32.4718 10.1269 35.1095 9.73772 36.4313 9.16093C35.1754 10.0086 33.9564 10.6982 33.0544 10.9896C31.5678 11.5794 29.9095 12.3985 28.143 13.5465C27.8315 13.7798 28.6127 13.1618 28.7165 12.8489C29.1842 11.8498 32.5956 10.5823 34.0642 10.2789C32.2302 10.5191 29.2716 11.5358 28.2877 12.4607C28.5123 11.3733 29.8711 11.0999 31.6072 10.4479ZM21.0327 18.858C21.9996 17.8343 23.7442 16.3547 24.6617 15.3652C24.7765 15.2418 25.6196 14.6319 26.5705 13.9493C26.27 14.5637 25.9496 15.0968 25.6251 15.3657C24.6851 16.124 23.7272 17.0103 22.7903 18.0149C22.7908 18.0134 22.7918 18.0119 22.7923 18.0104C20.5275 20.3983 19.1103 22.2365 17.787 23.8144C17.772 23.7723 17.7615 23.7231 17.7531 23.6699C18.8258 21.7374 20.0019 19.9494 21.0327 18.858ZM13.7002 33.7272C13.8685 34.2066 13.2001 36.3057 13.2006 36.1522C13.2051 35.2323 13.227 34.8015 13.1926 34.2508C13.3293 34.1249 13.4821 33.9599 13.7002 33.7272ZM12.6924 44.4088C13.1342 42.2481 13.2515 39.9184 13.1986 37.9036C13.1961 37.5916 14.5404 32.6142 15.2741 32.224C15.359 32.1894 15.4558 32.1543 15.5682 32.1182C15.4084 32.9833 14.9142 35.9069 15.054 39.1399C15.1039 42.4979 14.1859 44.7007 11.7494 47.5064C12.1618 46.6026 12.5841 44.8757 12.6924 44.4088ZM16.3599 47.0354C16.3953 47.1006 16.7018 47.4497 16.3973 47.7366C16.0928 48.0235 11.6092 51.1402 10.3537 51.0268C12.7713 49.9535 14.1879 48.5065 16.3599 47.0354ZM10.3393 53.8581C11.6566 52.9137 11.8163 52.842 12.2716 52.8204C13.7182 52.8991 10.1256 54.0116 10.3393 53.8581ZM19.0819 53.6966C16.9828 52.1995 13.7991 52.6097 12.609 52.3545C13.5809 51.7847 18.2143 51.3107 19.2456 53.0802C19.5351 53.5767 19.5456 53.6735 20.0513 54.2945C19.4518 54.2473 17.9852 53.4709 16.2141 53.7393C18.9266 54.0216 20.2145 54.6421 20.6952 55.2695C21.0711 55.7605 20.1641 56.3554 19.1997 55.9968C18.6371 55.7701 18.9087 55.3076 18.7439 55.0498C17.7171 53.4438 10.9852 54.6064 10.1136 54.5503C13.6139 53.0185 16.552 52.6233 19.0819 53.6966ZM3.89538 60.3969C4.02417 60.2028 6.35733 58.5612 6.7976 58.7774C7.23788 58.9941 3.93032 60.7641 3.60237 60.9802C3.27441 61.1969 3.6413 60.8182 3.89538 60.3969ZM27.2479 62.1699C25.688 61.5064 24.2449 60.8764 23.4437 60.7059C29.2531 63.5868 15.0201 62.03 11.8158 62.369C8.61112 62.7081 6.6149 62.5717 4.95663 61.5264C4.99008 61.4316 5.2801 61.4843 5.79975 61.1312C6.73321 60.4395 7.72108 62.7582 10.5789 61.1673C7.5289 62.1744 6.31939 59.6972 8.39996 60.0438C10.4805 60.3904 15.374 62.2913 18.3656 61.4968C19.5601 61.1793 21.1669 60.9933 22.5447 61.5721C21.1205 60.4987 20.1476 60.8202 18.984 61.0544C15.2122 61.8128 7.95919 59.4485 8.95805 59.1245C10.2654 58.7006 17.166 62.6078 19.64 59.3502C18.3471 60.4516 16.2855 60.3859 13.0623 59.5764C9.83909 58.7669 10.6448 57.5897 11.8443 57.4959C12.4738 57.4468 12.655 57.7311 13.6244 58.1269C15.1284 58.7057 16.2525 58.2538 17.171 57.9338C15.953 58.2538 14.44 57.8851 12.4723 57.1102C11.5797 56.7456 15.4099 56.569 18.3376 57.835C14.3532 55.6391 11.2588 56.1638 8.76636 57.3123C7.43605 57.9433 6.14917 58.1886 5.91905 58.2713C5.83918 58.3004 10.7576 54.7469 15.986 56.0459C13.2595 54.8407 9.66538 55.4074 6.38378 57.3831C6.65933 57.0871 6.94536 56.8013 7.44504 56.3162C9.94742 54.0221 18.1284 54.4164 18.4105 55.4626C18.412 55.4681 18.4135 55.4731 18.415 55.4781C18.8867 57.216 21.3541 56.5424 21.4011 56.1392C22.3385 57.1102 19.5885 57.355 16.7702 56.2039C17.2903 56.896 18.9556 56.9452 20.2275 57.9764C20.0098 58.0541 19.5601 58.1319 18.8338 58.334C16.9783 58.8235 14.6736 59.7745 11.717 58.166C15.0295 60.7625 18.8338 58.654 20.7451 58.503C22.6565 58.3521 23.259 58.1565 23.7008 58.5978C23.8385 58.7307 23.9778 58.8621 24.1186 58.9926C24.9482 59.7544 20.6353 58.1239 20.0732 59.6917C21.0851 58.4865 26.6769 61.1959 28.2603 62.2125C28.2937 62.2341 28.3271 62.2552 28.3601 62.2767C28.3486 62.2712 28.3386 62.2667 28.3306 62.2622C30.2704 63.4765 28.413 62.6654 27.2479 62.1699ZM32.2073 62.9047C31.3347 62.366 30.4946 61.7792 29.6904 61.1482C28.6596 60.3944 30.553 61.1673 32.1259 62.195C32.1494 62.2105 32.1728 62.2261 32.1963 62.2411C32.2103 62.2502 32.2242 62.2597 32.2377 62.2687C32.2377 62.2687 32.2382 62.2687 32.2387 62.2682C33.1302 62.8405 34.0327 63.2778 34.8819 63.4619C35.0156 63.491 35.5617 63.5512 36.2511 63.502C36.7493 63.4624 36.6494 63.9033 36.1218 64.147C36.0914 64.1601 36.0614 64.1731 36.031 64.1852C35.6541 64.3296 35.097 64.3732 34.4076 64.125C33.6539 63.7513 32.9196 63.3441 32.2073 62.9047ZM39.0026 64.7941C38.766 64.7108 38.6721 64.9285 38.4385 64.8392C38.3546 64.8071 38.0307 64.7755 38.2248 64.4846C38.9641 63.3641 43.609 57.7748 46.6011 56.1542C45.2303 56.7611 44.0053 57.5541 42.9006 58.4067C40.9249 59.8256 39.6605 60.4636 40.6813 59.6676C41.5599 58.8802 42.5542 58.0326 43.6759 57.1834C43.7762 57.1122 43.883 57.0325 43.9968 56.9432C44.0687 56.89 44.1411 56.8369 44.214 56.7837C44.5719 56.5284 44.9922 56.2841 45.442 56.0574C47.1726 55.1667 47.2001 55.7746 47.7207 55.576C48.7954 55.1662 48.6871 54.6862 49.9131 54.4745C48.8553 54.45 48.6277 54.9485 47.6838 55.2595C47.1292 55.442 47.7581 54.7965 45.7714 55.5574C45.2428 55.7625 44.4506 56.1648 44.1975 56.2611C44.0557 56.3147 43.9424 56.3614 43.8491 56.4025C40.2735 57.8144 39.6101 56.7586 43.5611 55.5198C47.5665 54.2207 52.9216 56.1693 45.5288 41.9913C47.834 47.9508 48.4285 51.2581 47.8899 51.9893C47.5185 52.4939 47.2854 51.7586 47.1591 50.9441C47.0843 50.4124 46.8501 48.9389 45.8099 44.9846C45.5288 43.8832 45.0676 42.8143 44.7431 42.1994C43.1168 39.1194 40.9169 36.3628 38.2593 34.0963C38.2263 34.0682 38.1939 34.0406 38.1609 34.0125C38.1345 33.8169 38.11 33.6203 38.0881 33.4232C37.9288 32.7647 37.7936 32.0986 37.6832 31.425C37.5879 30.8452 37.511 30.2599 37.4536 29.6706C37.218 27.2741 37.2949 24.807 37.7187 22.3188C37.813 21.766 37.9228 21.2203 38.0481 20.6817C38.4799 19.0125 38.8059 18.0385 38.9931 17.4732C38.8069 18.7667 38.7105 20.0898 38.7105 21.435C38.7105 21.5198 38.711 21.6045 38.7115 21.6893C38.716 22.1823 38.733 22.6718 38.7635 23.1579C38.8059 23.848 38.8738 24.5306 38.9661 25.2057C39.3685 28.1529 40.2365 30.951 41.4935 33.5225C43.4063 37.2732 37.6298 32.7541 38.1924 23.4337C37.4581 31.1231 39.4738 34.6074 41.2009 35.8548C41.476 36.0534 41.9123 36.8774 42.1838 36.8493C42.4554 36.8213 43.1957 36.4962 43.5755 37.0796C43.8656 37.4999 44.1671 37.9111 44.4795 38.3134C44.5035 38.3435 44.527 38.3736 44.5504 38.4042C47.7497 43.2748 48.0247 44.1375 48.5728 45.599C47.7497 43.5712 44.2499 38.2331 42.6336 37.6122C43.7682 38.359 49.4788 45.8683 50.2121 52.4257C50.3339 53.5146 48.5973 54.7088 51.505 54.0186C46.318 56.2425 41.9552 60.0308 39.0026 64.7941ZM48.162 66.2225C47.9199 66.5415 43.5735 67.3129 42.7229 67.3746C42.1683 67.4147 41.7605 67.3991 41.1131 67.5105C40.4132 67.5832 40.254 67.2808 40.254 66.9507C40.254 66.6583 39.1498 67.4794 39.4428 66.6368C39.5132 66.4346 40.0768 66.4592 40.4597 66.4948C40.8425 66.5304 40.8321 66.6799 41.4276 66.7075C42.2382 66.7376 44.1995 66.9894 46.6889 66.3188C44.7835 66.5284 43.1258 66.6182 41.4595 66.212C41.2773 66.1678 40.6404 66.2461 40.4602 66.1979C40.239 66.1392 40.0024 66.0871 39.7838 66.0229C39.7997 66.0028 39.9745 65.7259 40.4082 65.1707C41.9592 63.2457 43.7647 61.5364 45.7719 60.093C44.6323 60.9326 37.4391 66.4607 45.3212 65.9812C40.7896 65.8684 43.0813 63.0973 45.5752 60.8634C46.1762 60.3247 47.0194 59.6877 46.2926 60.3698C45.2538 61.3438 43.8955 62.7828 43.7872 63.7563C43.7517 64.0743 43.6574 64.6672 44.224 64.937C44.8944 65.3056 48.3681 65.9511 48.162 66.2225ZM45.5019 63.2974C45.4465 63.3571 45.39 63.4163 45.3346 63.476C45.1055 63.7242 44.8814 63.9745 44.6632 64.2253C44.5584 64.3462 44.3243 64.7288 44.3068 64.0984C44.3118 63.962 44.3378 63.8401 44.3587 63.7684C44.6632 62.7332 46.0814 61.1011 47.3813 59.8096C47.6219 59.5703 46.9135 61.6353 45.5019 63.2974ZM53.9365 56.6869C51.4181 58.3295 49.6191 57.1288 48.6637 59.8828C49.7459 58.0331 52.0086 57.9197 50.875 58.654C49.961 59.2744 49.0261 59.9575 48.2284 60.6592C48.0482 60.8177 47.87 60.9782 47.6923 61.1397C47.5081 61.2952 47.5175 61.1748 47.5854 61.0539C48.3547 59.6907 48.3931 58.8551 48.8888 58.4118C49.1553 58.1845 49.373 58.0135 49.5173 57.9172C49.968 57.6363 50.3284 57.4362 50.5411 57.3449C51.3083 57.0009 52.0945 56.6914 52.8977 56.4186C55.5308 55.5664 55.2882 55.8242 53.9365 56.6869ZM55.8313 52.5822C54.3907 52.8079 52.0226 52.9302 51.7626 51.2555C51.3497 48.3731 50.4916 45.6356 49.2602 43.1153C48.2728 41.094 47.0453 39.2122 45.6152 37.5079C45.128 36.9276 44.2275 36.7882 43.6948 36.25C43.7852 36.2043 44.3418 35.9059 44.4326 35.8618C45.9691 35.1099 47.4521 34.6144 49.1334 34.16C49.4199 34.6886 49.6895 35.2278 49.942 35.777C50.3334 36.6066 54.2275 43.2848 48.1805 36.0032C47.87 35.6316 47.1496 35.0427 44.9528 35.8056C46.5551 35.4034 47.3982 36.1868 48.0731 36.907C53.8017 43.7016 52.1529 39.2558 52.3206 39.7017C52.7534 41.5534 52.8378 41.8077 52.8518 43.4458C52.8657 45.0839 53.3155 47.541 55.8453 49.0146C53.8776 47.6117 54.1027 45.1922 53.6529 42.3825C53.2007 39.2147 52.2103 36.2219 50.7777 33.4999C50.5595 33.0847 50.3309 32.6754 50.0918 32.2731C48.8903 30.2484 47.6339 28.3068 45.9716 26.6627C44.2359 25.1114 45.089 23.1017 45.8643 23.5195C45.9836 23.5972 44.489 24.2969 45.9506 26.2881C44.9667 24.4002 46.1388 23.5767 47.8435 25.0076C48.3746 25.4675 48.8354 25.8688 49.2771 26.3197C47.2714 25.1114 45.707 24.6028 46.7468 27.0223C46.4468 24.7909 48.733 26.42 49.4549 27.248C49.6216 27.4396 48.8309 27.4256 49.1364 27.7566C49.3955 28.037 50.7357 28.6399 51.0447 29.0396C51.9482 30.2067 52.9701 31.9195 53.5471 34.3952C53.6714 34.9369 53.7717 35.4886 53.8466 36.0484C53.9145 36.5569 53.9614 37.0725 53.9864 37.5947C54.0004 37.8815 53.5496 33.5611 51.4645 30.4114C51.2584 30.0999 50.7722 29.4589 50.0778 29.1685C49.4943 28.9248 48.443 28.5706 47.6418 27.568C48.3517 28.846 49.4763 29.3375 50.0773 29.6982C50.6798 30.0598 50.9778 30.5869 51.161 30.9576C53.9025 36.4983 53.8571 39.977 53.9065 40.8618C53.9564 41.7596 54.6523 44.8321 54.8764 45.5584C55.1006 46.2846 55.3821 46.8494 55.5947 47.4156C56.1219 48.3816 56.033 48.6655 56.6889 49.5232C56.8317 49.7097 54.0747 50.6793 50.6234 41.9241C49.4928 39.0918 47.8061 36.5123 44.4052 36.258C46.7244 36.7947 48.762 38.8987 49.69 42.1327C51.2179 47.2496 53.5002 49.7815 55.2503 50.8683C56.352 51.4436 54.9977 51.4105 54.0049 50.9586C53.2246 50.6035 52.9506 50.3653 52.431 49.2217C51.9113 48.0782 51.2674 46.7476 50.8241 46.0017C52.0611 49.5182 51.5314 51.241 53.5835 51.8484C54.4027 52.0906 55.4006 52.1197 56.4418 52.039C57.7627 51.9798 58.6088 52.0259 57.1716 52.2958C56.7209 52.3805 56.2746 52.4763 55.8318 52.5832L55.8313 52.5822ZM66.4808 56.3794C66.4314 56.4687 66.0969 56.4783 65.5434 56.4848C65.0761 56.4868 64.558 55.9115 64.9598 55.9205C65.9322 56.0163 66.5956 56.1823 66.4808 56.3794ZM65.3652 55.7675C63.349 55.5413 59.706 55.4345 59.1254 56.5264C59.5727 55.9937 61.535 55.8087 63.3215 55.8338C64.218 55.9361 65.4815 56.4226 63.5451 56.5535C63.2207 56.5771 61.1436 56.8018 59.3506 56.888C59.1818 56.896 59.1254 57.5431 58.0197 57.675C58.9472 57.1574 58.484 56.9186 58.3103 56.9206C56.6774 56.9367 55.7769 56.735 57.7956 55.9501C59.679 55.3322 61.5993 54.9931 63.4947 55.0358C64.9963 55.1175 65.3357 55.1797 66.3081 55.3678C66.3071 55.3678 66.3061 55.3678 66.3056 55.3683C66.3161 55.3698 66.3256 55.3713 66.335 55.3728C66.4049 55.3864 66.4788 55.4004 66.5557 55.4154C67.3035 55.6 65.5703 55.7906 65.3652 55.7675ZM68.0737 55.9993C68.0163 56.072 67.6708 56.2721 66.7149 55.9897C66.6036 55.9566 66.9975 55.4977 67.7757 55.7354C67.9958 55.8358 68.1226 55.9376 68.0737 55.9993ZM70.7802 57.2501C70.036 57.361 68.2234 57.2913 68.7655 56.6774C68.9867 56.4687 69.1789 56.2656 69.3346 56.071C70.4398 56.395 71.516 56.7872 72.5588 57.2426C72.5808 57.2522 72.6007 57.2607 72.6202 57.2687C72.3107 57.2 71.6877 57.1248 70.7802 57.2501ZM71.251 53.3591C71.7971 52.4778 72.2952 51.563 72.741 50.6191C72.8633 50.3603 72.9816 50.0989 73.0959 49.8356C73.2896 50.2284 75.5089 54.7429 71.8405 53.1469C75.4386 55.7455 74.2924 52.4573 74.3913 52.6965C74.7297 53.5156 75.0462 54.3461 75.3397 55.1877C74.0379 54.471 72.6711 53.8581 71.251 53.3591ZM76.8318 60.4541C76.687 60.4285 75.9362 59.9791 74.8111 59.8076C76.1529 59.7253 77.2106 59.8612 77.7313 60.253C78.4221 60.7646 77.8855 60.6412 76.8318 60.4541ZM78.2684 61.9302C78.2674 61.9031 80.047 62.0495 79.1884 61.6658C79.6576 61.8048 80.2661 62.0199 80.3759 62.0861C81.1102 62.4819 79.9941 62.1764 78.2684 61.9302Z" fill="#751F26"/>
</svg>
