<svg width="109" height="26" viewBox="0 0 109 26" fill="none" xmlns="http://www.w3.org/2000/svg">
<path d="M103.585 0.15695H107.545V8.08491H103.585V0.15695ZM96.7303 4.12093L96.5018 4.19716C96.5018 4.19716 97.8727 5.34062 97.8727 5.41685C97.9489 5.49308 98.025 5.49308 97.9489 5.72177C97.8727 5.95046 97.7966 6.17915 97.7966 6.17915C97.7966 6.17915 99.0152 5.95046 99.1675 5.87423C99.3198 5.87423 99.396 5.87423 99.396 6.02669C99.396 6.17915 99.3198 7.47507 99.3198 7.47507H99.7006C99.7006 7.47507 99.6245 6.10292 99.6245 6.02669C99.6245 5.87423 99.7006 5.87423 99.853 5.87423C100.005 5.87423 101.224 6.17915 101.224 6.17915C101.224 6.17915 101.148 5.87423 101.072 5.72177C100.995 5.49308 101.072 5.49308 101.148 5.41685C101.224 5.34062 102.519 4.19716 102.519 4.19716L102.29 4.12093C102.138 4.0447 102.214 3.96847 102.214 3.89224C102.214 3.81601 102.443 3.05371 102.443 3.05371C102.443 3.05371 101.833 3.20617 101.757 3.20617C101.681 3.20617 101.605 3.20617 101.605 3.12994C101.605 3.05371 101.452 2.74878 101.452 2.74878C101.452 2.74878 100.767 3.51109 100.691 3.58732C100.538 3.73978 100.386 3.58732 100.462 3.43486C100.462 3.2824 100.843 1.68156 100.843 1.68156C100.843 1.68156 100.462 1.91025 100.31 1.98648C100.158 2.06271 100.081 2.06271 100.081 1.91025C100.005 1.75779 99.5483 0.919254 99.5483 0.843023C99.5483 0.843023 99.0913 1.75779 99.0152 1.91025C98.939 2.06271 98.8628 2.06271 98.7867 1.98648C98.6344 1.91025 98.2535 1.68156 98.2535 1.68156C98.2535 1.68156 98.6343 3.2824 98.6343 3.43486C98.6343 3.58732 98.5582 3.66355 98.4059 3.58732L97.6442 2.74878C97.6442 2.74878 97.5681 2.97748 97.4919 3.05371C97.4919 3.12994 97.4157 3.20617 97.3396 3.12994C97.1872 3.12994 96.5779 2.97748 96.5779 2.97748C96.5779 2.97748 96.8064 3.73978 96.8826 3.81601C96.8826 3.89224 96.8826 4.0447 96.7303 4.12093ZM91.6273 0.15695H95.5878V8.08491H91.6273V0.15695Z" fill="#E07B7B"/>
<path d="M108.383 23.9408C108.079 24.6269 107.469 24.8556 107.089 24.8556C106.632 24.8556 105.261 24.7794 105.261 21.1965C105.261 21.1965 105.261 13.9547 105.261 13.4973C105.261 11.1341 103.433 9.22837 98.7105 9.22837C93.6076 9.22837 93.5314 11.744 93.5314 12.3538C93.4552 13.0399 93.8361 13.8022 95.1308 13.8022C96.2733 13.8022 96.5779 12.5063 96.7303 12.0489C96.8826 11.5153 96.9588 9.99067 99.0152 9.99067C100.767 9.99067 101.833 11.5153 101.909 13.726C101.909 14.1071 101.909 14.3358 101.909 14.5645C101.909 14.717 101.909 14.7932 101.909 14.9457V15.0219C101.757 15.7842 101.376 16.1653 100.691 16.4703C99.7768 16.9276 97.1111 17.3088 96.8064 17.385C95.7401 17.6137 92.7698 18.376 92.8459 21.5015C92.9221 24.5507 95.9686 25.6179 98.1012 25.5417C100.158 25.4654 101.376 24.6269 101.909 24.1695C102.214 23.9408 102.214 23.9408 102.443 24.2458C102.747 24.5507 103.737 25.5417 106.098 25.5417C108.536 25.5417 108.84 24.3982 108.993 24.0171C109.069 23.7884 108.536 23.5597 108.383 23.9408ZM98.8628 24.7794C96.7303 24.7794 96.1971 23.0261 96.1971 22.1113C96.1971 21.2728 96.6541 19.5195 98.7867 18.2998C98.7867 18.2998 99.7768 17.6899 101.681 16.9276C101.757 16.9276 101.833 16.9276 101.833 16.9276C101.833 16.9276 101.909 17.0039 101.909 17.0801V20.4342C101.909 22.9498 100.691 24.7794 98.8628 24.7794ZM91.8558 24.7031C91.5511 24.6269 89.6471 24.8556 89.6471 19.0621C89.6471 13.2686 89.6471 0.843023 89.6471 0.843023C89.6471 0.614332 89.6471 0.00448875 88.9616 0.00448875C88.2761 0.00448875 83.7063 0.23318 83.4017 0.30941C83.097 0.30941 82.8685 0.690563 83.4017 0.690563C83.9348 0.766793 86.372 0.919254 86.372 4.95947C86.372 6.94146 86.372 8.92345 86.372 10.3718C86.372 10.4481 86.372 10.5243 86.372 10.5243C86.372 10.6767 86.372 10.753 86.2959 10.8292C86.2959 10.8292 86.2959 10.8292 86.2959 10.9054C86.2197 10.9817 86.1435 10.9054 85.915 10.753C85.5342 10.4481 83.7825 9.38083 81.5737 9.38083C77.994 9.38083 73.5766 11.9727 73.5766 17.3088C73.5766 23.0261 77.6132 25.7704 81.8022 25.7704C83.8586 25.7704 85.3057 24.8556 85.8389 24.5507C86.4482 24.1695 86.372 24.2458 86.4482 24.7794C86.5244 25.1605 86.4482 25.9228 87.5145 25.8466C88.6569 25.6941 91.3988 25.3892 91.932 25.313C92.4651 25.0843 92.3128 24.7794 91.8558 24.7031ZM82.4115 24.9318C79.0603 24.9318 77.3086 20.9679 77.3086 17.1563C77.3086 12.9637 79.6696 10.1431 82.183 10.2956C85.4581 10.5243 86.2959 13.1161 86.372 17.7662C86.372 18.0711 86.372 18.376 86.372 18.7572C86.2959 23.331 84.3918 24.9318 82.4115 24.9318ZM73.5004 23.9408C73.1957 24.6269 72.5864 24.8556 72.2056 24.8556C71.7486 24.8556 70.3777 24.7794 70.3777 21.1965C70.3777 21.1965 70.3777 13.9547 70.3777 13.4973C70.3777 11.1341 68.5498 9.22837 63.8276 9.22837C58.7247 9.22837 58.6485 11.744 58.6485 12.3538C58.5723 13.0399 58.9532 13.8022 60.2479 13.8022C61.3904 13.8022 61.695 12.5063 61.8474 12.0489C61.9997 11.5153 62.0759 9.99067 64.1323 9.99067C65.884 9.99067 67.0265 11.5153 67.0265 13.8022V13.8784C67.0265 13.9547 67.0265 14.0309 67.0265 14.0309V14.2596C67.0265 14.3358 67.0265 14.4883 67.0265 14.5645C66.9503 15.708 66.6457 16.0891 65.7317 16.5465C64.8177 17.0039 62.152 17.385 61.8474 17.4613C60.7811 17.6899 57.8107 18.4522 57.8869 21.5777C57.963 24.6269 61.0096 25.6941 63.1422 25.6179C65.1986 25.5417 66.4172 24.7031 66.9503 24.2458C67.255 24.0171 67.255 24.0171 67.4835 24.322C67.7881 24.6269 68.7783 25.6179 71.1393 25.6179C73.5766 25.6179 73.8812 24.4745 74.0335 24.0933C74.1859 23.7884 73.7289 23.5597 73.5004 23.9408ZM64.0561 24.7794C61.9235 24.7794 61.3904 23.0261 61.3904 22.1113C61.3904 21.2728 61.8474 19.5195 63.98 18.2998C63.98 18.2998 64.9701 17.6899 66.8742 16.9276C66.9503 16.9276 67.0265 16.9276 67.0265 16.9276V17.0039C67.0265 17.0801 67.0265 17.1563 67.0265 17.3088V17.2326C67.0265 17.2326 67.0265 17.2326 67.0265 17.3088V20.5105C67.0265 22.9498 65.8079 24.7794 64.0561 24.7794ZM56.7444 24.7031C56.1351 24.5507 55.0688 23.8646 55.0688 20.5105V14.412C55.0688 12.9637 55.2211 9.22837 49.5089 9.22837C46.5385 9.22837 44.8629 10.753 44.7106 10.8292C44.4821 11.0579 44.3298 11.1341 44.2536 10.753C44.1774 10.4481 44.0251 9.99067 43.9489 9.68575C43.8728 9.45706 43.7204 9.22837 43.1873 9.3046C42.6542 9.38083 39.303 9.91444 38.6937 10.0669C38.1605 10.2194 38.3128 10.4481 38.6937 10.5243C39.0745 10.6005 40.9024 10.753 40.9024 13.8784C40.9024 17.0039 40.9024 20.4342 40.9024 20.4342C40.9024 24.2458 40.1408 24.5507 39.4553 24.7794C38.5413 25.0081 38.9983 25.313 39.3791 25.313C39.3791 25.313 46.1577 25.313 46.31 25.313C46.767 25.313 46.9955 24.8556 46.0815 24.7031C45.1676 24.5507 44.3298 24.0171 44.3298 21.0441C44.3298 20.7392 44.3298 17.4613 44.3298 16.8514C44.3298 15.2506 43.9489 10.3718 48.3664 10.2956C51.4891 10.2194 51.7938 12.8112 51.7938 14.4883V20.9679C51.7938 23.6359 51.0321 24.4745 50.1182 24.6269C49.2804 24.7794 49.4327 25.1605 49.8897 25.1605C50.042 25.1605 56.9729 25.1605 56.9729 25.1605C57.3537 25.313 57.7345 24.9318 56.7444 24.7031ZM38.2367 23.9408C37.932 24.6269 37.3227 24.8556 36.9419 24.8556C36.4849 24.8556 35.114 24.7794 35.114 21.1965C35.114 21.1965 35.114 13.9547 35.114 13.4973C35.114 11.1341 33.286 9.22837 28.5639 9.22837C23.4609 9.22837 23.3848 11.744 23.3848 12.3538C23.3086 13.0399 23.6894 13.8022 24.9842 13.8022C26.1267 13.8022 26.4313 12.5063 26.5836 12.0489C26.736 11.5153 26.8121 9.99067 28.8686 9.99067C30.6203 9.99067 31.6866 11.5153 31.7628 13.726C31.7628 14.1071 31.7628 14.3358 31.7628 14.5645C31.7628 14.717 31.7628 14.8694 31.6866 14.9457V15.0219C31.5343 15.7842 31.1535 16.1653 30.468 16.4703C29.554 16.9276 26.8883 17.3088 26.5836 17.385C25.5174 17.6137 22.547 18.376 22.6231 21.5015C22.6993 24.5507 25.7459 25.6179 27.8784 25.5417C29.9348 25.4654 31.1535 24.6269 31.6866 24.1695C31.9913 23.9408 31.9913 23.9408 32.2198 24.2458C32.5244 24.5507 33.5145 25.5417 35.8756 25.5417C38.3128 25.5417 38.6175 24.3982 38.7698 24.0171C38.9221 23.7884 38.389 23.5597 38.2367 23.9408ZM28.7162 24.7794C26.5836 24.7794 26.0505 23.0261 26.0505 22.1113C26.0505 21.1965 26.5075 19.5195 28.6401 18.2998C28.6401 18.2998 29.6302 17.6899 31.5343 16.9276C31.6104 16.9276 31.6866 16.9276 31.6866 16.9276C31.6866 16.9276 31.7628 17.0039 31.7628 17.0801C31.7628 17.0801 31.7628 17.1563 31.7628 17.2326V20.5105C31.7628 22.9498 30.5442 24.7794 28.7162 24.7794ZM21.4045 18.1473C20.6429 20.5867 19.1958 24.5507 13.9405 24.7031C8.45673 24.7794 5.1817 21.0441 5.02937 14.1071C4.80088 6.71277 7.99975 1.07171 12.9504 0.919254C18.5103 0.843023 20.4906 7.47507 20.5667 8.46607C20.6429 9.22837 21.633 9.15214 21.633 8.38983C21.633 8.00868 21.176 1.45287 21.0237 0.690563C20.8714 -0.0717417 20.2621 0.23318 20.1098 0.538102C20.0336 0.766793 20.1859 0.30941 19.8813 0.995484C19.5766 1.68156 18.7388 1.30041 18.4342 1.22418C17.5202 0.843023 15.7684 -0.0717417 12.9504 0.00448875C6.47648 0.15695 -0.14975 4.95947 0.00257723 13.3448C0.154904 21.5015 6.70497 26.0753 12.7981 25.9991C18.358 25.9228 21.4807 22.4162 22.3947 18.376C22.6993 17.385 21.7092 17.1563 21.4045 18.1473Z" fill="#751F26"/>
</svg>
