<svg width="112" height="78" viewBox="0 0 112 78" fill="none" xmlns="http://www.w3.org/2000/svg">
<path d="M53.0765 0C45.329 1.03992e-07 37.7555 2.28747 31.3137 6.57313C24.872 10.8588 19.8514 16.9501 16.8868 24.0768C13.9223 31.2035 13.1469 39.0454 14.6589 46.6109C16.1708 54.1763 19.9021 61.1254 25.3809 66.5794C30.8597 72.0334 37.8398 75.7473 45.4386 77.2514C53.0375 78.7555 60.9136 77.9822 68.071 75.0294C75.2284 72.0767 81.3456 67.0769 85.649 60.6626C89.9524 54.2482 92.2486 46.7073 92.2473 38.9936C92.2286 28.6565 88.0955 18.7481 80.7534 11.4393C73.4113 4.1304 63.4589 0.0169294 53.0765 0ZM14.5811 37.9305V39.3458C14.5811 39.2305 14.5811 39.1153 14.5811 38.9936C14.5554 38.635 14.5747 38.2828 14.5811 37.9305ZM37.5047 74.0488C37.4911 74.0178 37.4803 73.9856 37.4725 73.9527C37.4664 73.9188 37.4664 73.8841 37.4725 73.8502C37.4701 73.7737 37.4833 73.6975 37.5111 73.6261L37.6784 73.2547C37.7083 73.1885 37.7522 73.1295 37.807 73.0818L37.8842 73.0241C37.9128 73.0038 37.9459 72.9906 37.9807 72.9857H38.09C38.1348 72.9796 38.1803 72.9796 38.2251 72.9857C38.2673 73.002 38.3048 73.0284 38.3344 73.0625C38.3619 73.0892 38.3857 73.1193 38.4052 73.1522C38.4208 73.1831 38.4337 73.2152 38.4438 73.2483C38.4469 73.2802 38.4469 73.3124 38.4438 73.3443C38.4497 73.4169 38.4364 73.4898 38.4052 73.5557L38.2444 73.9271C38.2163 73.9996 38.1697 74.0636 38.1093 74.1128L38.0321 74.1768L37.9292 74.2217L37.5497 74.0552L37.5047 74.0488ZM44.3934 76.3542L44.6056 75.3936L44.9722 76.4887L44.3934 76.3542ZM51.0376 77.2956C50.7675 77.2956 50.4973 77.2571 50.2336 77.2315V76.7832L51.0376 76.8345V77.2956ZM52.0346 77.2956L51.9638 77.2187C51.9638 77.2187 51.9316 77.1611 51.9188 77.1291C51.8896 77.0556 51.8744 76.9775 51.8738 76.8985V76.4951C51.8793 76.4216 51.899 76.3498 51.9316 76.2837C51.9465 76.2567 51.9637 76.231 51.9831 76.2069C52.0033 76.1803 52.0271 76.1566 52.0539 76.1364C52.0859 76.1135 52.1204 76.0942 52.1568 76.0788H52.4269L52.5234 76.1364C52.5504 76.1587 52.5742 76.1846 52.5941 76.2133C52.6129 76.2389 52.6281 76.2669 52.6392 76.2965C52.6728 76.362 52.6904 76.4344 52.6906 76.5079V76.9113C52.6912 76.989 52.6736 77.0657 52.6392 77.1355C52.6245 77.1667 52.6073 77.1966 52.5877 77.2251L52.517 77.302H52.0796L52.0346 77.2956ZM55.0254 77.2956L54.9482 77.2187L54.8968 77.1355C54.864 77.0644 54.8423 76.9888 54.8325 76.9113V76.5079C54.8316 76.4356 54.8447 76.3639 54.8711 76.2965C54.8822 76.2669 54.8973 76.2389 54.9161 76.2133C54.9301 76.1823 54.9523 76.1557 54.9804 76.1364C55.0089 76.11 55.0415 76.0884 55.0769 76.0724C55.1174 76.0529 55.1609 76.0399 55.2055 76.034C55.2503 76.0267 55.2959 76.0267 55.3406 76.034C55.4087 76.0581 55.4704 76.0975 55.5207 76.1492C55.5401 76.1733 55.5573 76.199 55.5722 76.2261C55.6069 76.2918 55.6288 76.3635 55.6365 76.4374V76.8409C55.6437 76.9197 55.6304 76.9991 55.5979 77.0714C55.5878 77.1024 55.5748 77.1324 55.5593 77.1611C55.5411 77.1911 55.517 77.2173 55.4885 77.2379H55.0769L55.0254 77.2956ZM57.9584 75.7778L58.4408 75.7138C58.4748 75.7071 58.5098 75.7071 58.5437 75.7138C58.5754 75.7269 58.6038 75.7466 58.6273 75.7714C58.6543 75.8119 58.6719 75.8578 58.6788 75.9059C58.6898 75.9522 58.6898 76.0005 58.6788 76.0468C58.6644 76.0757 58.6448 76.1018 58.6209 76.1236C58.6003 76.1413 58.5762 76.1543 58.5502 76.1621L58.0742 76.2261L57.9584 75.7778ZM58.0678 76.5591L58.5502 76.4951C58.5832 76.4822 58.62 76.4822 58.6531 76.4951C58.6859 76.5059 58.715 76.5259 58.7367 76.5527C58.7658 76.592 58.7836 76.6385 58.7881 76.6872V76.9049L58.0999 76.9882L58.0678 76.5591ZM60.2225 76.5207L60.2932 76.6616L59.6886 76.7704V76.6167L60.2225 76.5207ZM59.7336 76.3029L59.798 75.6625L60.0874 76.2325L59.7336 76.3029ZM60.8721 75.2911L61.3416 75.1823C61.3778 75.1756 61.4148 75.1756 61.451 75.1823C61.4827 75.1921 61.5115 75.2097 61.5346 75.2335C61.5652 75.2702 61.5852 75.3144 61.5925 75.3616C61.6054 75.4076 61.6054 75.4564 61.5925 75.5025C61.5807 75.5332 61.5633 75.5614 61.541 75.5857C61.5152 75.6107 61.4846 75.6303 61.451 75.6433L60.975 75.7458V75.6113L60.8721 75.2911ZM62.5187 75.7074L63.297 75.5025L63.4127 75.9379L62.6409 76.1557L62.5187 75.7074ZM73.6396 71.3911H73.5367L73.4531 71.3399C73.3868 71.2986 73.3299 71.2441 73.2858 71.1798L73.0672 70.8404C73.0294 70.7755 73.0053 70.7036 72.9964 70.6291C72.9927 70.5971 72.9927 70.5649 72.9964 70.533C72.9903 70.5013 72.9903 70.4687 72.9964 70.4369C73.0107 70.4002 73.0302 70.3657 73.0543 70.3345C73.0796 70.2963 73.1124 70.2636 73.1508 70.2384C73.1917 70.2168 73.2348 70.1996 73.2794 70.1872H73.4917L73.5753 70.2256C73.6393 70.2648 73.6941 70.3172 73.7361 70.3793L73.9548 70.7187C73.9976 70.787 74.026 70.8633 74.0384 70.9428C74.0384 70.9428 74.0384 71.0069 74.0384 71.0389C74.0445 71.0728 74.0445 71.1075 74.0384 71.1414L73.6782 71.3719L73.6396 71.3911ZM75.3376 70.2128C75.2924 70.1923 75.2544 70.1588 75.2283 70.1167C75.1969 70.0781 75.1769 70.0315 75.1704 69.9823C75.1664 69.9504 75.1664 69.9181 75.1704 69.8862C75.1881 69.8518 75.2096 69.8196 75.2347 69.7901L75.5499 69.5596C75.5861 69.5537 75.623 69.5537 75.6592 69.5596H75.7622C75.8048 69.581 75.8422 69.6116 75.8715 69.6492C75.9003 69.6887 75.9181 69.7352 75.923 69.7837C75.9266 69.8071 75.9266 69.8308 75.923 69.8542C75.7557 69.9823 75.5756 70.1039 75.402 70.2256L75.3376 70.2128ZM75.0675 69.5724H74.8938C74.8506 69.5515 74.8147 69.518 74.7909 69.4763C74.7571 69.4418 74.7366 69.3964 74.733 69.3483C74.7263 69.3144 74.7263 69.2796 74.733 69.2458C74.7466 69.2128 74.7688 69.184 74.7974 69.1625L75.1125 68.932C75.1462 68.9227 75.1818 68.9227 75.2154 68.932C75.2492 68.923 75.2846 68.923 75.3183 68.932C75.361 68.9534 75.3984 68.9841 75.4277 69.0217C75.4565 69.0612 75.4743 69.1076 75.4791 69.1561C75.4895 69.1873 75.4895 69.221 75.4791 69.2522C75.4712 69.2777 75.4555 69.3001 75.4341 69.3162L75.0675 69.5724ZM76.2188 69.6621C76.1992 69.5996 76.1688 69.5411 76.1288 69.4892C76.0922 69.4348 76.0465 69.3872 75.9937 69.3483C75.9579 69.3223 75.919 69.3008 75.8779 69.2842C75.8396 69.2781 75.8005 69.2781 75.7622 69.2842C75.7622 69.2842 75.7622 69.2842 75.7622 69.2394C75.7661 69.2096 75.7661 69.1795 75.7622 69.1497C75.7469 69.0479 75.7072 68.9513 75.6464 68.868C75.5918 68.7865 75.5192 68.7186 75.4341 68.6694C75.3737 68.6336 75.3051 68.6137 75.2347 68.6118C75.1776 68.5984 75.1182 68.5984 75.0611 68.6118C75.0131 68.6319 74.9677 68.6577 74.926 68.6887L74.5851 68.9384C74.5434 68.9689 74.5046 69.0032 74.4693 69.0409C74.428 69.0861 74.3991 69.1413 74.3857 69.201C74.3693 69.2683 74.3693 69.3386 74.3857 69.4059C74.4044 69.502 74.4463 69.5921 74.5079 69.6685C74.542 69.717 74.5832 69.7602 74.6301 69.7965C74.6645 69.823 74.7011 69.8466 74.7395 69.867H74.8295C74.8295 69.867 74.8681 69.867 74.8745 69.867C74.8672 69.9051 74.8672 69.9442 74.8745 69.9823C74.8671 70.0246 74.8671 70.068 74.8745 70.1103C74.8941 70.1728 74.9246 70.2313 74.9646 70.2832C75.0025 70.3325 75.0456 70.3776 75.0932 70.4177L74.9003 70.5522L74.032 69.2714L73.7811 69.4379L73.8261 69.7709L73.9548 69.6877L74.6559 70.7123L74.36 70.898C74.3431 70.7856 74.3061 70.6772 74.2506 70.5778L73.9419 70.1039C73.8765 70.0095 73.7908 69.9308 73.6911 69.8734C73.6487 69.8469 73.6034 69.8254 73.556 69.8093H73.4016C73.3398 69.8003 73.2769 69.8003 73.2151 69.8093C73.145 69.8333 73.0781 69.8656 73.0157 69.9054C72.9531 69.9462 72.8968 69.9959 72.8485 70.0527C72.8062 70.0982 72.7714 70.15 72.7456 70.2064C72.7267 70.2559 72.7137 70.3075 72.707 70.3601C72.7006 70.409 72.7006 70.4585 72.707 70.5074C72.717 70.6213 72.7545 70.7312 72.8163 70.8276L73.1186 71.3015C73.1872 71.3948 73.2722 71.4751 73.3695 71.5384C72.99 71.7754 72.6041 71.9995 72.2117 72.2172L72.1217 72.0571C72.0924 72.0183 72.0766 71.9711 72.0766 71.9226C72.0692 71.8911 72.0692 71.8582 72.0766 71.8266C72.0971 71.7944 72.1232 71.7662 72.1538 71.7433L72.4626 71.564H72.5011C72.5453 71.539 72.5863 71.509 72.6233 71.4744C72.668 71.4359 72.7032 71.3877 72.7263 71.3335C72.7401 71.2659 72.7401 71.1962 72.7263 71.1286C72.7134 71.0332 72.6806 70.9415 72.6298 70.8596C72.5938 70.8028 72.5529 70.7492 72.5076 70.6995C72.4683 70.6647 72.4252 70.6346 72.3789 70.6098L72.2503 70.5714H72.0059L71.9158 70.6162L71.1633 71.0517L71.3241 71.3143L72.0573 70.8916C72.091 70.882 72.1266 70.882 72.1602 70.8916C72.1918 70.8829 72.2252 70.8829 72.2567 70.8916C72.2951 70.9168 72.3279 70.9495 72.3532 70.9877C72.3815 71.029 72.3951 71.0786 72.3918 71.1286C72.3992 71.1602 72.3992 71.193 72.3918 71.2246C72.3738 71.2566 72.3497 71.2849 72.321 71.3079L71.993 71.5C71.9489 71.525 71.9078 71.5551 71.8708 71.5896C71.8278 71.6308 71.7948 71.6812 71.7743 71.7369C71.7461 71.8014 71.7351 71.8719 71.7422 71.9419C71.755 72.0373 71.7879 72.1289 71.8386 72.2108L71.9223 72.3517C71.2791 72.7167 70.6359 73.069 69.9476 73.3891L69.4074 72.2749L69.8769 72.0507L69.7483 71.7754L68.5326 72.3581L68.6677 72.6335L69.1308 72.4093L69.6775 73.5236L69.0343 73.8118C69.0273 73.7455 69.0099 73.6807 68.9828 73.6197C68.9456 73.5308 68.8909 73.4503 68.822 73.3827C68.7711 73.3362 68.7091 73.3031 68.6419 73.2867C68.5844 73.2773 68.5258 73.2773 68.4683 73.2867L68.3203 73.3315L68.0502 73.4532C68.0122 73.4627 67.9724 73.4627 67.9344 73.4532L67.8444 73.4148C67.8035 73.3861 67.7721 73.346 67.7543 73.2995C67.7426 73.2554 67.7426 73.2091 67.7543 73.165C67.7498 73.1332 67.7498 73.1008 67.7543 73.069C67.7776 73.0422 67.806 73.0204 67.8379 73.0049L68.2818 72.8064L68.5069 72.7103L68.3847 72.435L67.6964 72.7359C67.6491 72.7532 67.6054 72.7793 67.5678 72.8128C67.5198 72.846 67.4802 72.8899 67.452 72.9409C67.4177 73.0014 67.4 73.0699 67.4006 73.1394C67.3967 73.2353 67.4189 73.3304 67.4649 73.4148C67.4999 73.5048 67.5548 73.5858 67.6257 73.6517C67.6787 73.7002 67.7427 73.7354 67.8122 73.7542C67.8712 73.7699 67.9333 73.7699 67.9923 73.7542C68.0427 73.746 68.0922 73.7331 68.1403 73.7158L68.4104 73.5941C68.4441 73.5851 68.4796 73.5851 68.5133 73.5941C68.545 73.5859 68.5781 73.5859 68.6098 73.5941C68.6486 73.6234 68.6777 73.6635 68.6934 73.7093C68.7078 73.7552 68.7078 73.8044 68.6934 73.8502C68.697 73.88 68.697 73.9101 68.6934 73.9399C68.0502 74.2153 67.407 74.4778 66.7638 74.7212L66.603 74.3113L67.1497 74.1L67.0404 73.8182L66.4937 74.0295L66.3136 73.5813L67.2462 73.2162L67.1304 72.9281L65.9212 73.402L66.4808 74.83C65.8891 75.0542 65.2844 75.2591 64.6798 75.4704L64.4997 74.9005L64.7506 73.831L64.4483 73.9207L64.2746 74.6827L63.6957 74.1576L63.3934 74.2537L64.2103 74.9901L64.3904 75.5665L63.6893 75.765L63.2905 74.2793L62.9947 74.3625L63.2005 75.1182L62.4222 75.3295L62.2164 74.5675L61.927 74.6443L62.3257 76.13C61.927 76.2325 61.5217 76.3222 61.123 76.4054L61.0265 75.9763L61.5217 75.8675C61.5705 75.8551 61.6179 75.8379 61.6632 75.8162C61.7158 75.7902 61.7636 75.7555 61.8047 75.7138C61.8474 75.6588 61.8781 75.5955 61.8948 75.5281C61.9139 75.4329 61.9139 75.335 61.8948 75.2399C61.8773 75.1465 61.8376 75.0587 61.779 74.9837C61.7372 74.9266 61.682 74.8804 61.6182 74.8492C61.5637 74.8244 61.5045 74.8113 61.4446 74.8108H61.2966L60.5312 75.0542L60.8657 76.5655L60.6148 76.6103L59.888 75.1758H59.5857L59.4185 76.7768L59.1419 76.8217V76.6103C59.132 76.5467 59.1148 76.4843 59.0904 76.4246C59.0709 76.3824 59.0448 76.3436 59.0133 76.3093C58.9891 76.2823 58.9579 76.2624 58.9232 76.2517L58.9682 76.1749C58.9734 76.1323 58.9734 76.0893 58.9682 76.0468C58.9748 75.9893 58.9748 75.9313 58.9682 75.8739C58.955 75.7766 58.9222 75.6829 58.8718 75.5985C58.8361 75.5391 58.785 75.4905 58.7238 75.4576C58.6731 75.4262 58.616 75.4065 58.5566 75.4H58.4022L57.6047 75.5089L57.8169 77.033C57.714 77.033 57.6111 77.033 57.5017 77.0714L57.431 76.3222L56.8264 76.3862V76.6808H57.1287L57.1801 77.1355L56.7299 77.1803C56.7002 77.1865 56.6695 77.1865 56.6399 77.1803C56.6061 77.162 56.5756 77.1382 56.5498 77.1098C56.5249 77.085 56.5033 77.057 56.4855 77.0266C56.4452 76.9553 56.419 76.8771 56.4083 76.796V76.4566C56.3918 76.3785 56.3918 76.2978 56.4083 76.2197C56.4183 76.1895 56.4335 76.1613 56.4533 76.1364C56.4949 76.0685 56.5584 76.0166 56.6334 75.9892C56.6824 75.9811 56.7324 75.9811 56.7814 75.9892L57.3602 75.9315V75.6305L56.717 75.6946C56.6417 75.6987 56.5677 75.7161 56.4984 75.7458C56.4397 75.7686 56.3853 75.8011 56.3376 75.8419C56.2951 75.8722 56.26 75.9116 56.2346 75.9571C56.2062 75.997 56.1825 76.04 56.1639 76.0852C56.1265 76.1944 56.1091 76.3093 56.1124 76.4246L56.1639 76.9241C56.1809 77.0455 56.2201 77.1627 56.2797 77.2699H55.8809C55.9231 77.1595 55.9449 77.0423 55.9452 76.9241V76.367C55.9344 76.2521 55.8993 76.1408 55.8423 76.0404C55.8181 75.9958 55.7878 75.9549 55.7522 75.9187C55.7159 75.8796 55.6749 75.8452 55.63 75.8162C55.5753 75.7873 55.5169 75.7657 55.4564 75.7522C55.3838 75.742 55.3102 75.742 55.2377 75.7522H55.1605C55.0864 75.7571 55.0131 75.77 54.9418 75.7906C54.8836 75.8113 54.8292 75.8417 54.781 75.8803C54.7363 75.912 54.6971 75.951 54.6652 75.9956L54.5945 76.1172C54.5493 76.2246 54.5273 76.3403 54.5302 76.4566L54.5623 77.0138C54.5721 77.1321 54.6049 77.2473 54.6588 77.3532C54.4208 77.3532 54.1828 77.3532 53.9384 77.3532V76.1108H54.4594V75.8098H53.1151V76.1108H53.6297V77.3532C53.4496 77.3532 53.2759 77.3532 53.0958 77.3532H52.9157C52.9668 77.2444 52.9973 77.1272 53.0058 77.0074V76.4438C53.0014 76.329 52.9752 76.216 52.9286 76.1108C52.9091 76.0667 52.8831 76.0257 52.8514 75.9892C52.8195 75.9446 52.7804 75.9056 52.7356 75.8739C52.6839 75.8404 52.6276 75.8145 52.5684 75.797C52.4959 75.7863 52.4222 75.7863 52.3497 75.797H52.2725C52.2 75.7863 52.1264 75.7863 52.0539 75.797C51.9928 75.8148 51.9344 75.8407 51.8802 75.8739C51.8359 75.901 51.7967 75.9357 51.7644 75.9763C51.7302 76.0122 51.7019 76.0533 51.6808 76.098C51.6269 76.2016 51.5941 76.3148 51.5843 76.431V76.9882C51.5834 77.1071 51.6075 77.2249 51.6551 77.334H51.3528L51.4492 75.7906H51.1469L51.0955 76.5783L50.2915 76.5271L50.3429 75.7394H50.0406L49.9442 77.2763C49.5389 77.2763 49.1337 77.2059 48.7349 77.1611L48.78 76.7192L49.2817 76.7704C49.3308 76.7769 49.3805 76.7769 49.4296 76.7704C49.489 76.7639 49.5461 76.7442 49.5968 76.7128C49.6547 76.6752 49.7032 76.6248 49.7383 76.5655C49.7879 76.484 49.8166 76.3916 49.822 76.2965C49.843 76.2038 49.843 76.1075 49.822 76.0148C49.8003 75.9472 49.7628 75.8858 49.7126 75.8355C49.6665 75.7972 49.6143 75.7669 49.5582 75.7458L49.4103 75.7074L48.6127 75.6241L48.4455 77.1547C47.6672 77.0586 46.8954 76.9433 46.13 76.8024L46.2072 76.367L46.7796 76.463L46.8311 76.1685L46.2586 76.066L46.3422 75.5921L47.3263 75.7586L47.3778 75.4576L46.0914 75.2335L45.8277 76.7512L45.519 76.6936L45.847 75.1887L45.5383 75.1182L45.2488 76.399L44.7535 74.9325L44.4577 74.8685L44.1296 76.3606L43.4028 76.1941L43.5572 75.6049L44.3419 74.8364L44.0332 74.7532L43.48 75.3039L43.2678 74.5547L42.9655 74.4714L43.2613 75.5281L43.107 76.1108L41.872 75.7586L42.3094 74.2729L42.02 74.1896L41.544 75.5665C41.1388 75.4384 40.74 75.2975 40.3412 75.163L40.4827 74.7404L41.0359 74.9325L41.1388 74.6443L40.5856 74.4586L40.74 73.9975L41.6855 74.3177L41.7884 74.0231L40.5535 73.6453L40.0518 75.099L39.0998 74.7404L39.0548 74.6891C39.0372 74.6584 39.0221 74.6263 39.0098 74.5931C39.0043 74.5592 39.0043 74.5246 39.0098 74.4906C39.0046 74.4082 39.0156 74.3256 39.0419 74.2473L39.1706 73.9271C39.2003 73.8536 39.2465 73.7879 39.3057 73.735C39.3254 73.7089 39.3522 73.6889 39.3828 73.6773L39.4857 73.6325C39.5262 73.6259 39.5675 73.6259 39.608 73.6325C39.6596 73.634 39.7101 73.6471 39.7559 73.6709L40.2962 73.8758L40.4055 73.5941L39.7623 73.3571C39.6936 73.3257 39.6192 73.3083 39.5436 73.3059C39.484 73.2962 39.4232 73.2962 39.3635 73.3059C39.3115 73.3173 39.2616 73.3367 39.2156 73.3635C39.1746 73.3903 39.1359 73.4202 39.0998 73.4532C39.0144 73.5297 38.9464 73.6236 38.9004 73.7286L38.7203 74.2025C38.6785 74.3172 38.661 74.4393 38.6689 74.5611L38.2894 74.4138C38.3755 74.3348 38.4473 74.2416 38.5017 74.1384L38.7268 73.6197C38.7704 73.512 38.7901 73.3962 38.7847 73.2803C38.7872 73.2334 38.7872 73.1863 38.7847 73.1394C38.7523 73.0877 38.7109 73.0421 38.6625 73.0049C38.6296 72.9555 38.5907 72.9103 38.5467 72.8704C38.489 72.8219 38.4239 72.783 38.3537 72.7552H38.283C38.2165 72.7217 38.1447 72.7001 38.0707 72.6911H37.8842L37.7362 72.7423C37.6921 72.7648 37.6511 72.7928 37.614 72.8256C37.5266 72.9009 37.4545 72.9922 37.4018 73.0946L37.1767 73.6069C37.1342 73.7151 37.1124 73.8302 37.1123 73.9463L36.8229 73.8118C36.8517 73.7792 36.8756 73.7425 36.8937 73.7029L37.5369 72.4222L37.2667 72.2877L36.6235 73.5685V73.6069C36.6085 73.6266 36.5885 73.6421 36.5656 73.6517H36.5142L36.2183 73.5108C36.2139 73.4875 36.2139 73.4637 36.2183 73.4404C36.206 73.4051 36.206 73.3668 36.2183 73.3315L35.9417 73.2034C35.9218 73.242 35.9067 73.2829 35.8967 73.3251C35.5558 73.1522 35.2085 72.9857 34.874 72.8L35.0798 72.4093L35.5944 72.6783L35.7359 72.4158L35.2213 72.1404L35.4465 71.7113L36.3341 72.1788L36.4756 71.9034L35.3243 71.3015L34.6039 72.6591L34.3402 72.5054C34.3914 72.4593 34.4348 72.4052 34.4688 72.3453C34.5182 72.261 34.5489 72.1671 34.5588 72.0699C34.5757 72.0048 34.5757 71.9365 34.5588 71.8714C34.5358 71.8172 34.5006 71.769 34.4559 71.7305C34.4189 71.6959 34.3779 71.6659 34.3337 71.6409L34.0764 71.4872C34.048 71.4639 34.024 71.4357 34.0057 71.4039C34.0012 71.3721 34.0012 71.3397 34.0057 71.3079C34.0077 71.2597 34.0233 71.2131 34.0507 71.1734C34.0829 71.1222 34.1086 71.0837 34.1472 71.0709C34.1788 71.0622 34.2121 71.0622 34.2437 71.0709C34.2773 71.0613 34.313 71.0613 34.3466 71.0709L34.7647 71.3079L34.9769 71.4295L35.1313 71.1734L34.4881 70.7956L34.3466 70.7379C34.2899 70.7214 34.2296 70.7214 34.1729 70.7379C34.1042 70.7469 34.0383 70.771 33.98 70.8084C33.9021 70.866 33.8383 70.9404 33.7934 71.0261C33.7416 71.1098 33.7087 71.2038 33.697 71.3015C33.6831 71.3691 33.6831 71.4388 33.697 71.5064C33.7182 71.5634 33.7536 71.6141 33.7999 71.6537C33.8357 71.6915 33.8768 71.7238 33.9221 71.7497L34.1794 71.897C34.2092 71.9161 34.2336 71.9426 34.2501 71.9739C34.2604 72.0051 34.2604 72.0387 34.2501 72.0699C34.2535 72.1179 34.2398 72.1655 34.2115 72.2044C34.1879 72.2457 34.1549 72.2808 34.115 72.3069H34.025C33.5812 72.0507 33.1374 71.7946 32.7 71.5192L33.0152 71.0261L33.9993 70.5202L33.7291 70.3537L33.0345 70.7123V69.931L32.7708 69.7645L32.7322 70.8596L32.4234 71.3591C32.0568 71.1286 31.6966 70.898 31.3429 70.6547L32.2047 69.3739L31.9539 69.2074L31.092 70.4882C30.7447 70.2512 30.3974 70.0079 30.0629 69.7581L30.3266 69.3995L30.7961 69.7453L30.9762 69.502L30.5067 69.1561L30.7897 68.7655L31.6001 69.3547L31.7802 69.1049L30.7318 68.3364L29.8249 69.5724C24.3344 65.4243 20.0574 59.8902 17.4369 53.5433L20.6529 26.2562H19.0835L16.5107 47.6133H16.4528L14.8062 34.6517C15.6466 27.3059 18.6029 20.3589 23.3189 14.648C28.0348 8.93706 34.3091 4.70607 41.3854 2.46498C48.4618 0.223888 56.0381 0.0683511 63.2012 2.01712C70.3643 3.96589 76.8084 7.93578 81.7568 13.4483V52.8517H84.0852V16.2532C87.927 21.4262 90.3939 27.4817 91.2568 33.8576L89.5845 47.5813H89.533L86.8316 26.2562H85.1593L88.8834 52.8837L88.8384 53.268C86.2045 59.763 81.8442 65.4216 76.2253 69.6364L76.2188 69.6621ZM48.7993 76.3478V76.2069L48.8379 75.8675L49.3138 75.9187C49.3503 75.9247 49.3853 75.9377 49.4167 75.9571C49.4429 75.9768 49.463 76.0034 49.4746 76.034C49.4886 76.0799 49.4886 76.1289 49.4746 76.1749C49.4726 76.223 49.457 76.2696 49.4296 76.3093C49.4072 76.3344 49.3812 76.356 49.3524 76.3734C49.3184 76.38 49.2835 76.38 49.2495 76.3734L48.7993 76.3478Z" fill="#751F26"/>
<path d="M73.5712 70.5573L73.317 70.7201L73.4805 70.9732L73.7347 70.8105L73.5712 70.5573Z" fill="#751F26"/>
<path d="M3.79462 26.0642H3.20288C2.78887 26.0733 2.38103 26.166 2.00404 26.3366C1.62705 26.5072 1.28873 26.7522 1.00957 27.0568C0.655774 27.455 0.385358 27.9196 0.214168 28.4232C0.0429777 28.9269 -0.0255447 29.4594 0.0126147 29.9898V49.0863C-0.0301603 49.6209 0.0361098 50.1586 0.207439 50.6671C0.378768 51.1755 0.651616 51.6442 1.00957 52.0449C1.50036 52.6069 2.19342 52.9543 2.93917 53.0119H3.79462C4.19367 53.0011 4.58637 52.9099 4.94899 52.7437C5.3116 52.5775 5.63659 52.3398 5.90431 52.0449C6.25401 51.6398 6.51983 51.1699 6.68651 50.6621C6.85319 50.1544 6.91743 49.6189 6.87555 49.0863V41.7666H6.11657V49.0863C6.18918 49.9754 5.92023 50.8589 5.36403 51.5582C5.1651 51.7992 4.91733 51.9956 4.63691 52.1347C4.35649 52.2737 4.04974 52.3522 3.73674 52.3651H2.98419C2.69819 52.3378 2.42093 52.252 2.16972 52.1132C1.91851 51.9743 1.69874 51.7854 1.52413 51.5582C0.965636 50.8598 0.694359 49.9763 0.765157 49.0863V39.4804H6.87555V29.9898C6.91743 29.4572 6.85319 28.9217 6.68651 28.414C6.51983 27.9062 6.25401 27.4363 5.90431 27.0312C5.63659 26.7363 5.3116 26.4986 4.94899 26.3324C4.58637 26.1662 4.19367 26.075 3.79462 26.0642ZM6.11657 38.9169H0.765157V29.9898C0.696577 29.1017 0.978032 28.222 1.54986 27.5371C1.76427 27.285 2.0299 27.0811 2.32924 26.9387C2.62858 26.7963 2.95484 26.7187 3.2865 26.711H3.73674C4.05124 26.7262 4.35892 26.8077 4.63943 26.9501C4.91995 27.0925 5.16692 27.2926 5.36403 27.5371C5.92139 28.2358 6.19048 29.1197 6.11657 30.009V38.9169Z" fill="#751F26"/>
<path d="M10.8184 15.2478H9.46771V52.8518H10.8184V15.2478Z" fill="#751F26"/>
<path d="M27.1878 39.3521C26.4408 38.5729 25.7365 37.7541 25.0781 36.8994C24.4192 36.0259 24.0769 34.9559 24.1068 33.8639V30.662C24.0613 29.9569 24.2513 29.2567 24.6471 28.6703C24.7766 28.4693 24.9518 28.3014 25.1585 28.1801C25.3652 28.0589 25.5976 27.9877 25.837 27.9723H26.1586C26.4032 27.9805 26.642 28.0484 26.854 28.1702C27.066 28.2919 27.2447 28.4636 27.3743 28.6703C27.7542 29.2628 27.9344 29.9605 27.8888 30.662V36.6881H30.05V30.6363C30.0949 30.0183 30.0157 29.3976 29.8169 28.8104C29.6181 28.2233 29.3038 27.6814 28.8922 27.2166C28.5394 26.8494 28.1149 26.5577 27.6449 26.3595C27.1748 26.1613 26.6691 26.0607 26.1586 26.0639H25.6762C25.1637 26.0606 24.6563 26.1644 24.1865 26.3684C23.7168 26.5725 23.2952 26.8724 22.9491 27.2487C22.5386 27.7079 22.2241 28.2441 22.0243 28.8257C21.8244 29.4074 21.743 30.023 21.7849 30.6363V34.024C21.7463 35.2147 22.0764 36.3885 22.7304 37.3861C23.356 38.2987 24.0597 39.1558 24.8336 39.9477C25.5829 40.7047 26.2873 41.5044 26.9433 42.3427C27.5789 43.1656 27.9126 44.1803 27.8888 45.2181V48.4201C27.9362 49.1137 27.7556 49.8037 27.3743 50.3861C27.2497 50.5824 27.0794 50.746 26.8779 50.8631C26.6764 50.9801 26.4495 51.0471 26.2165 51.0585H25.7277C25.4755 51.0538 25.2279 50.9906 25.0046 50.8738C24.7813 50.7571 24.5884 50.5901 24.4413 50.3861C24.0356 49.8199 23.8339 49.1339 23.8688 48.4393V42.3619H21.7849V48.4393C21.7361 49.0601 21.8141 49.6842 22.0142 50.2742C22.2143 50.8641 22.5323 51.4076 22.9491 51.8718C23.2992 52.2413 23.7221 52.5349 24.1913 52.7343C24.6606 52.9338 25.1661 53.0347 25.6762 53.0309H26.4867C26.9795 53.0267 27.4662 52.9216 27.9165 52.7222C28.3669 52.5228 28.7712 52.2333 29.1045 51.8718C29.5257 51.4093 29.8489 50.8669 30.0544 50.2771C30.26 49.6872 30.3438 49.0622 30.3008 48.4393V45.0516C30.3335 43.9078 29.9927 42.7843 29.3296 41.8496C28.669 40.9732 27.9536 40.139 27.1878 39.3521Z" fill="#751F26"/>
<path d="M53.6297 26.064H52.7164C52.1037 26.0435 51.4937 26.1554 50.9286 26.392C50.3634 26.6286 49.8565 26.9842 49.4425 27.4345C48.5454 28.4913 48.0754 29.8427 48.124 31.2256V47.8759C48.041 49.2581 48.5025 50.618 49.4103 51.667C49.8306 52.1162 50.3424 52.4709 50.9114 52.7072C51.4805 52.9436 52.0937 53.0562 52.71 53.0374H53.6233C54.2432 53.0545 54.8597 52.9412 55.4327 52.7051C56.0057 52.469 56.5222 52.1153 56.9486 51.667C57.8771 50.6278 58.3536 49.2644 58.2736 47.8759V31.2256C58.3536 29.8371 57.8771 28.4736 56.9486 27.4345C56.5229 26.987 56.0074 26.6338 55.4356 26.3977C54.8638 26.1616 54.2485 26.0479 53.6297 26.064ZM54.3373 47.7414C54.3373 49.067 54.0092 49.733 53.3596 49.733H53.1473C52.4269 49.733 52.0668 49.0926 52.0668 47.7414V31.3345C52.0668 30.0089 52.4269 29.3429 53.1473 29.3429H53.3596C54.0028 29.3429 54.3373 29.9833 54.3373 31.3345V47.7414Z" fill="#751F26"/>
<path d="M99.6377 26.0642H99.419C98.8484 26.0903 98.3009 26.2966 97.856 26.6533C97.2893 27.0785 96.8109 27.6092 96.4474 28.2159L96.5053 26.2243H95.1482V52.8519H96.5053V30.4765C96.5356 29.5962 96.8644 28.752 97.438 28.0814C97.6188 27.8224 97.8527 27.6046 98.1244 27.4423C98.396 27.28 98.6992 27.177 99.0138 27.14H99.1746C99.4634 27.1524 99.7463 27.2256 100.005 27.3547C100.263 27.4839 100.491 27.6661 100.673 27.8893C101.185 28.55 101.432 29.3759 101.368 30.2075V52.8519H102.609V30.2075C102.685 29.1125 102.391 28.0237 101.773 27.1144C101.527 26.7829 101.204 26.5147 100.833 26.3321C100.462 26.1494 100.052 26.0576 99.6377 26.0642Z" fill="#751F26"/>
<path d="M111.987 39.4548V29.9898C112.029 29.4572 111.965 28.9217 111.798 28.414C111.631 27.9062 111.365 27.4363 111.016 27.0312C110.749 26.7358 110.424 26.4977 110.061 26.3314C109.698 26.1651 109.305 26.0742 108.906 26.0642H108.314C107.9 26.0733 107.493 26.166 107.116 26.3366C106.739 26.5072 106.4 26.7522 106.121 27.0568C105.767 27.455 105.497 27.9196 105.326 28.4232C105.154 28.9269 105.086 29.4594 105.124 29.9898V49.0863C105.081 49.6209 105.148 50.1586 105.319 50.6671C105.49 51.1755 105.763 51.6442 106.121 52.0449C106.612 52.6069 107.305 52.9543 108.051 53.0119H108.913C109.312 53.0019 109.705 52.9109 110.067 52.7447C110.43 52.5784 110.755 52.3403 111.022 52.0449C111.371 51.6393 111.635 51.1692 111.801 50.6614C111.967 50.1537 112.03 49.6184 111.987 49.0863V41.7666H111.228V49.0863C111.301 49.9754 111.032 50.8589 110.476 51.5582C110.277 51.7984 110.031 51.9944 109.751 52.1334C109.472 52.2724 109.167 52.3514 108.855 52.3651H108.064C107.778 52.337 107.501 52.2509 107.25 52.1121C106.999 51.9734 106.779 51.7849 106.603 51.5582C106.047 50.8589 105.778 49.9754 105.851 49.0863V39.4804L111.987 39.4548ZM105.883 29.9898C105.804 29.1069 106.071 28.2278 106.629 27.5371C106.842 27.2928 107.103 27.095 107.397 26.9561C107.69 26.8172 108.009 26.7403 108.334 26.7302H108.822C109.134 26.7439 109.44 26.8229 109.719 26.9619C109.998 27.1009 110.245 27.2969 110.443 27.5371C111.001 28.2358 111.27 29.1197 111.196 30.009V38.9169H105.851L105.883 29.9898Z" fill="#751F26"/>
<path d="M75.6463 26.0639H74.8359C74.2866 26.0587 73.7426 26.1702 73.2401 26.3911C72.7377 26.612 72.2883 26.9371 71.9222 27.3447C71.08 28.3197 70.6531 29.5834 70.7323 30.8669C69.3596 27.9529 67.2831 25.4229 64.6885 23.503C62.0938 21.5832 59.0618 20.3333 55.8635 19.8652C52.6652 19.3971 49.4002 19.7252 46.3604 20.8203C43.3206 21.9154 40.6006 23.7434 38.4437 26.1408L38.3665 26.2304L38.1221 26.525L37.7297 26.9989L37.3695 27.4472C37.1701 27.7226 36.9708 27.9979 36.7778 28.2797L36.6942 28.395L36.5398 28.6255C35.9753 29.5015 35.4848 30.4225 35.0733 31.3792V31.3216L34.7646 32.1157C34.7414 32.1676 34.7221 32.2211 34.7067 32.2758C34.6424 32.4423 34.5781 32.6088 34.5202 32.7753C34.4623 32.9418 34.4366 33.0186 34.398 33.1339C34.3594 33.2492 34.2886 33.4861 34.2307 33.6654C34.1728 33.8447 34.16 33.9088 34.1278 34.0304L33.9927 34.5492C33.9606 34.6837 33.9284 34.8117 33.9027 34.9462C33.877 35.0807 33.8255 35.2792 33.7934 35.4521C33.7612 35.625 33.7419 35.7403 33.7162 35.8812C33.6904 36.0221 33.6583 36.2014 33.6326 36.3679L33.5747 36.8354C33.5747 36.9891 33.5361 37.1428 33.5232 37.2965C33.5103 37.4502 33.5232 37.6423 33.4846 37.8152C33.446 37.9881 33.4846 38.1034 33.4525 38.2442C33.4203 38.3851 33.4525 38.6925 33.4525 38.9167C33.4525 39.0063 33.4525 39.096 33.4525 39.1856C33.4525 39.2753 33.4525 39.3649 33.4525 39.4546C33.4525 39.6851 33.4525 39.9093 33.4525 40.1334C33.4525 40.3575 33.4525 40.4216 33.4846 40.5625C33.5168 40.7034 33.4846 40.9083 33.5232 41.0748C33.5618 41.2413 33.5554 41.3886 33.5747 41.5423L33.6326 42.0098C33.6326 42.1699 33.684 42.33 33.7162 42.4965C33.7483 42.663 33.7612 42.7846 33.7934 42.9255C33.8255 43.0664 33.8641 43.2649 33.9027 43.4314C33.9413 43.5979 33.9606 43.694 33.9927 43.8285L34.1278 44.3472C34.1278 44.4689 34.1986 44.5905 34.2307 44.7122L34.398 45.2437L34.5202 45.596C34.5781 45.7689 34.6424 45.9354 34.7067 46.1019C34.7231 46.1562 34.7425 46.2097 34.7646 46.262L35.0733 47.0561V46.9984C35.6126 48.2199 36.2765 49.3829 37.0544 50.4694L37.1573 50.6167C37.1972 50.6608 37.2338 50.7079 37.2666 50.7575C37.4596 51.0137 37.6525 51.2634 37.8584 51.5068L38.2121 51.9231C38.3601 52.096 38.508 52.2625 38.6624 52.429C38.7267 52.493 38.7846 52.5634 38.8425 52.6275L38.9325 52.7171C41.1338 54.9908 43.8573 56.6975 46.8684 57.6902C49.8794 58.683 53.0877 58.932 56.2169 58.4159C59.3461 57.8998 62.3023 56.634 64.831 54.7276C67.3596 52.8212 69.3849 50.3312 70.7323 47.4723V48.2216C70.6431 49.5161 71.0707 50.7934 71.9222 51.7758C72.2686 52.1638 72.6935 52.4745 73.1691 52.6875C73.6446 52.9006 74.16 53.011 74.6815 53.0117H75.6527C76.1943 53.019 76.7313 52.9127 77.2288 52.6998C77.7264 52.4868 78.1734 52.172 78.5407 51.7758C79.3897 50.792 79.817 49.5158 79.7306 48.2216V41.7664H76.8684V48.2216C76.916 48.8624 76.7632 49.5022 76.431 50.0531C76.3235 50.229 76.1737 50.3755 75.9952 50.4794C75.8167 50.5834 75.615 50.6416 75.4083 50.6487H74.9774C74.7778 50.6371 74.5842 50.5767 74.4136 50.4728C74.2431 50.3689 74.1009 50.2248 73.9997 50.0531C73.6702 49.5013 73.5197 48.8617 73.5688 48.2216V40.159H79.7306V30.8477C79.8159 29.5556 79.3887 28.2817 78.5407 27.2999C78.1726 26.9029 77.7246 26.5876 77.2259 26.3746C76.7272 26.1616 76.1889 26.0558 75.6463 26.0639ZM35.0733 32.1925C35.56 30.9583 36.1743 29.7779 36.9064 28.6704C37.0573 28.6993 37.2007 28.7585 37.3279 28.8443C37.455 28.9302 37.5633 29.041 37.6461 29.1699C37.9425 29.698 38.0724 30.3027 38.0192 30.9053V38.0073H35.0733V32.1925ZM53.0121 58.3462C50.7504 58.3511 48.5056 57.9587 46.3808 57.1871C46.3808 57.0526 46.3808 56.9181 46.3808 56.7772V26.2561H43.0168V55.5861C41.6203 54.7284 40.3406 53.6953 39.2091 52.5122C39.4969 52.3301 39.7624 52.1152 40.0002 51.8718C40.8715 50.863 41.3144 49.5562 41.2352 48.228V41.6255H38.0192V48.228C38.0687 48.8263 37.9388 49.4258 37.6461 49.9506C37.5555 50.0709 37.4471 50.1767 37.3245 50.2644C36.4033 48.9846 35.647 47.5948 35.0733 46.1275V40.3447H41.2352V30.8477C41.3178 29.5152 40.8747 28.2032 40.0002 27.191C39.644 26.8157 39.2209 26.5095 38.7524 26.2881C39.9982 24.9215 41.4343 23.7397 43.0168 22.7787V24.1812H46.4193V21.1329C50.0954 19.8006 54.0918 19.6145 57.8766 20.5995C61.6615 21.5845 65.0553 23.6938 67.6063 26.6467C66.9404 26.2558 66.1796 26.0542 65.4066 26.0639H64.5383C63.9551 26.0469 63.3749 26.1521 62.8353 26.3728C62.2957 26.5934 61.8087 26.9246 61.4059 27.3447C60.5183 28.3725 60.0724 29.7067 60.1645 31.059V48.0295C60.0891 49.3777 60.5515 50.7011 61.4509 51.7117C61.8241 52.1188 62.278 52.4445 62.7839 52.6682C63.2898 52.892 63.8368 53.0089 64.3903 53.0117H65.368C65.7368 53.0083 66.1039 52.961 66.4614 52.8708C62.8715 56.3791 58.0424 58.3451 53.0121 58.3462ZM69.7353 48.6955C69.7353 48.4713 69.7739 48.2536 69.7739 48.0102V41.7664H66.3714V47.9526C66.4201 48.5404 66.2973 49.1297 66.0176 49.6497C65.9266 49.804 65.7971 49.9323 65.6415 50.0221C65.486 50.1119 65.3098 50.1601 65.13 50.162H64.7505C64.5841 50.1475 64.4236 50.0934 64.2825 50.0043C64.1415 49.9151 64.024 49.7935 63.9401 49.6497C63.6439 49.1353 63.5115 48.5435 63.5606 47.9526V31.1167C63.5192 30.5365 63.6513 29.9572 63.9401 29.4516C64.035 29.2916 64.1692 29.1583 64.3301 29.0642C64.491 28.9701 64.6733 28.9183 64.8599 28.9137H65.13C65.3126 28.9169 65.491 28.9684 65.647 29.0629C65.803 29.1575 65.9309 29.2916 66.0176 29.4516C66.2902 29.9625 66.4128 30.5396 66.3714 31.1167V37.2004H69.7739V31.0142C69.779 30.4714 69.7207 29.9298 69.6002 29.4004C71.333 32.3139 72.2569 35.6336 72.2772 39.0195C72.2976 42.4055 71.4137 45.7359 69.716 48.6699L69.7353 48.6955ZM76.8941 38.1674H73.5945V30.9053C73.5394 30.2631 73.6952 29.6204 74.0383 29.0738C74.1515 28.8979 74.3063 28.7523 74.489 28.6496C74.6718 28.5469 74.877 28.4903 75.0867 28.4846H75.4147C75.6201 28.4943 75.8201 28.5529 75.998 28.6554C76.176 28.7579 76.3267 28.9014 76.4374 29.0738C76.7688 29.625 76.9216 30.2646 76.8748 30.9053L76.8941 38.1674Z" fill="#751F26"/>
</svg>
