<svg width="154" height="35" viewBox="0 0 154 35" fill="none" xmlns="http://www.w3.org/2000/svg">
<path d="M145.524 1.04418V1.33844H145.911C149.601 1.48549 150.261 4.29536 150.356 5.66934V24.0255L137.724 1H131.788V1.00276H128.02V1.04401H128.014V1.33827H131.543V34.0642H128V34.3643L137.101 34.3616V34.0674H136.178C132.154 33.9202 131.892 29.7599 131.837 28.63V1.36174L150.636 35L150.647 34.6938V1.33827H154V1.04401L145.524 1.04418Z" fill="#751F26"/>
<path d="M107.703 4.9575C110.077 1.68287 113.223 2.11912e-10 115.945 2.11912e-10C122.272 2.11912e-10 128 7.90852 128 17.547C128 26.7178 122.62 35 116.017 35C110.186 35 104 28.0772 104 17.5001C104 15.2993 104.489 9.4062 107.703 4.9575ZM120.907 3.88367C120.384 2.57151 119.3 0.256116 115.985 0.256116C113.431 0.256116 112.033 1.68321 111.161 3.69556C109.453 7.67328 109.182 15.8643 109.182 17.5472C109.182 21.7104 109.797 27.6565 111.058 31.0723C112.245 34.2087 114.736 34.7706 115.994 34.7706C118.511 34.7706 120.035 33.1761 121.085 30.8369C122.097 28.5891 122.818 24.5202 122.818 17.3118C122.818 10.8566 121.888 6.26984 120.907 3.88367Z" fill="#751F26"/>
<path d="M91 1V1.17469H91.0061V1.29143H94.615V33.7114L91 33.7144V34H103.988V33.7086L100.278 33.7114V1.29143H104V1H91Z" fill="#751F26"/>
<path d="M77.3721 1V1.17776H77.3809V1.28835H80.9702V16.942H71.1218V1.28835H74.7169V1.18067H74.7204V1H62L62.0024 1.28835H65.6387V33.7057L62.0024 33.7086V33.8165H62V33.9971H62.0024V34L74.7204 33.9971V33.7057H71.1218V17.2334H80.9702V33.7057L77.375 33.7086L77.378 33.9971V34L90 33.9971L89.9971 33.7057H86.4533V1.28835H89.9741V1H77.3721Z" fill="#751F26"/>
<path d="M45.0285 6.00705C44.9435 7.92744 45.9092 10.6683 47.3712 11.6968C49.7613 13.3824 52.5794 14.4287 55.1859 15.5792C57.7726 16.7237 60.6878 18.1298 61.6386 21.4293C61.894 22.3033 62 23.2933 62 24.2119C62 29.8363 57.3997 35 52.3912 35C51.2612 35 50.1337 34.7948 49.0564 34.4054C48.0289 34.0397 47.0983 33.4273 46.1353 32.8894C45.3896 32.4731 44.3621 32.0776 43.6694 32.8447C43.27 33.2848 43.2261 33.787 43.1496 34.3696H43V22.7672H43.1584C44.0156 29.6044 47.9875 34.7351 52.2618 34.7351C55.638 34.7351 59.0256 32.4432 59.0256 28.1627C59.0256 26.9974 58.8145 25.8261 58.1947 24.8719C56.8417 22.7761 54.6164 21.7328 52.6113 20.6745C50.163 19.3813 47.5238 18.65 45.4541 16.572C42.6799 13.7807 42.4128 8.76271 44.0831 5.15681C44.5293 4.19669 45.1078 3.31069 45.7976 2.56471C46.4875 1.82152 47.2655 1.15854 48.1491 0.745448C49.1649 0.263821 50.2626 0.0587516 51.3578 0.0170784C51.6689 0.00521718 51.9273 -0.00960307 52.2324 0.00835766C53.1748 0.0678201 53.6567 0.148036 54.5955 0.374025C55.394 0.567409 56.3394 0.926795 57.1498 1.29857C57.5431 1.47991 57.7751 1.60181 58.3182 1.70573C59.387 1.83059 59.5771 0.823043 59.6598 0.403842H59.8534V9.65778H59.6598C59.3019 3.88473 56.0959 1.33135 54.2491 0.626871C53.3246 0.276201 52.2558 0.198778 51.2781 0.261204C51.2025 0.266956 45.2724 0.436102 45.0285 6.00705Z" fill="#751F26"/>
<path d="M42.9184 33.8238V33.7064H40.7081L29.15 2.11912e-10H29.1062L26.9545 6.31595H26.9514L17.5892 33.7062H14V34H23.7752V33.7062H22.7651C18.9416 33.4095 19.4336 29.5203 19.7147 28.389V28.3918L21.8577 22.1112H31.8464L35.7459 33.706H32.0248V33.8234H32.0162L32.0103 33.9996H42.9972L43 33.8234L42.9184 33.8238ZM21.9602 21.8206L26.8841 7.41465L31.7409 21.8206H21.9602Z" fill="#751F26"/>
<path d="M0 1.00017V1.27998H3.69811V33.7086H0V34H12.6498V33.7086H9.02879V17.4257H10.01C15.708 17.583 15.2059 22.9243 15.2863 24.4511H15.5129V10.2255H15.3263C15.0853 13.2764 15.114 16.9275 10.0043 17.1225L9.02879 17.1254V1.2798H13.5075C20.3874 1.2798 20.9727 5.6331 21.848 10.036H22V1L0 1.00017Z" fill="#751F26"/>
</svg>
