<svg width="61" height="34" viewBox="0 0 61 34" fill="none" xmlns="http://www.w3.org/2000/svg">
<path d="M49.1915 33.9534L44.2146 33.985L42.2283 19.0573L41.3888 19.0092L41.3827 33.9835L36.607 33.9744V0.0300779L42.5974 0.0691791C45.1857 0.0857219 47.2658 1.71143 48.0948 4.17781C49.3019 7.7646 49.6196 14.881 46.3188 17.5234L49.19 33.9534H49.1915ZM41.3857 4.12367V14.8254C42.5127 15.087 43.4416 14.3456 43.7093 13.2252C44.1858 11.2281 44.806 3.5928 41.3857 4.12367ZM30.2474 26.3557L27.4397 26.3587L26.8255 33.985L22.1345 33.9744L25.5125 0.0315817L32.1746 0.028574L35.5571 33.9729L30.8721 33.994L30.2489 26.3572L30.2474 26.3557ZM29.9887 22.1809L29.0689 8.23231L28.9252 4.94781C28.4487 5.46214 28.7649 6.01707 28.7286 6.58254L27.7044 22.217L29.9902 22.1809H29.9887ZM60.1075 14.9216L55.2228 14.893L55.2198 4.07856L60.9667 4.0575L60.9501 0L50.4335 0.0255662L50.4395 34L61 33.9789L60.9773 29.9169L55.2183 29.9109L55.2228 19.0092L60.1045 18.9881L60.1075 14.9201V14.9216ZM4.77725 14.8976L4.78179 4.07404L10.5681 4.06051L10.562 0.0210545L0 0.0165428V33.9789L4.77574 33.982L4.78179 19.0017L9.6725 18.9881L9.65889 14.9171L4.77574 14.8961L4.77725 14.8976ZM16.551 29.8959V0.0451168L11.7828 0.0165428V33.994L21.0711 33.988L21.4492 29.9395L16.5495 29.8974L16.551 29.8959Z" fill="#751F26"/>
</svg>
