<svg width="76" height="25" viewBox="0 0 76 25" fill="none" xmlns="http://www.w3.org/2000/svg">
<path d="M0 0.478811H6.22197V8.88047H8.70032V0.478811H14.6634V23.963H8.70032V14.9859H6.22197V23.9639H0V0.477964V0.478811ZM16.816 0.478811H27.6456V5.98429H22.5469V8.88089H27.2489V14.6775H22.5469V17.8131H27.6456V23.9656H16.8164L16.816 0.478811ZM29.3059 0.478811H35.269V18.0499H39.1943V23.9626H29.3059V0.478388V0.478811ZM40.9527 0.478811H47.1509V18.0499H51.0331V23.9626H40.9527V0.478388V0.478811ZM75.3803 0.478811H69.3925V16.0393H75.3803V0.478388V0.478811ZM72.5027 24.9956C71.5413 24.9857 70.6217 24.5951 69.94 23.9071C69.2631 23.2238 68.8811 22.2959 68.8777 21.327C68.8644 20.8584 68.945 20.392 69.1144 19.9558C69.2841 19.5184 69.5389 19.1201 69.8636 18.7847C70.1895 18.4477 70.5783 18.18 71.0073 17.9974C71.4376 17.814 71.8995 17.719 72.3661 17.7177C72.8492 17.6986 73.3309 17.7805 73.7813 17.9584C74.2305 18.1356 74.6387 18.4053 74.9802 18.7503C75.3203 19.0928 75.5857 19.5039 75.7593 19.957C75.933 20.4102 76.011 20.8952 75.9883 21.3808C76.0281 21.8557 75.9663 22.3337 75.807 22.7821C75.6471 23.2317 75.3937 23.6411 75.0641 23.9825C74.7331 24.3255 74.3338 24.5931 73.8928 24.7673C73.4505 24.9421 72.9768 25.02 72.5027 24.9956ZM59.8278 24.3219C58.4994 24.3508 57.1817 24.0753 55.9727 23.516C55.0561 23.0721 54.2548 22.4165 53.633 21.6016C52.7255 20.3998 52.2096 18.941 52.1568 17.4279V6.39192C52.1895 5.10816 52.5933 3.86246 53.3181 2.80973C54.6197 0.945335 56.81 0 59.8278 0C64.8004 0 67.4291 2.27626 67.4291 6.58344C67.4291 8.37708 67.4533 16.4457 67.5001 17.3787C67.4518 18.3412 67.215 19.2843 66.8035 20.1529C66.3906 21.0245 65.8117 21.8044 65.1002 22.4478C64.3858 23.0936 63.5534 23.591 62.6503 23.9118C61.7447 24.2335 60.786 24.3729 59.8278 24.3219ZM59.8061 5.69743C59.6487 5.68549 59.4906 5.70736 59.3421 5.76161C59.1936 5.81586 59.058 5.90126 58.9442 6.01226C58.8319 6.12296 58.7441 6.25675 58.6869 6.40466C58.6296 6.55257 58.6042 6.71118 58.6122 6.86988V16.541C58.5993 16.7091 58.6223 16.8781 58.6796 17.0364C58.737 17.1946 58.8274 17.3385 58.9446 17.458C59.0629 17.5782 59.2049 17.6717 59.3613 17.7323C59.5176 17.7929 59.6849 17.8193 59.852 17.8097C60.174 17.7915 60.4772 17.6499 60.7002 17.4135C60.9215 17.1784 61.0449 16.8657 61.0447 16.5406C61.0447 16.1474 61.0325 13.9016 61.0217 11.7283V11.686C61.0108 9.5114 60.9987 7.26226 60.9987 6.87327C60.9987 6.71679 60.9676 6.56192 60.9073 6.41791C60.8469 6.2739 60.7586 6.14372 60.6475 6.03514C60.5361 5.92543 60.4044 5.83912 60.26 5.78117C60.1156 5.72322 59.9614 5.69476 59.8061 5.69743Z" fill="#751F26"/>
</svg>
