<svg width="63" height="62" viewBox="0 0 63 62" fill="none" xmlns="http://www.w3.org/2000/svg">
<path d="M14.3013 18.5903C12.8546 18.5903 11.6684 19.9714 11.6684 21.673C11.6684 23.3746 12.8463 24.7556 14.3013 24.7556H52.3009V30.8263C52.3009 31.6439 52.6275 32.428 53.2089 33.0061C53.7902 33.5842 54.5787 33.909 55.4009 33.909C56.2231 33.909 57.0116 33.5842 57.5929 33.0061C58.1743 32.428 58.5009 31.6439 58.5009 30.8263V12.5792C58.5009 11.7616 58.1743 10.9776 57.5929 10.3995C57.0116 9.82135 56.2231 9.49657 55.4009 9.49657C54.5787 9.49657 53.7902 9.82135 53.2089 10.3995C52.6275 10.9776 52.3009 11.7616 52.3009 12.5792V18.5903H14.3013Z" fill="#751F26"/>
<path d="M3.09999 43.2781H59.9C60.7222 43.2781 61.5107 42.9534 62.092 42.3752C62.6734 41.7971 63 41.0131 63 40.1955C63 39.3779 62.6734 38.5939 62.092 38.0157C61.5107 37.4376 60.7222 37.1129 59.9 37.1129H34.5587V33.8679H48.4383C49.885 33.8679 51.0609 32.5485 51.0609 30.9209V30.8407C51.0609 29.2131 49.8871 27.8917 48.4383 27.8917H15.0866C13.6399 27.8917 12.464 29.2131 12.464 30.8407V30.9209C12.464 32.5485 13.6379 33.8679 15.0866 33.8679H28.3628V37.1129H3.09999C2.27782 37.1129 1.48933 37.4376 0.907965 38.0157C0.326605 38.5939 0 39.3779 0 40.1955C0 41.0131 0.326605 41.7971 0.907965 42.3752C1.48933 42.9534 2.27782 43.2781 3.09999 43.2781Z" fill="#751F26"/>
<path d="M59.9 46.5211C59.807 46.5211 59.7182 46.5211 59.6293 46.5334C59.5404 46.5457 59.4495 46.5211 59.3586 46.5211H3.55878C3.48025 46.5211 3.40585 46.5211 3.32939 46.5211C3.25292 46.5211 3.17645 46.5211 3.09999 46.5211C2.27782 46.5211 1.48933 46.8458 0.907965 47.424C0.326605 48.0021 0 48.7861 0 49.6037V58.9174C0 59.7349 0.326605 60.519 0.907965 61.0971C1.48933 61.6752 2.27782 62 3.09999 62C3.17645 62 3.25292 62 3.32939 61.9897C3.40585 61.9795 3.48025 62 3.55878 62H59.3586C59.4495 62 59.5384 62 59.6293 61.9877C59.7202 61.9753 59.807 62 59.9 62C60.7222 62 61.5107 61.6752 62.092 61.0971C62.6734 60.519 63 59.7349 63 58.9174V49.6037C63 48.7861 62.6734 48.0021 62.092 47.424C61.5107 46.8458 60.7222 46.5211 59.9 46.5211ZM6.19997 52.6863H56.8V55.8347H6.19997V52.6863Z" fill="#751F26"/>
<path d="M5.27411 12.645C5.27411 13.4625 5.60072 14.2466 6.18208 14.8247C6.76344 15.4028 7.55193 15.7276 8.3741 15.7276C9.19627 15.7276 9.98476 15.4028 10.5661 14.8247C11.1475 14.2466 11.4741 13.4625 11.4741 12.645V6.16527H49.823C51.1085 6.16527 52.15 4.78425 52.15 3.08263C52.15 1.38102 51.1167 0 49.823 0H8.3741C7.0907 0 5.27411 1.38102 5.27411 3.08263V12.645Z" fill="#751F26"/>
<path d="M44.0364 15.7276C44.8585 15.7276 45.647 15.4028 46.2284 14.8247C46.8097 14.2466 47.1363 13.4625 47.1363 12.645C47.1363 11.8274 46.8097 11.0433 46.2284 10.4652C45.647 9.88711 44.8585 9.56233 44.0364 9.56233H18.9637C18.1415 9.56233 17.353 9.88711 16.7716 10.4652C16.1903 11.0433 15.8637 11.8274 15.8637 12.645C15.8637 13.4625 16.1903 14.2466 16.7716 14.8247C17.353 15.4028 18.1415 15.7276 18.9637 15.7276H44.0364Z" fill="#751F26"/>
</svg>
