<svg width="90" height="23" viewBox="0 0 90 23" fill="none" xmlns="http://www.w3.org/2000/svg">
<path d="M84.351 0H79.072V2.75325L76.3663 0H73.423V5.1324L74.0282 5.74601H79.072V10.8784L79.675 11.4943H79.072V19.0059L82.9859 22.9886H84.7187V5.74601H90L84.351 0Z" fill="#751F26"/>
<path d="M39.5382 0V3.16384L36.4313 0H28.2425V16.0519L29.4104 17.2403H28.2425V22.9886H45.1849V8.91441L42.0758 5.74601H45.1849V0.786968L44.4116 0H39.5382ZM39.5382 11.4943V19.4187L37.3974 17.2403H33.8893V13.6727L31.753 11.4943H33.8915V5.54527L34.0507 5.70723L34.091 5.74601H39.5405V11.2936L39.7377 11.4943H39.5382Z" fill="#751F26"/>
<path d="M16.9581 0V5.74601H11.3002V6.93672L4.4833 0H0V3.58128L1.18135 4.7834L0.00448426 3.58128L2.14526 5.75741H0.00448426V19.8384L3.11141 23H5.6512V17.4479L5.44945 17.2403H5.6512V9.31588L11.3002 15.0619V11.4943H16.9581V20.8102L19.0989 22.9886H22.607V18.4265L21.4369 17.2357H22.607V2.17842L20.4551 0H16.9581Z" fill="#751F26"/>
<path d="M64.0843 3.75692L66.0412 5.74601H62.1273L56.4806 11.4943V12.2813L55.7072 11.4943H56.4806V4.14242L52.4075 0H50.8339V14.6604L53.3692 17.2403H50.8339V22.7856L51.0312 22.9886H56.4806V12.2813L61.354 17.2403H62.1273V18.0273L67.0029 22.9886H67.7763V15.6367L63.7032 11.4943H67.7763V1.05613L67.2674 0.517802L64.0843 3.75692Z" fill="#751F26"/>
</svg>
