<svg width="200" height="29" viewBox="0 0 200 29" fill="none" xmlns="http://www.w3.org/2000/svg">
<path d="M133.567 29H131.398C129.633 28.6563 128.468 27.549 127.342 26.2536L125.582 24.2239C125.404 24.0183 125.2 23.9449 124.929 24.0389C123.609 24.4912 122.182 24.5412 120.793 24.4648C117.647 24.2944 114.811 22.9315 112.727 20.5406C110.383 17.8471 109.587 14.5397 109.896 10.9973C110.147 8.12165 111.457 5.45457 113.559 3.52183C115.464 1.76826 117.779 0.678517 120.335 0.411222L121.12 0.328978C123.142 0.120429 125.55 0.625646 127.354 1.60671C131.331 3.76856 133.322 7.28158 133.611 11.7757C133.643 12.2721 133.643 12.7244 133.611 13.2179C133.415 16.54 132.008 19.3627 129.58 21.6186C130.342 22.5673 131.034 23.566 131.725 24.5794C132.417 25.5927 133.406 26.6678 134.673 26.75C135.42 26.797 136.115 26.6296 136.628 26.095L137.539 26.7765L137.101 27.2817C136.182 28.342 134.886 28.7621 133.564 28.9971L133.567 29ZM119.746 21.8477L119.284 21.034C121.893 19.0455 124.835 17.9587 127.929 19.7974C129.09 17.6708 129.373 15.7851 129.478 13.4029C129.575 11.2557 129.268 8.62392 128.55 6.60306C127.438 3.48364 125.034 1.57733 121.677 1.60377C120.425 1.61258 119.246 1.81232 118.155 2.44971C116.836 3.21929 115.899 4.40008 115.263 5.80117C114.563 7.34326 114.169 8.96759 114.084 10.6565L114.028 11.7522C114.002 12.2603 114.002 12.7273 114.028 13.2355L114.081 14.1901C114.198 16.302 115.032 19.163 116.433 20.8372C116.757 21.225 117.122 21.6039 117.513 21.9152C119.387 23.4044 121.926 23.5396 124.1 22.8375C123.189 21.6626 121.053 21.0017 119.743 21.8447L119.746 21.8477ZM23.7057 29H21.5374C19.7514 28.5858 18.7387 27.7605 17.5305 26.3505L16.3281 24.9436L15.7532 24.2739C15.5168 24.0007 15.2863 23.9596 14.9565 24.0683C13.6141 24.503 12.3329 24.5353 10.9321 24.4677C8.42818 24.3473 6.0935 23.4485 4.17323 21.8506C1.77435 19.8503 0.411487 17.1157 0 14.0785V10.6301C0.51071 7.1024 2.41055 4.08579 5.44563 2.16186C7.19372 1.05449 9.17527 0.469969 11.2619 0.331915C12.8232 0.22911 14.5655 0.408285 16.0392 0.96931C18.4936 1.90337 20.5948 3.56295 21.9722 5.82467C23.3497 8.0864 23.8954 10.9885 23.6736 13.7084C23.4693 16.2022 22.4742 18.4786 20.8778 20.379C20.5101 20.8167 20.0986 21.178 19.6959 21.6097C20.4868 22.6378 21.193 23.6306 21.908 24.6822C22.2874 25.2402 22.7339 25.719 23.2592 26.1391C24.2573 26.938 25.7573 27.0114 26.7437 26.1038L27.6601 26.7823C26.3439 28.3332 25.5297 28.5947 23.7086 29H23.7057ZM9.86109 21.8565L9.42042 21.0252C11.9856 19.0249 15.0032 17.9822 18.0325 19.7916C19.0334 18.0439 19.4333 16.1522 19.5471 14.1901C19.6901 11.6728 19.5266 9.05864 18.692 6.67355C17.7319 3.92717 15.6686 1.91512 12.7065 1.64783C12.0965 1.59202 11.4749 1.59496 10.8592 1.64783C8.94181 1.81232 7.26376 2.80806 6.17522 4.38246C4.78317 6.39451 4.30164 8.89122 4.15572 11.2881C4.03315 13.2913 4.21409 15.2475 4.73939 17.1891C5.0429 18.3082 5.50692 19.3245 6.13144 20.288C7.29586 22.0885 9.18403 23.1988 11.3261 23.2341C12.3475 23.2517 13.2901 23.1695 14.2649 22.8434C13.3543 21.7272 11.2298 20.9635 9.86401 21.8535L9.86109 21.8565ZM77.7622 0.00293738L77.7418 18.0409C77.7418 18.7106 77.6513 19.3128 77.7097 19.9649C77.8002 20.9988 78.0862 21.9563 78.8157 22.7494C79.8372 23.8656 81.3518 24.3326 82.846 24.3855C85.6213 24.4854 88.3354 23.2106 90.3198 21.269L89.5523 20.4877C88.1924 21.7713 85.741 23.2018 83.8907 22.911C82.7321 22.7289 82.6388 22.1473 82.4491 21.081V0.00293738H77.7622ZM64.475 0.00293738L64.4954 20.3261C64.4954 21.3454 65.1054 22.3206 65.7678 22.9756C66.6754 23.8744 67.8253 24.2651 69.0685 24.3914C71.4615 24.6322 73.8079 23.7158 75.4859 21.974L74.9081 21.316C74.8701 21.272 74.768 21.1603 74.7213 21.1809C74.5141 21.2778 73.4489 22.4469 71.8526 22.8346C71.1492 23.005 70.2796 23.0578 69.7193 22.5144C69.3165 22.1238 69.1794 21.4012 69.1794 20.7902L69.1648 0.00293738H64.4808H64.475ZM199.396 20.8225C198.132 21.7801 196.892 22.5761 195.249 22.8287C193.804 23.049 192.191 22.4821 191.791 20.9606C191.487 19.8033 191.925 18.6724 192.955 18.035C193.574 17.6532 194.242 17.4417 194.96 17.239V16.2286C194.087 16.0083 192.976 15.5618 192.532 14.7746C192.088 13.9874 192.371 12.8566 193.101 12.2897C193.679 11.8373 194.379 11.6758 195.109 11.7815C195.789 11.8785 196.326 12.3132 196.895 12.7685L197.388 12.228C196.282 11.0971 194.779 10.5772 193.221 10.6184C192.234 10.6448 191.324 10.7858 190.504 11.3615C189.368 12.1604 188.744 13.5997 189.12 14.9685C189.31 15.6646 189.873 16.1552 190.413 16.5194C189.8 16.7632 189.199 17.0745 188.776 17.5621C187.366 19.1747 187.901 21.8859 189.503 23.2429C190.571 24.1476 192.05 24.6117 193.428 24.6175C195.366 24.6293 197.838 23.6717 199.238 22.3411L200 21.6186V21.4071L199.396 20.8284V20.8225ZM163.007 0.00293738C162.225 0.220298 161.554 0.696141 161.3 1.52152C160.955 2.64064 161.457 3.88312 162.537 4.33252C163.801 4.8583 165.213 4.18859 165.581 2.92555C165.949 1.66251 165.21 0.375975 163.915 0H163.004L163.007 0.00293738ZM53.0759 0.00293738C52.1625 0.240859 51.503 0.901752 51.3191 1.77119C51.109 2.764 51.5788 3.73625 52.3405 4.19153C53.2219 4.71437 54.2841 4.58807 55.0137 3.9448C55.5273 3.48952 55.7521 2.92555 55.7521 2.25585C55.7521 1.03393 55.002 0.358351 53.9835 0.00293738H53.073H53.0759ZM49.0253 21.1545C47.998 22.112 46.1974 23.2223 44.8083 22.8963C43.7898 22.6584 43.6759 22.1825 43.495 21.2279V11.0501H38.741V16.3197C38.1895 17.991 37.4015 19.5066 36.3888 20.9195C35.9394 21.4688 35.4987 21.9563 34.8713 22.2912C34.2439 22.626 33.3859 22.4704 33.0182 21.8065C32.8635 21.5275 32.7292 21.1045 32.7292 20.7579V11.0501H28.054C27.9432 11.1764 27.9636 11.3967 28.0365 11.5554C28.0365 12.5863 28.0307 13.585 28.0044 14.6072L27.9344 17.2185C27.9198 17.8001 27.9315 18.3493 27.9461 18.925C27.9723 20.0089 28.0307 21.0428 28.556 22.0092C29.5045 23.7599 31.7049 24.5794 33.5989 24.3943C36.2575 24.1329 37.7459 21.8183 38.7177 19.6388C38.7819 20.1705 38.8286 20.6904 38.9307 21.2103C39.17 22.4263 40.0105 23.3604 41.1166 23.8597C43.8715 25.1022 47.7675 24.2827 49.7665 21.924L49.0253 21.1486V21.1545ZM156.228 22.8111C155.498 23.002 154.678 23.049 154.051 22.5996C153.563 22.253 153.575 21.645 153.429 21.0722V11.0531H148.742V16.1904C148.15 18.0115 147.295 19.7093 146.116 21.2044C145.655 21.7096 145.205 22.1737 144.557 22.394C144.076 22.5556 143.486 22.4204 143.142 22.0445C142.798 21.6685 142.774 21.2191 142.66 20.7197V11.0501H137.976L137.938 15.6529L137.921 19.7475C138.026 20.9665 138.35 22.1531 139.266 22.9873C140.702 24.2974 142.739 24.7615 144.586 24.1799C146.606 23.5454 147.794 21.504 148.69 19.7005C148.786 20.4289 148.812 21.0575 149.022 21.6773C149.53 23.1753 150.943 24.036 152.437 24.3003C155.174 24.785 157.78 23.9684 159.759 21.9681L158.968 21.1545C158.104 21.9505 157.258 22.4968 156.231 22.8111H156.228ZM103.814 19.9795C103.887 21.5481 102.659 22.9991 101.054 23.0755C100.435 23.1048 99.7811 22.9139 99.2646 22.6378C98.1118 22.0239 97.6332 20.8255 97.6011 19.5713C97.5428 17.3565 99.1712 15.553 101.404 15.553L101.383 14.6072C100.079 14.3105 98.4854 13.3824 98.3453 11.9401C98.2548 11.0237 99.0924 10.3187 100.006 10.4186C101.033 10.5273 100.986 10.7505 102.238 10.7799C102.994 10.7975 103.727 10.6565 104.345 10.1983L104.051 9.26132C102.218 10.166 101.366 8.93234 99.5885 8.78841C98.3132 8.68561 97.1575 9.14676 96.46 10.2424C96.1799 10.68 96.1361 11.2205 96.1507 11.758C96.1332 13.0563 97.3151 14.0902 98.2344 14.8158C96.0602 15.227 94.4026 16.2785 94.1808 18.6489C93.9853 20.2938 94.5894 21.8095 95.8735 22.8992C96.9124 23.7804 98.2461 24.1975 99.6119 24.3209C101.558 24.4971 103.537 24.083 104.865 22.5702C106.324 20.9077 106.502 18.2906 104.792 16.9101C103.826 16.1287 102.405 16.1728 101.398 16.8836L101.553 17.7971C102.53 17.5504 103.359 18.1995 103.639 19.0837C103.73 19.3715 103.803 19.6535 103.817 19.9766L103.814 19.9795ZM165.873 21.1809V11.1236H161.116L161.122 20.241C161.513 23.3633 164.282 24.641 167.104 24.3973C169.039 24.2298 170.834 23.3868 172.141 21.9417L171.4 21.1545C170.23 22.2325 168.041 23.563 166.529 22.6319C166.045 22.3353 165.963 21.7331 165.87 21.178L165.873 21.1809ZM58.5653 22.8375C57.8503 23.0167 56.9982 23.0373 56.432 22.5291C55.968 22.112 56.0147 21.4629 55.8776 20.8637V11.1236H51.1907V20.4025C51.5701 22.8816 53.4787 24.1828 55.8425 24.4002C58.2268 24.6205 60.5761 23.6776 62.2045 21.9622L61.4399 21.1457C60.5703 21.9505 59.6539 22.5673 58.5653 22.8405V22.8375ZM185.829 20.6081L185.318 20.1881C184.01 21.4688 181.29 22.9198 179.65 21.6068C178.416 20.6199 177.888 19.1189 177.966 17.521C178.037 16.1287 178.355 14.7864 178.967 13.5292L179.992 11.4261L179.458 10.9033C178.045 11.8726 175.635 12.1898 174.368 10.9444C173.779 10.3657 173.426 9.65492 173.148 8.85891L172.521 9.06746L172.474 9.88109C172.576 12.0048 173.963 13.2531 176.078 13.1767C176.607 13.1562 177.082 13.1503 177.602 13.0328C176.297 14.8393 175.08 16.8983 174.8 19.1424C174.756 19.489 174.78 19.8033 174.8 20.1264C174.899 21.8594 175.836 23.2605 177.415 23.942C179.274 24.7438 181.358 24.3679 183.088 23.3868C183.762 23.005 184.355 22.5702 184.927 22.0621C185.16 21.8565 185.998 21.037 186.015 20.8695C186.024 20.7932 185.893 20.6581 185.826 20.6052L185.829 20.6081Z" fill="#751F26"/>
</svg>
