<svg width="170" height="16" viewBox="0 0 170 16" fill="none" xmlns="http://www.w3.org/2000/svg">
<path d="M12.2892 9.18041L15.1652 15.8256C15.1652 15.8256 15.1652 15.8314 15.1615 15.8314H10.683C10.683 15.8314 10.6793 15.8314 10.6793 15.8291L8.18571 9.89447C8.18571 9.89447 8.18321 9.89214 8.18196 9.89214H4.08598C4.08598 9.89214 4.08098 9.89447 4.08098 9.8968V15.8279C4.08098 15.8279 4.07848 15.8325 4.07598 15.8325H0.00499967C0.00499967 15.8325 0 15.8302 0 15.8279V0.22794C0 0.22794 0.00249983 0.223288 0.00499967 0.223288H9.50687C12.2079 0.223288 14.6278 2.2701 14.7753 4.77977C14.884 6.62888 13.8528 8.28377 12.2904 9.17576C12.2892 9.17576 12.2879 9.17925 12.2892 9.18041ZM10.678 5.0833C10.7005 4.49833 10.1581 4.01919 9.52812 4.01919H4.08348C4.08348 4.01919 4.07848 4.02152 4.07848 4.02384V6.09159C4.07848 6.09159 4.08098 6.09624 4.08348 6.09624H9.57437C10.1618 6.09624 10.6568 5.64734 10.678 5.08446V5.0833ZM30.8142 13.9113H23.9747L23.1822 15.8314H18.7663L25.2221 0.223288H29.5418L36.0214 15.8314H31.6054L30.813 13.9113H30.8142ZM29.2543 10.1154L27.3819 5.60547L25.5346 10.1154H29.2543ZM41.9547 8.21167C42.066 10.4457 44.1121 12.2053 46.5144 12.1681C47.7081 12.1495 48.808 11.7052 49.653 10.9179L52.5803 13.5531C50.8291 15.2301 48.4418 16.1105 45.9232 15.9733C41.4348 15.7279 37.8825 12.2239 37.8687 8.04071C37.8537 3.63076 41.6997 0.0441925 46.4357 0.0441925C48.9318 0.0441925 51.3079 1.07109 52.939 2.8353L49.843 5.31357C48.9793 4.37622 47.7306 3.8401 46.4357 3.8401C43.8946 3.8401 41.8347 5.82294 41.9522 8.21167H41.9547ZM72.7639 7.99419C72.7639 12.4158 68.9242 9.40254 64.172 9.40254C59.4198 9.40254 55.5801 12.4158 55.5801 7.99419C55.5801 3.57262 59.4448 0 64.172 0C68.8992 0 72.7639 3.59471 72.7639 7.99419ZM68.678 7.77788C68.568 5.71246 66.8118 4.00756 64.5995 3.81451C61.9397 3.58308 59.6598 5.53918 59.6598 7.99419C59.6598 10.3166 61.6997 12.1925 64.172 12.1925C66.6443 12.1925 68.808 10.1992 68.678 7.77904V7.77788ZM88.3629 0.267481H92.4426V15.8302H87.9792L81.4034 6.54165V15.786L80.0222 15.7628L77.3236 12.9217V0.201192H81.8108L88.3629 9.44557V0.267481ZM112.121 0.223288V4.01919H106.842V15.8314H102.762V4.01919H97.4823V0.223288H112.121ZM117.261 0.212822H127.73L130.388 2.06077V4.03198H121.341V6.10903H128.42V9.90494H121.341V11.982H130.388V15.7779H117.261V0.212822ZM145.699 5.04725L149.803 3.85638V9.10017C149.803 12.9996 146.282 16.1686 142.024 15.993C138.046 15.8279 134.947 12.7065 134.947 9.00015V3.85638L139.027 5.04725V9.01876C139.027 10.6597 140.369 12.0634 142.129 12.1739C144.084 12.296 145.699 10.8679 145.699 9.10017V5.04725ZM155.26 4.40762C155.367 3.63193 155.708 2.90391 156.208 2.28057C157.2 1.04434 158.816 0.212822 160.482 0.212822H170V15.8209H165.92V9.88168H161.817L159.321 15.8209H154.834L157.713 9.16646C156.048 8.21748 154.985 6.4021 155.261 4.40762H155.26ZM160.424 6.08461H165.92V4.00756H160.463C159.884 4.00756 159.349 4.446 159.322 4.98329C159.292 5.58686 159.807 6.08345 160.424 6.08345V6.08461Z" fill="#751F26"/>
</svg>
