<svg width="167" height="28" viewBox="0 0 167 28" fill="none" xmlns="http://www.w3.org/2000/svg">
<path d="M11.107 0.334084C9.47121 0.711108 7.54267 1.54712 6.16514 2.46509C5.14921 3.13718 4.82204 3.54699 5.45915 3.35028C11.4342 1.54712 17.7364 4.12072 21.8173 9.98919C22.3511 10.7596 22.971 11.776 23.1949 12.2513C23.4359 12.7103 23.677 13.1037 23.7631 13.1037C23.987 13.1037 24.8996 11.2514 25.1923 10.1367C25.3989 9.39907 25.4678 8.64502 25.4161 7.59591C25.3645 6.26812 25.2784 5.95667 24.7102 4.85838C23.5565 2.62902 20.9219 0.842247 17.9602 0.235729C16.2211 -0.10851 12.7945 -0.0757256 11.107 0.334084Z" fill="#751F26"/>
<path d="M66.3461 3.33389C62.4201 4.20269 59.8544 6.61237 58.7524 10.481C58.2703 12.153 58.3047 16.038 58.8213 17.7756C59.3895 19.6607 60.1472 20.8901 61.5247 22.2179C63.5738 24.185 66.2083 25.0538 69.566 24.8571C72.4588 24.6932 74.4907 23.808 76.3676 21.9065C78.2273 20.0213 79.0021 17.9723 79.1227 14.6446C79.226 11.9563 78.9332 10.317 77.969 8.38274C76.8325 6.08781 74.9384 4.48136 72.4416 3.64535C70.8919 3.13718 67.9474 2.98965 66.3461 3.33389ZM70.6336 6.77629C73.337 7.56312 74.7662 10.0548 74.7662 14.0053C74.7662 18.8247 72.6483 21.4639 68.7567 21.4639C67.2414 21.4639 66.0533 21.054 65.0202 20.1853C63.4704 18.8575 62.8161 17.0215 62.8161 14.0053C62.8161 10.9891 63.4705 9.15318 65.0374 7.8254C65.5023 7.41559 66.26 6.973 66.7249 6.82547C67.7752 6.49762 69.566 6.48123 70.6336 6.77629Z" fill="#751F26"/>
<path d="M91.486 3.36667C87.5773 4.08794 84.4606 7.00578 83.3586 10.9727C82.9797 12.3169 82.9453 16.0544 83.2897 17.3658C83.7374 19.1197 84.805 20.9557 86.0447 22.1195C88.1627 24.103 90.3151 24.8243 94.155 24.8079C96.8756 24.8079 98.5631 24.4964 100.578 23.644L101.559 23.2178V13.1037H95.0848L94.0172 16.2183H97.4266V20.9229L96.4279 21.2016C94.3099 21.7589 91.8993 21.4475 90.2462 20.3656C88.5071 19.2509 87.6117 17.4149 87.4739 14.6938C87.3362 11.7104 87.9561 9.79248 89.5919 8.2516C90.6767 7.20249 91.9854 6.69432 93.8795 6.57958C95.4636 6.48122 96.7034 6.71072 98.3392 7.41559C98.9763 7.67787 99.5273 7.87457 99.5618 7.84179C99.5962 7.809 99.8545 7.07135 100.164 6.21894C100.784 4.43217 100.819 4.49774 99.2002 3.92401C97.0306 3.15357 93.8278 2.92408 91.486 3.36667Z" fill="#751F26"/>
<path d="M152.7 3.20275C150.048 3.69452 148.12 5.07148 147.345 7.02217C147.052 7.75983 147.001 8.20242 147.052 9.25153C147.207 11.8907 148.43 13.1857 152.872 15.4478C155.868 16.9723 156.488 17.5461 156.488 18.8411C156.488 20.382 155.283 21.2999 153.131 21.4147C151.701 21.513 149.807 21.1688 148.464 20.5787C147.793 20.2836 147.5 20.218 147.448 20.3656C147.397 20.4803 147.138 21.2016 146.863 22.0048L146.346 23.4309L147.035 23.7752C148.86 24.644 152.597 25.1194 154.887 24.7587C158.951 24.103 161.568 21.0704 160.982 17.6608C160.604 15.4806 159.192 14.1365 155.111 12.071C152.993 10.9891 152.252 10.4974 151.805 9.87444C151.168 8.94008 151.529 7.67787 152.648 7.00578C153.234 6.66154 153.492 6.62875 155.283 6.64515C156.815 6.66154 157.521 6.7435 158.382 7.00578C159.002 7.20249 159.57 7.36641 159.639 7.36641C159.708 7.36641 159.743 6.5304 159.725 5.53046L159.674 3.67813L158.727 3.46502C157.745 3.25192 153.458 3.07161 152.7 3.20275Z" fill="#751F26"/>
<path d="M39.5703 24.5784H43.7029V16.3822H44.6155C45.8897 16.3822 46.7851 16.6609 47.405 17.2674C47.6977 17.5461 48.8514 19.3001 49.9706 21.1688L51.9853 24.5784H56.8239L56.4967 24.0375C56.3245 23.7588 55.3602 22.1523 54.3615 20.4803C53.1734 18.4804 52.2608 17.1527 51.6753 16.5625C51.176 16.0708 50.7799 15.661 50.8144 15.6446C50.8316 15.6446 51.2965 15.3495 51.8303 15.0216C55.4291 12.7267 55.4463 7.02217 51.882 4.77641C50.0051 3.59616 49.6435 3.53059 44.3572 3.46502L39.5703 3.41585V24.5784ZM48.6964 7.23527C49.7468 7.809 50.2461 8.6778 50.2461 9.89083C50.2461 10.9236 50.0051 11.4973 49.2647 12.153C48.4898 12.8579 47.5083 13.1037 45.4937 13.1037H43.7029V6.67793L45.8208 6.72711C47.7322 6.79267 47.9904 6.82546 48.6964 7.23527Z" fill="#751F26"/>
<path d="M107.758 24.5784H121.706V21.2999H112.063V15.3987H120.5V12.1202H112.063V6.71072H120.604L121.086 5.26819C121.361 4.48135 121.619 3.7437 121.654 3.62895C121.723 3.48142 120.276 3.43224 114.749 3.43224H107.758V24.5784Z" fill="#751F26"/>
<path d="M127.216 24.5784H131.348V16.3822H132.261C133.552 16.3822 134.362 16.6445 134.999 17.2838C135.309 17.5789 136.462 19.3492 137.547 21.2016L139.527 24.562L141.904 24.5784C143.195 24.5784 144.263 24.5292 144.263 24.48C144.263 24.2997 140.32 17.7756 139.786 17.0707C139.493 16.6937 139.028 16.2347 138.735 16.0708L138.202 15.7593L138.994 15.3167C140.096 14.7102 141.249 13.4152 141.697 12.3169C142.231 11.0055 142.214 8.80894 141.697 7.49755C141.232 6.33369 139.958 4.97312 138.804 4.36661C137.272 3.57977 136.152 3.43224 131.486 3.43224H127.216V24.5784ZM135.67 6.9566C137.582 7.5959 138.408 9.57938 137.513 11.3006C136.79 12.6448 135.653 13.1037 133.036 13.1037H131.348V6.71072H133.139C134.293 6.71072 135.188 6.79268 135.67 6.9566Z" fill="#751F26"/>
<path d="M6.33733 4.02236C3.44451 4.76001 0.947735 7.59589 0.207311 10.9727C-0.137072 12.5464 -0.0337566 16.333 0.379503 17.7756C0.758324 19.087 1.68816 20.9393 2.56633 22.1359C3.27232 23.0867 3.7028 23.3981 3.49617 22.7916C2.87628 20.9393 2.73853 18.4968 3.15179 16.6281C3.73724 13.9561 6.14792 10.4482 8.79967 8.43191C10.1944 7.3664 12.3468 6.0714 13.2766 5.74356C13.5349 5.6452 13.7416 5.51406 13.7416 5.4321C13.7416 5.16982 12.0541 4.41577 10.711 4.08793C9.16127 3.7109 7.6632 3.67812 6.33733 4.02236Z" fill="#751F26"/>
<path d="M26.0877 5.75995C26.4493 6.98938 26.5698 9.94001 26.3115 11.1858C25.4678 15.3003 21.9551 19.3492 17.0304 21.8573L15.584 22.5785L16.2556 22.9883C17.9258 24.0375 20.8875 24.4964 22.816 24.0211C24.4002 23.644 25.2267 23.185 26.5009 21.972C28.6017 19.9721 29.4799 17.5789 29.4626 13.9234C29.4626 11.317 29.101 9.84165 28.0335 7.77622C27.3102 6.41565 26.2427 4.90755 25.9844 4.90755C25.9155 4.90755 25.9499 5.30097 26.0877 5.75995Z" fill="#751F26"/>
<path d="M4.97701 15.9232C4.37434 17.0871 3.92665 18.8575 3.92665 20.0705C3.94387 23.6768 6.8539 26.7094 11.262 27.7093C12.5707 28.0044 13.1561 28.0372 15.2913 27.9716C18.1669 27.8897 19.2861 27.611 21.6624 26.4471C23.2637 25.6603 24.8651 24.48 24.073 24.6604C21.0597 25.3652 18.5457 25.3816 16.4966 24.7423C13.6555 23.8407 10.7626 21.9064 8.8341 19.6115C7.71486 18.2837 6.35455 16.2347 6.01016 15.3495C5.90685 15.1036 5.75188 14.9069 5.66578 14.9069C5.57968 14.9069 5.25252 15.3659 4.97701 15.9232Z" fill="#751F26"/>
<path d="M165.965 24.5143L165.354 22.9642H165.343C165.347 22.9972 165.349 23.0393 165.351 23.0905C165.354 23.1417 165.357 23.1978 165.359 23.2589C165.36 23.3183 165.361 23.3794 165.361 23.4421V24.5143H165.145V22.7463H165.491L166.064 24.1949H166.074L166.657 22.7463H167V24.5143H166.768V23.4273C166.768 23.3695 166.769 23.3125 166.771 23.2564C166.773 23.1986 166.775 23.145 166.779 23.0955C166.782 23.0443 166.785 23.0014 166.787 22.9667H166.776L166.157 24.5143H165.965Z" fill="#751F26"/>
<path d="M163.924 24.5143H163.69V22.9419H163.11V22.7463H164.502V22.9419H163.924V24.5143Z" fill="#751F26"/>
</svg>
