<svg width="164" height="43" viewBox="0 0 164 43" fill="none" xmlns="http://www.w3.org/2000/svg">
<path d="M164 0.481425C163.87 0.7196 163.817 0.90485 163.713 1.03717C161.596 3.86882 159.479 6.67398 157.337 9.47918C156.71 10.326 156.423 11.2523 156.448 12.3108C156.448 14.1368 156.448 15.9629 156.448 17.7889V18.8739C155.455 19.1121 152.372 19.1385 151.144 18.9268C151.118 18.5828 151.092 18.2123 151.092 17.8418C151.092 15.9893 151.066 14.1104 151.092 12.2579C151.118 10.9347 150.569 9.90258 149.759 8.92344C148.714 7.62668 147.747 6.25058 146.754 4.92738C146.179 4.18639 145.631 3.44539 145.056 2.7044C144.559 2.0428 144.063 1.35474 143.488 0.534352C143.828 0.507888 144.037 0.454961 144.272 0.454961C145.605 0.428495 146.937 0.481425 148.27 0.402032C149.08 0.349104 149.576 0.666671 149.968 1.32827C150.595 2.36037 151.301 3.31307 151.98 4.29224C152.189 4.60981 152.424 4.90092 152.686 5.16555C153.261 5.74779 153.836 5.77423 154.437 5.21848C154.698 5.00677 154.881 4.74213 155.09 4.47749C155.926 3.33954 156.762 2.17512 157.572 1.03717C157.807 0.666671 158.095 0.428496 158.565 0.428496C160.107 0.402032 161.648 0.322641 163.216 0.296176C163.452 0.296176 163.687 0.402032 164 0.481425Z" fill="#751F26"/>
<path d="M139.362 0.21663C139.676 1.38105 139.937 2.41314 140.199 3.4717C140.303 3.92159 140.355 4.42441 140.46 4.90076C141.192 7.73241 141.949 10.5641 142.681 13.4221C143.099 15.01 143.465 16.5979 143.857 18.1857C143.909 18.3445 143.909 18.5297 143.935 18.7679C142.55 19.1119 141.192 19.0325 139.833 19.0061C139.389 19.0061 139.206 18.662 139.127 18.2651C138.892 17.2594 138.657 16.2273 138.422 15.2217C138.396 15.0365 138.317 14.8777 138.239 14.6395C136.044 14.1367 133.823 14.6131 131.55 14.2955L130.034 19.0325C128.675 19.0325 127.395 19.059 126.114 19.0325C125.513 19.0061 125.33 18.715 125.409 18.1328C125.461 17.8681 125.513 17.6299 125.592 17.3653C126.924 12.84 128.257 8.31459 129.616 3.78927C129.904 2.78364 130.321 1.83093 130.635 0.825301C130.766 0.428341 131.001 0.21663 131.445 0.21663C134.032 0.21663 136.619 0.21663 139.362 0.21663ZM137.037 9.82308C137.089 9.37318 137.141 9.05562 137.115 8.73805C137.011 7.07083 136.358 5.56234 135.809 4.02745C135.704 3.76281 135.26 3.4717 134.946 3.44524C134.711 3.44524 134.45 3.81573 134.215 4.02745C134.136 4.13331 134.11 4.29209 134.058 4.45087C133.744 5.43004 133.431 6.43565 133.169 7.44129C132.96 8.15581 132.856 8.92328 132.699 9.79659C134.215 9.87598 135.599 9.84953 137.037 9.82308Z" fill="#751F26"/>
<path d="M105.195 0.507788C106.841 0.454861 108.278 0.216685 109.793 0.401932C111.283 0.587181 112.824 0.454861 114.34 0.481325C115.621 0.481325 116.901 0.693035 118.129 1.11646C121.5 2.30734 123.747 5.5095 123.721 9.08212C123.721 9.16151 123.721 9.2409 123.721 9.29385C123.982 11.358 123.277 13.184 122.467 15.0101C122.362 15.2747 122.179 15.5393 121.996 15.751C120.324 17.5506 118.364 18.8209 115.83 18.8738C112.642 18.9532 109.48 18.9797 106.292 19.0326C105.926 19.0326 105.56 19.0062 105.143 18.9532C105.116 18.6092 105.038 18.3445 105.064 18.0535C105.064 14.5866 105.09 11.0934 105.116 7.62663C105.116 5.77412 105.116 3.92165 105.116 2.0427C105.116 1.56635 105.168 1.09 105.195 0.507788ZM110.238 5.0596C109.924 7.07089 109.715 13.4751 109.95 14.2691C110.473 14.3484 110.996 14.4543 111.544 14.5072C112.903 14.6396 114.262 14.8513 115.621 14.5866C117.058 14.322 118.338 13.7133 118.939 12.2843C119.749 10.3524 119.592 8.42054 118.547 6.59454C118.181 5.98585 117.685 5.58889 117.006 5.4301C115.777 5.13899 114.549 4.87435 113.269 4.95374C112.302 5.00667 111.309 5.03313 110.238 5.0596Z" fill="#751F26"/>
<path d="M98.3877 11.7551C99.3281 14.1898 100.739 16.4392 101.836 19.0063C100.687 19.1121 99.6938 19.0327 98.7271 18.9798C98.2831 18.9533 97.8123 18.8739 97.3947 18.9533C96.8982 19.0327 96.6365 18.8475 96.4537 18.424C95.696 16.7039 94.9384 15.0102 94.1802 13.3165C94.102 13.1048 93.9974 12.9195 93.9191 12.7078C93.7363 12.205 93.4489 11.8874 92.8741 11.861C92.1422 11.8345 91.4109 11.7022 90.6527 11.7022C89.8688 11.7022 89.0591 11.8345 88.249 11.8874C87.8045 12.3373 87.7525 12.8666 87.7525 13.4488C87.7787 14.9308 87.7525 16.4128 87.7525 17.9212C87.7525 18.2388 87.7262 18.5564 87.7004 18.8739C86.812 19.1121 84.5906 19.165 83.1799 18.9798C83.1536 18.7416 83.0753 18.5034 83.1011 18.2652C83.1011 14.4544 83.1273 10.6436 83.1536 6.83282C83.1799 5.35082 83.1536 3.86883 83.1536 2.36038C83.1536 2.09574 83.1273 1.8311 83.1273 1.59293C83.1536 0.587295 83.2056 0.534366 84.2249 0.481438C84.486 0.454974 84.7477 0.454974 85.0088 0.454974C87.1514 0.402045 89.294 0.269726 91.4366 0.296189C93.4226 0.349118 95.4349 0.402045 97.3947 0.719616C99.7201 1.09011 101.366 2.59856 101.889 4.95386C102.359 6.9916 101.732 9.02933 99.7201 10.5642C99.2761 10.9083 98.7008 11.1465 98.3877 11.7551ZM87.9878 4.37165C88.0136 4.92739 88.0661 5.40374 88.0924 5.88007C88.1444 6.38292 88.1964 6.88571 88.2752 7.38856C90.5744 7.38856 92.7695 7.38856 94.9904 7.36206C95.5652 7.36206 96.1663 7.22978 96.7153 7.01805C97.6295 6.70048 97.8123 5.95951 97.2118 5.19203C96.7673 4.58336 96.1925 4.26579 95.4086 4.26579C94.5722 4.23933 93.71 4.26579 92.8741 4.1864C91.28 4.00115 89.7122 4.08054 87.9878 4.37165Z" fill="#751F26"/>
<path d="M73.9591 0.534325C75.6052 0.269685 77.173 0.402005 78.7408 0.587252C78.7928 0.851894 78.8454 0.984215 78.8711 1.143C78.8974 3.26012 79.0019 5.37724 78.9757 7.49434C78.9237 9.63797 78.7671 11.7551 78.6363 13.8722C78.5054 16.1481 77.1467 17.5242 75.1607 18.3711C74.0374 18.8474 72.809 19.0327 71.6074 19.0327C70.0133 19.0592 68.4193 18.9798 66.8515 18.821C65.3099 18.6886 64.0553 17.8683 62.984 16.8097C62.7228 16.5451 62.5137 16.2275 62.3829 15.8834C61.9127 14.5867 61.4687 13.3165 61.495 11.8874C61.547 8.60588 61.5207 5.29785 61.5207 2.01631C61.5207 1.53995 61.599 1.06361 61.6253 0.613719C62.6708 0.375541 64.97 0.322614 66.4332 0.534325C66.4595 0.798964 66.5378 1.06361 66.5378 1.35471C66.5115 3.10134 66.4332 4.84796 66.4332 6.62104C66.4332 8.44704 66.4595 10.2731 66.5903 12.0727C66.6423 12.7078 66.956 13.3959 67.2954 13.9251C67.5308 14.3221 68.001 14.6132 68.4193 14.772C69.7259 15.1954 71.0584 15.0631 72.3388 14.6926C73.0181 14.5338 73.4363 14.0574 73.5409 13.3694C73.6712 12.2579 73.8803 11.1464 73.9066 10.0349C73.9849 7.30911 73.9591 4.58332 73.9591 1.85753C73.9591 1.46057 73.9591 1.06361 73.9591 0.534325Z" fill="#751F26"/>
<path d="M58.5336 0.42828V4.18617C58.1942 4.21263 57.8806 4.2391 57.5669 4.26556C55.5026 4.26556 53.4122 4.29203 51.3479 4.31849C49.963 4.31849 49.8846 4.42434 49.8846 5.77401C49.8846 9.71714 49.8846 13.6868 49.8846 17.6563C49.8846 18.0533 49.8846 18.4502 49.8846 18.9795C48.2384 19.0325 46.7228 19.2707 45.1289 18.7943C45.1028 18.2915 45.0505 17.8681 45.0505 17.4182C45.0244 13.9514 45.0244 10.4846 44.9983 7.01783C44.9721 6.14453 44.8676 5.29766 44.8154 4.37142C42.15 4.21263 39.5632 4.39788 37.0285 4.29203C36.7672 3.39225 36.7672 1.64562 37.0024 0.481209C37.3944 0.42828 37.8124 0.322426 38.2305 0.322426C40.1903 0.348889 42.15 0.42828 44.1098 0.42828C47.6636 0.454746 51.2172 0.42828 54.7712 0.42828C55.5551 0.401817 56.3128 0.322426 57.0967 0.322426C57.5669 0.322426 58.0114 0.401817 58.5336 0.42828Z" fill="#751F26"/>
<path d="M32.134 0.21663C32.4475 1.38105 32.7088 2.41314 32.9701 3.4717C33.0746 3.92159 33.1269 4.42441 33.2314 4.90076C33.963 7.73241 34.7208 10.5641 35.4525 13.4221C35.8706 15.01 36.2364 16.5979 36.6284 18.1857C36.6806 18.3445 36.6806 18.5297 36.7067 18.7679C35.3218 19.1119 33.963 19.0325 32.6043 19.0061C32.1601 19.0061 31.9772 18.662 31.8988 18.2651C31.6636 17.2594 31.4284 16.2273 31.1933 15.2217C31.1671 15.0365 31.0887 14.8777 31.0103 14.6395C28.8154 14.1367 26.5943 14.6131 24.321 14.2955L22.8054 19.0325C21.4467 19.0325 20.1663 19.059 18.8859 19.0325C18.2849 19.0061 18.102 18.715 18.1804 18.1328C18.2326 17.8681 18.2849 17.6299 18.3633 17.3653C19.6959 12.84 21.0286 8.31459 22.3874 3.78927C22.6748 2.78364 23.0929 1.83093 23.4064 0.825301C23.5371 0.428341 23.7723 0.21663 24.2165 0.21663C26.8034 0.21663 29.3902 0.21663 32.134 0.21663ZM29.8084 9.82308C29.8606 9.37318 29.9129 9.05562 29.8868 8.73805C29.7822 7.07083 29.129 5.56234 28.5802 4.02745C28.4757 3.76281 28.0315 3.4717 27.7179 3.44524C27.4828 3.44524 27.2214 3.81573 26.9863 4.02745C26.9079 4.13331 26.8818 4.29209 26.8295 4.45087C26.5159 5.43004 26.2024 6.43565 25.9411 7.44129C25.732 8.15581 25.6275 8.92328 25.4707 9.79659C26.9863 9.87598 28.3712 9.84953 29.8084 9.82308Z" fill="#751F26"/>
<path d="M14.2332 8.68516C16.1929 9.98187 17.0029 11.9138 16.6633 14.3484C16.5588 15.1159 16.1145 15.8304 15.3045 16.5714C13.998 17.7888 12.3518 18.5562 10.2352 18.9003C9.5036 19.0061 8.77192 19.059 8.06641 19.059C6.18505 19.059 4.46044 18.6356 2.89263 17.7888C1.7429 17.1801 0.880603 16.2803 0.305735 15.1689C0.175083 14.9307 0.0966919 14.666 0.0444319 14.4014C-0.0600894 13.925 0.175083 13.5281 0.645427 13.3958C1.22029 13.2105 1.79516 13.0252 2.37003 12.8665L2.97102 12.6812C3.57202 12.496 3.93784 12.9723 4.04236 13.1576C4.14688 13.2634 4.22527 13.3958 4.30366 13.5281C4.48658 13.8192 4.69562 14.1103 4.93079 14.3484C6.15893 15.4599 8.98098 15.9628 10.784 14.8777C11.4372 14.4808 11.8292 13.8721 12.0121 12.9988C12.0905 12.6548 11.9598 12.3637 11.6462 12.0196C11.0714 11.411 10.3136 11.0934 9.34682 10.9875C8.66742 10.9081 7.98802 10.8552 7.33479 10.7758C6.52472 10.6964 5.71471 10.6171 4.93079 10.5377C3.28458 10.3524 1.95194 9.6643 0.880597 8.42054C-0.216871 7.17672 -0.0862204 5.77412 0.201212 4.58324C0.540908 3.15418 1.61225 2.22794 2.52681 1.56634C3.85945 0.613633 5.50565 0.0843547 7.41318 0.00496192C8.45836 -0.0215017 9.47743 0.0578895 10.4443 0.243138C12.4301 0.587171 14.0502 1.77805 15.4613 3.81578C15.5135 3.92164 15.5658 4.02749 15.5919 4.15981C15.5919 4.21274 15.6181 4.26567 15.6442 4.31859L15.6965 4.47738L15.5397 4.55677C14.8603 5.05959 14.0764 5.32423 13.3186 5.61534L12.9005 5.77412C12.4301 5.93291 11.9598 5.80057 11.6201 5.43008C11.5679 5.35069 11.5156 5.29776 11.4372 5.21837C11.385 5.16544 11.3066 5.11251 11.2543 5.03312C10.0262 3.68346 8.40614 3.2865 6.21116 3.84224C5.47954 4.00103 5.06144 4.50384 4.93079 5.37715C4.8524 5.77412 4.93079 6.14463 5.1137 6.40925C5.32274 6.64743 5.63632 6.80621 6.05438 6.85916C7.17801 7.01794 8.1448 7.09733 9.03326 7.09733H9.16387C10.9669 7.09733 12.6653 7.62657 14.2332 8.68516Z" fill="#751F26"/>
<path d="M153.967 29.2066C152.87 29.9741 151.72 30.1858 150.596 30.6357C150.414 30.4504 150.283 30.2916 150.152 30.1064C148.454 28.0951 146.259 27.5923 143.829 28.201C142.235 28.598 141.32 29.8682 140.641 31.2708C139.099 34.5524 141.503 37.7545 144.194 38.4955C146.52 39.1042 149.133 38.0191 150.1 35.8756C150.283 35.5051 150.466 35.161 150.701 34.6847C151.642 34.6847 152.583 34.6318 153.549 34.6582C154.15 34.6582 154.307 34.8434 154.333 35.4786C154.385 36.299 154.385 37.1193 154.411 37.9398C154.438 39.3159 154.49 40.7185 154.516 42.0946C154.542 42.3063 154.49 42.518 154.49 42.7297C153.157 43.259 152.478 43.0209 151.746 41.8829C151.589 41.6183 151.354 41.3801 151.171 41.1154C150.283 41.5653 149.499 41.9623 148.689 42.3592C148.062 42.6768 147.383 42.8356 146.651 42.7562C146.363 42.7033 146.076 42.7033 145.762 42.7297C142.653 42.9944 140.353 41.6183 138.315 39.3424C136.93 37.781 136.329 35.955 136.199 33.9701C136.015 31.6678 136.591 29.5507 138.028 27.6982C139.596 25.634 141.764 24.6019 144.116 23.8344C144.273 23.7815 144.456 23.755 144.639 23.755C147.225 23.808 149.603 24.4961 151.668 26.1103C152.687 26.9042 153.418 27.9099 153.967 29.2066Z" fill="#751F26"/>
<path d="M126.892 34.8433C127.806 34.5258 127.833 34.5258 127.833 33.7318C127.833 31.0325 127.859 28.3596 127.859 25.6603C127.859 25.3163 127.859 24.9458 127.859 24.4694C129.505 24.4165 130.994 24.046 132.588 24.3636C132.614 24.8135 132.666 25.131 132.666 25.4486C132.666 27.2217 132.693 28.9683 132.666 30.7149C132.614 34.4199 132.562 38.0984 132.484 41.8034C132.458 42.7561 132.327 42.9149 131.386 42.9413C130.419 42.9678 129.453 42.9149 128.486 42.9678C127.833 42.9942 127.388 42.7561 126.996 42.2268C125.873 40.7448 124.723 39.2628 123.6 37.8073C122.11 35.9019 120.621 33.9965 119.131 32.0911C118.792 31.6412 118.425 31.2178 117.694 31.3501C117.616 32.5674 117.459 33.7848 117.433 35.0021C117.38 37.1722 117.38 39.3422 117.354 41.5123C117.354 41.9357 117.276 42.3856 117.224 42.9149C115.708 43.0207 114.297 42.9149 112.73 42.9149C112.677 42.465 112.572 42.0416 112.599 41.6181C112.625 37.622 112.677 33.6525 112.703 29.6564C112.73 28.3067 112.73 26.9571 112.73 25.6339C112.73 25.2634 112.755 24.8928 112.782 24.4694C114.532 24.2842 116.205 24.0195 117.903 24.3371C118.452 24.4694 118.687 24.8664 119.001 25.2104C119.915 26.3748 120.83 27.5657 121.77 28.7301C123.364 30.662 124.985 32.6204 126.604 34.5522C126.683 34.6581 126.813 34.7639 126.892 34.8433Z" fill="#751F26"/>
<path d="M103.862 25.8457C103.862 25.3957 103.862 24.9723 103.862 24.4696C106.919 24.0726 107.677 24.0726 108.722 24.496C108.957 30.5562 108.356 36.643 108.565 42.862C106.945 43.1002 105.455 42.915 104.018 42.9414C103.6 42.5445 103.704 42.1211 103.704 41.724C103.731 39.1835 103.809 36.643 103.835 34.1289C103.862 31.3502 103.862 28.5979 103.862 25.8457Z" fill="#751F26"/>
<path d="M93.51 34.8433C94.4247 34.5258 94.451 34.5258 94.451 33.7318C94.451 31.0325 94.4773 28.3596 94.4773 25.6603C94.4773 25.3163 94.4773 24.9458 94.4773 24.4694C96.1234 24.4165 97.6129 24.046 99.2064 24.3636C99.2327 24.8135 99.2852 25.131 99.2852 25.4486C99.2852 27.2217 99.311 28.9683 99.2852 30.7149C99.2327 34.4199 99.1807 38.0984 99.1019 41.8034C99.0761 42.7561 98.9453 42.9149 98.0048 42.9413C97.0376 42.9678 96.0708 42.9149 95.1041 42.9678C94.451 42.9942 94.0065 42.7561 93.6146 42.2268C92.4913 40.7448 91.3417 39.2628 90.2178 37.8073C88.7283 35.9019 87.2388 33.9965 85.7498 32.0911C85.4099 31.6412 85.0442 31.2178 84.3123 31.3501C84.234 32.5674 84.0775 33.7848 84.0512 35.0021C83.9986 37.1722 83.9986 39.3422 83.9729 41.5123C83.9729 41.9357 83.8941 42.3856 83.8421 42.9149C82.3263 43.0207 80.9156 42.9149 79.3478 42.9149C79.2952 42.465 79.1907 42.0416 79.2169 41.6181C79.2432 37.622 79.2952 33.6525 79.3215 29.6564C79.3478 28.3067 79.3478 26.9571 79.3478 25.6339C79.3478 25.2634 79.3735 24.8928 79.3998 24.4694C81.1504 24.2842 82.8228 24.0195 84.5214 24.3371C85.0699 24.4694 85.3053 24.8664 85.619 25.2104C86.5337 26.3748 87.4479 27.5657 88.3889 28.7301C89.9825 30.662 91.6028 32.6204 93.2226 34.5522C93.3014 34.6581 93.4317 34.7639 93.51 34.8433Z" fill="#751F26"/>
<path d="M72.06 35.664C73.0004 38.0986 74.4117 40.3481 75.5092 42.9151C74.3596 43.0209 73.3666 42.9415 72.3999 42.8886C71.9554 42.8621 71.4852 42.7827 71.0669 42.8621C70.5704 42.9415 70.3093 42.7563 70.1265 42.3329C69.3683 40.6127 68.6107 38.919 67.8531 37.2253C67.7748 37.0136 67.6702 36.8283 67.5919 36.6167C67.4086 36.1138 67.1212 35.7962 66.5464 35.7698C65.815 35.7433 65.0831 35.611 64.3255 35.611C63.5416 35.611 62.7314 35.7433 61.9212 35.7962C61.4773 36.2461 61.4247 36.7754 61.4247 37.3576C61.451 38.8396 61.4247 40.3216 61.4247 41.83C61.4247 42.1476 61.399 42.4652 61.3727 42.7827C60.4843 43.0209 58.2634 43.0739 56.8522 42.8886C56.8259 42.6505 56.7476 42.4123 56.7739 42.1741C56.7739 38.3633 56.8002 34.5524 56.8259 30.7416C56.8522 29.2596 56.8259 27.7777 56.8259 26.2692C56.8259 26.0045 56.8001 25.7399 56.8001 25.5017C56.8259 24.4961 56.8784 24.4432 57.8972 24.3903C58.1588 24.3638 58.42 24.3638 58.6811 24.3638C60.8242 24.3109 62.9668 24.1785 65.1094 24.205C67.0954 24.2579 69.1072 24.3109 71.0669 24.6284C73.3924 24.999 75.039 26.5074 75.5612 28.8627C76.032 30.9004 75.4047 32.9381 73.3924 34.473C72.9484 34.8171 72.3736 35.0553 72.06 35.664ZM61.6601 28.2804C61.6864 28.8362 61.7384 29.3126 61.7647 29.7889C61.8167 30.2917 61.8692 30.7946 61.9475 31.2974C64.2472 31.2974 66.4418 31.2974 68.6632 31.2709C69.238 31.2709 69.8391 31.1386 70.3876 30.9269C71.3023 30.6093 71.4852 29.8683 70.8841 29.1009C70.4401 28.4922 69.8648 28.1746 69.0809 28.1746C68.245 28.1482 67.3828 28.1746 66.5464 28.0952C64.9523 27.91 63.3845 27.9894 61.6601 28.2804Z" fill="#751F26"/>
<path d="M45.0821 42.915C44.1937 43.0738 43.2007 42.7827 42.1817 42.571C40.1696 42.174 38.6802 41.0625 37.4259 39.5011C37.034 38.9983 36.6682 38.4955 36.3024 37.9927C35.7536 37.2517 35.5446 36.4049 35.3878 35.5051C35.0742 33.732 35.1265 32.0647 35.6752 30.3181C36.224 28.5186 37.2953 27.1425 38.7063 26.0574C39.8038 25.2106 41.0058 24.6019 42.3385 24.152C43.7234 23.7021 44.9776 23.9138 46.3102 24.152C47.878 24.4167 49.1846 25.0782 50.4127 26.0045C51.8498 27.1425 52.8951 28.5715 53.5745 30.2387C54.0184 31.3767 54.2275 32.5411 54.0184 33.7585C53.8881 34.3671 53.8356 35.0023 53.7573 35.6374C53.4177 38.0191 51.9805 39.6864 50.2036 41.1155C49.6026 41.5918 48.8971 41.9888 48.2178 42.3328C47.1203 42.915 46.8851 42.9415 45.0821 42.915ZM49.5765 33.3351C49.5504 32.991 49.5504 32.647 49.4981 32.3294C49.2891 31.2708 49.0539 30.1329 48.0871 29.5242C45.4479 27.804 43.7495 27.7511 41.3978 29.286C39.6993 30.3975 39.0722 32.1971 39.4641 34.2084C39.7515 35.6638 40.3525 36.7224 41.6591 37.5957C43.9846 39.0777 46.8067 38.8396 48.5052 36.6695C49.263 35.6903 49.5765 34.5788 49.5765 33.3351Z" fill="#751F26"/>
<path d="M32.4055 24.4431V24.4696C32.4055 24.9194 32.4055 25.3164 32.4055 25.7134C32.4055 29.9476 32.4316 34.1554 32.4316 38.3632C32.4316 39.6334 32.4577 40.9037 32.4577 42.1739C32.4577 42.3857 32.4055 42.5974 32.3532 42.915C30.8376 42.862 29.3482 43.1796 27.8588 42.7297C27.702 39.898 27.9633 37.1458 27.4668 34.3406C26.9965 34.4729 26.892 34.8964 26.7091 35.2139C25.5855 37.3311 24.4096 39.3952 23.3383 41.5388C22.8941 42.4121 22.3453 42.8356 21.3524 42.7562C20.5946 42.7032 19.8107 42.7562 19.0268 42.7562C17.4851 39.898 15.9696 37.0928 14.4279 34.2347C13.9314 35.2404 13.7746 36.1666 13.7746 38.3896C13.7746 39.7922 13.7746 41.1948 13.7746 42.7032C12.259 43.2325 10.7696 42.5709 9.17567 42.8356C8.99278 36.643 9.28017 30.5827 9.30634 24.496C11.4229 24.0196 13.4872 24.3108 15.656 24.4166C15.8912 24.84 16.2047 25.2899 16.4399 25.7928C17.5635 27.9363 18.6609 30.1063 19.7584 32.25C19.9413 32.594 20.1765 32.9645 20.464 33.2556C20.9343 33.732 21.5614 33.6526 21.9795 33.0968C22.1624 32.8586 22.2669 32.594 22.3976 32.3029C23.3905 30.0799 24.4096 27.8305 25.4025 25.581C25.5593 25.2105 25.7423 24.84 25.899 24.496C27.8588 24.1255 30.2105 24.099 32.4055 24.4431Z" fill="#751F26"/>
</svg>
