<svg width="61" height="61" viewBox="0 0 61 61" fill="none" xmlns="http://www.w3.org/2000/svg">
<path d="M0 30.5V61H30.5H61V30.5V-1.81794e-06H30.5H0V30.5ZM22.1602 23.566C24.3047 24.4 24.257 24.3047 23.4707 25.9488C23.0895 26.759 22.7082 27.4023 22.6129 27.4023C22.5414 27.4023 21.8266 27.1164 21.0641 26.7828C18.5383 25.6629 16.4414 25.782 16.4414 27.0211C16.4414 27.7359 17.0371 28.1172 19.4676 28.9273C22.875 30.0473 24.0664 31.2625 24.0664 33.5262C24.0664 34.241 23.9473 35.0512 23.8043 35.3371C22.3031 38.268 17.5613 39.0066 13.3438 36.9574C11.2945 35.9805 11.2945 35.9805 12.1285 34.3602L12.8434 32.9305L14.702 33.8598C16.9418 34.9797 18.5383 35.2656 19.4199 34.6937C20.1824 34.1934 20.2063 33.2641 19.4914 32.7875C19.1816 32.5969 18.0379 32.1441 16.918 31.8105C13.4867 30.7383 12.3906 29.666 12.3906 27.4023C12.3906 25.4723 13.3438 24.1617 15.393 23.3277C16.9418 22.7082 20.2301 22.8273 22.1602 23.566ZM45.2973 23.2086C46.6793 23.5184 48.5141 24.4715 49.0621 25.1148C49.3242 25.4246 49.2051 25.6867 48.3473 26.8066C47.2273 28.2125 47.0844 28.3078 46.7746 27.7836C46.4172 27.1402 44.4633 26.2109 43.4863 26.2109C39.8883 26.2109 38.2203 31.0719 40.9129 33.6453C42.2234 34.8844 44.7969 34.8844 46.5125 33.5977L47.2273 33.0734L48.2758 34.098C48.8477 34.6699 49.3242 35.2418 49.3242 35.4086C49.3242 35.8375 47.7277 36.9574 46.2504 37.577C43.6293 38.6492 40.2934 38.125 38.1727 36.3379C37.577 35.8137 36.8859 34.8367 36.4094 33.8836C35.7422 32.5254 35.623 32.0488 35.623 30.5C35.623 28.3555 36.3617 26.5684 37.7914 25.1625C39.8406 23.1609 42.3664 22.5176 45.2973 23.2086ZM34.0742 28.7844C34.0742 34.1934 34.0504 34.5031 33.55 35.5039C32.6207 37.3148 30.5238 38.3156 28.2602 38.0059C26.8305 37.8391 24.8766 36.9098 24.948 36.4332C24.9957 36.1473 25.2578 35.075 25.6391 33.6453C25.7105 33.4309 25.9965 33.5262 26.616 33.9551C28.0457 34.8844 28.9273 34.9559 29.6422 34.241L30.2617 33.6215V28.3555V23.1133H32.168H34.0742V28.7844Z" fill="#751F26"/>
</svg>
