<svg width="137" height="37" viewBox="0 0 137 37" fill="none" xmlns="http://www.w3.org/2000/svg">
<path d="M51.4695 2.96C52.0749 2.96 52.6972 3.05726 53.3387 3.25177V0H57.7864V12.6043H54.9519L53.8601 11.0556C52.9277 12.2629 51.7021 12.8665 50.1855 12.8665C49.005 12.8811 47.8634 12.4462 46.9942 11.6508C46.0862 10.8389 45.6327 9.80077 45.6327 8.53114C45.6327 7.26257 45.8971 6.21917 46.426 5.40094C47.4753 3.77294 49.1565 2.96 51.4695 2.96ZM53.3387 6.1198C53.1686 6.01642 52.973 5.96224 52.7737 5.96334C52.5719 5.96334 52.3754 6.00246 52.1864 6.08174C51.7802 6.26131 51.4235 6.53584 51.1467 6.882C50.9852 7.06171 50.8482 7.25517 50.7357 7.46026C50.4914 7.89897 50.3693 8.33346 50.3693 8.76583C50.3693 9.19926 50.5042 9.50054 50.775 9.66863C50.8705 9.72889 50.9874 9.7606 51.1254 9.76589C51.7871 9.76589 52.5241 9.43923 53.3387 8.78486V6.1198ZM59.56 11.7766C59.1385 11.3821 58.8068 10.9023 58.5871 10.3695C58.3434 9.79021 58.2206 9.16763 58.2261 8.5396C58.2261 7.88417 58.2919 7.3186 58.4247 6.83866C58.6891 5.88617 59.1521 5.0838 59.8138 4.43366C60.1292 4.1144 60.4807 3.84483 60.8673 3.62494C61.6307 3.17968 62.4994 2.94471 63.3843 2.94414C64.2408 2.93385 65.0705 3.24094 65.7122 3.80571C65.9246 3.98966 66.1105 4.20214 66.2687 4.44106L67.3605 3.29511H69.8668V12.6043H67.3605L66.2698 11.0556C65.435 12.2639 64.1691 12.8697 62.4731 12.8749C61.9604 12.8728 61.452 12.7823 60.9703 12.6075C60.4478 12.4312 59.9679 12.1486 59.561 11.7776L59.56 11.7766ZM65.7504 6.12086C65.5487 6.01161 65.3216 5.95693 65.092 5.96229C64.8371 5.96229 64.5684 6.05214 64.2859 6.22763C63.9978 6.40915 63.741 6.63584 63.5255 6.89891C63.0264 7.50254 62.7779 8.11569 62.7779 8.73834C62.7779 9.17917 62.9159 9.48891 63.192 9.66863C63.4448 9.83354 63.8324 9.80923 64.355 9.59886C64.8775 9.38743 65.3426 9.1094 65.7504 8.769V6.12086ZM71.1763 12.4013C71.7179 12.5472 72.3944 12.6202 73.209 12.6202C73.723 12.6202 74.0671 12.4056 74.2391 11.9753C74.2912 11.8453 74.3177 11.711 74.3177 11.5715C74.3156 11.4207 74.2894 11.2712 74.2402 11.1285L70.3139 3.29511H74.8657L76.5097 6.89786L78.0454 3.29511H82.046L78.4776 11.9912C78.005 13.1244 77.4836 13.9596 76.9143 14.4998C76.2155 15.1584 75.3542 15.4882 74.3305 15.4882C72.9307 15.4882 71.8783 15.3465 71.1763 15.0611V12.4013ZM85.2002 21.4198C85.2002 20.4303 84.7297 19.9356 83.7909 19.9356C82.7119 20.0371 82.0131 20.5805 81.6924 21.571C81.5178 22.1051 81.4052 22.6574 81.3568 23.217C81.293 23.8407 81.1996 24.5067 81.0721 25.215L84.8391 24.3872L85.1673 21.8078L85.2002 21.4198ZM82.8786 29.0905H81.9334C81.635 29.0905 81.3483 29.0799 81.0732 29.0587C81.0732 30.396 81.7996 31.1265 83.2556 31.2502C83.6592 31.283 84.0479 31.2988 84.4249 31.2988C85.402 31.2988 86.6254 31.08 88.0974 30.6423C89.5553 30.2133 90.9064 29.4839 92.0629 28.5016L93.1303 33.7451C90.5729 35.9154 86.7083 37 81.5352 37C78.5668 37 76.0159 36.1511 73.8844 34.4533C71.5682 32.5991 70.4095 30.0303 70.4095 26.7468C70.4095 24.2752 71.0637 22.0541 72.37 20.0868C73.5849 18.2886 75.23 16.9238 77.3062 15.9914C79.3804 15.0579 81.6223 14.5917 84.0309 14.5917C87.1501 14.5917 89.5099 15.2599 91.1093 16.5971C92.7076 17.9344 93.5052 19.5867 93.4988 21.5551C93.4935 23.5214 92.5323 25.271 90.6175 26.7986C88.7027 28.3272 86.122 29.0905 82.8786 29.0905ZM106.157 21.1164C105.239 21.1164 104.782 21.8406 104.782 23.2899V36.3752H94.565V15.4153H100.206L102.666 18.6892C103.584 17.4407 104.854 16.4513 106.474 15.7208C108.097 14.9903 109.614 14.6235 111.024 14.6235C113.615 14.6235 115.67 15.299 117.189 16.6479C118.709 17.9968 119.469 19.8056 119.469 22.0763V36.3752H109.185V26.2584C109.185 22.8301 108.175 21.1164 106.157 21.1164ZM137 34.5939C134.837 36.0422 132.545 36.7664 130.125 36.7664C127.705 36.7664 125.739 36.0898 124.224 34.7367C122.711 33.3814 121.954 31.5568 121.954 29.2628V20.498H120.008V15.1489H121.954V9.4868L132.168 8.45714V15.1499H137V20.4969H132.168V25.789C132.168 27.3747 132.529 28.5249 133.252 29.2385C133.974 29.952 135.223 30.3093 137 30.3093V34.5939ZM91.8813 6.0902C90.7514 5.8312 89.9272 5.70117 89.4132 5.70117C89.2923 5.69318 89.1725 5.72759 89.0744 5.79843C88.9948 5.86291 88.9555 5.93586 88.9555 6.01409C88.9555 6.179 89.1658 6.34391 89.5842 6.51094C90.0048 6.68009 90.3913 6.84394 90.7418 7.00357C91.0954 7.16214 91.3992 7.35771 91.653 7.58817C92.2021 8.08714 92.4771 8.82926 92.4771 9.81557C92.4771 10.8008 92.1129 11.5588 91.3854 12.0884C90.6568 12.6181 89.6713 12.8834 88.4287 12.8834C87.1862 12.8834 86.1942 12.7703 85.4519 12.5451C85.1237 12.45 84.8742 12.3369 84.701 12.2068V9.42971C84.7733 9.435 84.8975 9.46883 85.077 9.52909C85.2544 9.58934 85.5496 9.68343 85.9617 9.81029C86.3758 9.93714 86.7507 10.0006 87.0895 10.0006C87.4272 10.0006 87.5961 9.87794 87.5961 9.63269C87.5961 9.4424 87.4432 9.25846 87.1394 9.07769C86.9862 8.99119 86.8304 8.9094 86.6721 8.83243C85.9542 8.48569 85.4402 8.0882 85.1322 7.63786C84.8242 7.1854 84.6713 6.65471 84.6713 6.0458C84.6713 4.96223 85.1195 4.15351 86.0169 3.61754C86.7709 3.16931 87.7554 2.9452 88.9725 2.9452C89.8221 2.9452 90.6738 3.02766 91.5319 3.19046C91.7146 3.22746 91.8314 3.25283 91.8824 3.26657V6.09126L91.8813 6.0902ZM83.485 5.04257L82.1788 4.1514C82.4251 4.07 82.6673 3.97274 82.9094 3.85963C83.1494 3.74334 83.3342 3.59851 83.4638 3.42409L83.3863 3.4188C83.1843 3.39824 82.9889 3.33556 82.8128 3.23486C82.6138 3.12304 82.4482 2.96072 82.3328 2.76443C82.2096 2.55934 82.1607 2.30986 82.1873 2.01386C82.2171 1.74693 82.3117 1.49126 82.4631 1.26894C82.6145 1.04661 82.818 0.864343 83.056 0.737886C83.3342 0.580371 83.6974 0.520114 84.1446 0.556057C84.7159 0.603629 85.111 0.789686 85.3298 1.11634C85.5485 1.43983 85.6377 1.83626 85.5974 2.30457C85.5761 2.57203 85.4827 2.886 85.3213 3.24543C85.162 3.60697 84.9283 3.95266 84.6246 4.28354C84.3092 4.6216 83.9191 4.88079 83.485 5.04257ZM23.5343 0.6438H35.0847V4.52457H31.6852V12.6043H26.9348V4.52457H23.5343V0.6438ZM41.2359 5.94643C41.1123 5.8924 40.978 5.86674 40.843 5.87137C40.6826 5.87137 40.5042 5.91894 40.3099 6.01197C40.1044 6.11228 39.9128 6.23841 39.7396 6.38726C39.3345 6.73742 38.9954 7.15661 38.7381 7.62517C38.4683 8.10829 38.3335 8.5544 38.3335 8.9614C38.3335 9.3684 38.4906 9.6422 38.8071 9.7828C38.9376 9.83496 39.0775 9.85979 39.2181 9.85574C39.3817 9.85574 39.5526 9.80711 39.7311 9.70986C39.9248 9.60123 40.1046 9.46953 40.2663 9.31766C40.637 8.97409 40.9619 8.55546 41.2423 8.06389C41.5227 7.57126 41.6639 7.13043 41.6639 6.74246C41.6639 6.35237 41.5216 6.08703 41.2359 5.94643ZM39.7534 12.8834C38.2973 12.8834 37.041 12.4309 35.9864 11.526C34.8607 10.5683 34.2989 9.361 34.2989 7.90637C34.2989 6.45069 34.8256 5.25929 35.8791 4.33323C36.9337 3.40717 38.2347 2.94414 39.7831 2.94414C41.3305 2.94414 42.6314 3.39766 43.6849 4.30363C44.7395 5.21066 45.2705 6.42214 45.2758 7.93914C45.2812 8.91171 45.0295 9.77434 44.5208 10.5228C44.0085 11.2735 43.3037 11.8739 42.4796 12.2618C41.6295 12.6708 40.6975 12.8833 39.7534 12.8834ZM0 9.51429C5.68709 8.96457 9.98719 8.68971 12.8982 8.68971C15.8113 8.68971 18.119 8.89797 19.8225 9.31449C21.526 9.72994 22.9279 10.3759 24.027 11.2533C26.1617 12.9616 27.228 15.7662 27.228 19.665C27.228 21.4188 26.8892 23.0267 26.2137 24.4877C25.5599 25.9175 24.6162 27.1973 23.4419 28.2469C22.2737 29.2934 20.9037 30.1074 19.3319 30.6931C17.7601 31.2777 16.0821 31.5695 14.2937 31.5695L11.2329 31.5018V36.3752H0V9.51429ZM15.4991 15.6859C14.5114 15.6859 13.067 16.3561 11.1639 17.6945V24.0489L13.1743 23.0901C14.505 22.4484 15.4343 21.8353 15.9621 21.2507C16.9466 20.1618 17.4394 19.0772 17.4394 17.9968C17.4394 16.9185 17.0677 16.2039 16.3232 15.8561C16.0646 15.7393 15.783 15.6805 15.4991 15.6859ZM29.9202 34.5136C29.0026 33.6753 28.2709 32.6181 27.725 31.3422C27.1802 30.0662 26.9083 28.693 26.9083 27.2193C26.9083 25.7478 27.057 24.4729 27.3554 23.3925C27.9522 21.2454 28.9962 19.4409 30.4852 17.9809C31.1878 17.2673 31.9866 16.6543 32.8588 16.1595C34.6472 15.1362 36.5355 14.6235 38.5257 14.6235C40.5159 14.6235 42.2618 15.2715 43.7635 16.5644C44.2457 16.9798 44.6641 17.4566 45.0188 17.9968L47.4785 15.4153H53.1199V36.3763H47.4785L45.0188 32.8877C43.1391 35.6067 40.2886 36.9715 36.4707 36.9852C35.4161 36.9958 34.2882 36.7949 33.0903 36.3847C31.9148 35.9863 30.8353 35.3492 29.9202 34.5136ZM43.8496 21.7729C43.4375 21.5372 42.9447 21.4198 42.3712 21.4198C41.7977 21.4198 41.1924 21.6196 40.5552 22.0192C39.918 22.4178 39.3487 22.921 38.8453 23.5278C37.7217 24.8883 37.1599 26.2711 37.1599 27.6739C37.1599 28.6634 37.47 29.3611 38.0892 29.767C38.6606 30.1381 39.5335 30.0842 40.7092 29.6074C41.8467 29.151 42.9061 28.5216 43.8496 27.7415V21.7729ZM69.9836 23.3248C68.928 23.3248 67.8447 23.7022 66.7339 24.4549C65.6198 25.2086 65.0591 25.9222 65.0485 26.5956V36.3752H54.6938V15.4153H65.0485V17.6596C65.6101 16.8166 66.3531 16.1085 67.2235 15.5865C68.0637 15.0781 69.0068 14.7614 69.9847 14.6594L69.9836 23.3248Z" fill="#751F26"/>
</svg>
