<svg width="157" height="36" viewBox="0 0 157 36" fill="none" xmlns="http://www.w3.org/2000/svg">
<path d="M1.47164 26.7527C2.45229 24.9987 3.78263 25.1581 5.38664 24.6721L10.518 4.57331C7.9599 4.37969 2.82098 3.3774 2.01517 6.09572C3.41393 6.20961 4.39458 6.2248 5.19279 6.72974C5.99099 7.23468 6.12783 8.98108 5.67551 9.97957C5.09776 11.259 3.2695 11.3501 2.24323 10.8907C0.810268 10.2453 0.0500742 8.98488 0.00446254 7.43589C-0.0829598 4.59988 1.11435 2.42827 3.57357 1.22856C5.43605 0.317396 7.44296 -0.100225 9.58291 0.526203L15.2007 2.17769C17.6334 2.89144 19.7125 2.77755 22.491 1.94611C20.9212 4.691 17.9565 4.50497 15.0677 4.89222L10.2025 24.5734C11.434 25.4429 13.0228 24.6114 13.8476 26.7868L1.46784 26.7489L1.47164 26.7527ZM143.731 11.4944C144.335 11.3957 144.506 9.3 144.191 8.97349L140.507 8.82922C141.26 5.76163 141.766 1.19819 146.118 1.66137C145.43 2.42067 144.829 3.30147 144.901 4.11773C144.958 4.78212 145.943 5.84894 146.756 6.09952C148.166 6.53232 149.706 4.84666 149.824 3.71529C149.995 2.04862 148.923 0.837518 147.357 0.347765C144.248 -0.624147 141.165 0.495831 139.01 3.02432C137.649 4.62266 137.068 6.84364 136.611 8.93933L132.198 11.0388C133.829 11.7108 134.441 11.6576 135.817 11.726L130.895 30.2113C130.283 32.5044 128.086 33.8142 125.999 33.6927C126.71 32.5575 127.128 31.3427 126.691 30.4277C126.231 29.4672 124.821 28.8977 123.696 29.3533C122.571 29.8089 121.89 31.1263 121.921 32.2652C121.947 33.1802 122.935 34.4824 123.988 34.8355C129.12 36.5629 133.981 33.3852 135.304 28.3548L139.702 11.6462L143.731 11.4944ZM66.3542 25.1999C66.2174 25.515 66.2516 26.3616 66.3314 26.8172L74.1728 26.84C74.6441 26.7792 75.0737 25.2568 74.9634 24.9113L72.489 24.7063L75.9213 12.2575C76.1455 11.4412 75.7122 9.91504 75.1307 9.4025C74.5947 8.92794 73.2264 8.53689 72.3674 8.55967C68.9845 8.6432 67.0422 10.9021 64.8946 13.6888L66.1262 8.51411C63.2678 8.90515 61.1051 9.24305 58.338 10.158L61.5612 11.9841L58.1099 24.862C57.1369 24.7974 56.046 24.7785 55.5709 24.9759C55.1794 25.1429 55.187 26.2629 55.2858 26.8248H63.8304C64.1307 26.5059 64.7046 25.0746 64.3131 25.0176L62.1123 24.6949C62.7091 22.2879 63.3363 19.5468 64.2219 16.9424C64.9745 14.729 69.0453 10.9591 71.1092 11.9006C71.4475 12.0525 71.744 13.1497 71.6452 13.5103L68.5664 24.7519C67.5971 24.824 66.5139 24.8088 66.3466 25.1999H66.3542ZM115.725 24.5621L109.845 24.9797L115.162 3.93929C116.732 3.46092 117.633 3.17619 119.423 2.4017C117.998 1.91194 116.976 1.72971 115.71 1.75628L106.641 1.94991C107.735 3.65835 108.963 3.32425 110.354 4.02661L105.098 24.6759L102.03 25.5226C101.661 25.6251 101.228 26.3882 101.259 26.8438L119.378 26.8248C120.385 23.1991 121.917 20.4466 122.133 16.6729C119.507 19.4178 117.797 21.8323 115.733 24.5696L115.725 24.5621ZM33.8559 24.657C35.4713 19.1216 35.1825 15.7541 39.793 11.95C40.9561 13.499 42.1534 13.928 43.3013 13.0624C44.3846 12.2499 44.7115 10.8338 44.1109 9.6265C43.67 8.74191 41.9558 8.15723 40.8079 8.88237C39.1165 9.9454 37.8127 11.5779 36.7371 13.3889L37.8773 8.44577L29.8117 9.98337C31.2865 10.9021 32.0543 11.278 33.32 11.9006L29.9029 24.7101L27.1282 24.8772L26.7747 26.8628L36.5546 26.7754C36.9841 26.7716 37.2464 24.9683 36.8663 24.8962L33.8597 24.657H33.8559ZM84.0972 11.669L88.6355 11.5779L89.065 8.92794L84.8764 8.83302L86.1041 4.09495C86.1877 3.77604 85.7012 2.80413 85.4883 2.96738C85.3477 3.07748 84.8459 3.42296 84.7205 3.62418L81.2502 9.00766C79.631 9.729 78.6504 10.0024 76.7993 11.1793L80.1365 11.8171C79.0495 16.4603 77.4227 21.1717 76.6169 25.9782C76.3356 27.6524 79.536 27.2728 80.3836 26.5021C82.1853 24.8734 83.8349 23.4687 85.5909 21.5021C83.565 22.0146 82.6376 22.7511 80.9538 23.6129L84.0972 11.6728V11.669ZM129.975 26.8438C130.401 26.8438 130.967 25.6061 130.705 25.3669C130.442 25.1277 129.899 24.8772 129.431 24.7747L128.143 24.4823L132.217 8.45716L124.091 10.0213L127.592 11.9917L124.213 24.6304L121.693 24.824C121.229 24.8582 121.031 26.7982 121.506 26.7982L129.975 26.8438ZM131.484 1.10328C129.963 1.10328 128.732 2.33335 128.732 3.85196C128.732 5.37058 129.963 6.60066 131.484 6.60066C133.004 6.60066 134.236 5.37058 134.236 3.85196C134.236 2.33335 133.004 1.10328 131.484 1.10328ZM96.2755 26.1034C92.9078 28.2713 88.1452 27.1399 87.1341 23.3851C85.8114 18.4838 87.9209 13.1307 91.7865 10.0935C94.8121 7.71304 99.9472 7.94463 101.407 11.874C103.284 16.9348 100.825 23.1763 96.2755 26.1034ZM97.1497 11.4374C96.6062 9.90364 94.2458 10.868 93.573 11.8703C90.4144 16.5855 90.0343 24.824 92.7368 25.1315C96.3667 25.5416 98.9248 16.4603 97.1497 11.4374ZM24.1558 25.8832C21.7878 27.5082 18.9523 27.6107 16.8656 26.2857C11.6088 22.9523 14.6002 12.7738 20.1572 9.5126C22.3162 8.24455 24.7982 8.24076 26.7671 9.38351C31.8034 12.3106 29.4088 22.2803 24.1558 25.8795V25.8832ZM23.4147 10.606C19.112 9.85429 16.6945 24.0533 19.8645 25.0632C24.4865 26.5363 27.4247 11.3084 23.4147 10.606ZM52.359 25.8795C48.9876 28.2751 44.0007 27.3449 42.8908 23.4687C41.4617 18.4762 43.727 12.789 47.7941 9.88086C50.9413 7.62952 55.9091 8.15724 57.1863 11.9993C58.8283 16.9424 56.6085 22.8574 52.359 25.8795ZM51.6293 10.5908C46.9997 10.4997 44.7723 25.1126 48.6265 25.2037C53.2675 25.3138 55.2706 10.6591 51.6293 10.5908ZM155.647 19.2773C155.02 22.2348 153.077 25.1126 150.363 26.4945C148.44 27.474 146.19 27.4057 144.457 26.4262C139.576 23.6585 141.488 13.3015 147.718 9.75558C150.128 8.38503 153.628 7.92564 155.685 9.90364C156.924 11.0957 155.559 13.3585 154.457 14.2241C151.804 16.3122 149.082 17.622 146.034 19.0988C145.901 20.3593 146.023 22.6448 146.988 23.5066C153.678 26.3085 153.853 17.4322 155.647 19.2773ZM146.486 17.0411C148.714 16.2249 150.857 14.7404 151.944 12.5764C152.138 12.193 152.005 11.0084 151.644 10.8376C149.227 9.68724 146.711 14.5582 146.486 17.0449V17.0411Z" fill="#751F26"/>
</svg>
