<svg width="130" height="35" viewBox="0 0 130 35" fill="none" xmlns="http://www.w3.org/2000/svg">
<path d="M120.013 18.6981L122.035 13.4613L124.054 18.6981H120.013ZM124.135 10.4868H119.935L114.068 24.6882H117.704L119.041 21.2222H125.027L126.364 24.6882H130L124.135 10.4868ZM94.5189 22.2188C92.1491 22.2188 90.2313 20.107 90.2313 17.5008C90.2313 14.8945 92.1491 12.7812 94.5189 12.7812C96.8886 12.7812 98.8048 14.8945 98.8048 17.5008C98.8048 20.107 96.8843 22.2188 94.5189 22.2188ZM94.5189 10C90.3242 10 86.9237 13.3593 86.9237 17.5008C86.9237 21.6422 90.3242 25 94.5189 25C98.7135 25 102.113 21.6437 102.113 17.5008C102.113 13.3579 98.7109 10 94.5189 10ZM64.5525 22.2188C62.1871 22.2188 60.2683 20.107 60.2683 17.5008C60.2683 14.8945 62.1871 12.7812 64.5525 12.7812C66.918 12.7812 68.8398 14.8945 68.8398 17.5008C68.8398 20.107 66.921 22.2188 64.5525 22.2188ZM64.5525 10C60.3592 10 56.962 13.3593 56.962 17.5008C56.962 21.6422 60.3592 25 64.5525 25C68.7459 25 72.1462 21.6437 72.1462 17.5008C72.1462 13.3579 68.7459 10 64.5525 10ZM83.3218 10.4868L79.6012 16.2319L75.8775 10.4868H72.2386L77.9981 19.3919V24.6866H81.2012V19.3919L86.9611 10.4853H83.3218V10.4868ZM114.833 10.4868H102.542V13.2102H107.094V24.6882H110.301V13.2102H114.833V10.4868ZM44 13.2102H48.5537V24.6882H51.7584V13.2102H56.2922V10.4868H44V13.2102Z" fill="#751F26"/>
<path d="M8.40137 13.2002C8.39054 13.2818 8.38477 13.3622 8.38477 13.4453C8.38477 15.2608 11.0747 16.805 14.8262 17.373C14.8231 17.5093 14.8213 17.6473 14.8213 17.7852C14.8213 21.1616 15.745 24.0205 17.0215 25.0078C11.3482 24.6562 6.8975 21.2784 6.89746 17.1611C6.89746 15.7175 7.44494 14.3645 8.40137 13.2002Z" fill="#751F26"/>
<path d="M27.5996 13.1992C28.556 14.3634 29.1044 15.7157 29.1045 17.1592C29.1045 21.2765 24.6533 24.6553 18.9814 25.0068L19.0986 24.9092C20.3136 23.8422 21.1806 21.0553 21.1807 17.7842C21.1807 17.6461 21.1805 17.5076 21.1758 17.3711C24.9256 16.803 27.6172 15.2604 27.6172 13.4434C27.6172 13.362 27.6105 13.2806 27.5996 13.1992Z" fill="#751F26"/>
<path d="M19.998 17.5127C19.947 20.1974 19.0709 22.333 18 22.333C16.9291 22.333 16.053 20.1974 16.002 17.5127C16.6457 17.5708 17.3144 17.6035 18 17.6035C18.6856 17.6035 19.3527 17.5723 19.998 17.5127Z" fill="#751F26"/>
<path d="M18.002 12.1943C18.8498 12.1947 19.5708 13.5289 19.8633 15.4131C19.2676 15.468 18.644 15.498 18.002 15.498C17.3598 15.498 16.7344 15.468 16.1387 15.4131C16.4312 13.5286 17.1538 12.1943 18.002 12.1943Z" fill="#751F26"/>
<path d="M18 10.0889C22.1352 10.0889 25.4873 11.2992 25.4873 12.793C25.4869 13.9006 23.6409 14.8516 21.001 15.2705C20.5661 12.3142 19.3866 10.1943 18 10.1943C16.6133 10.1944 15.4339 12.3143 14.999 15.2705C12.3591 14.8532 10.5131 13.9006 10.5127 12.793C10.5127 11.2992 13.8647 10.0889 18 10.0889Z" fill="#751F26"/>
<path fill-rule="evenodd" clip-rule="evenodd" d="M35 0V35H0V0H35ZM18.002 9C15.8322 9 13.8293 9.30932 12.2197 9.83496C7.94056 11.2299 5 14.1267 5 17.4736C5.00029 22.1825 10.8207 26 18 26C25.1792 26 30.9997 22.1825 31 17.4736C31 14.1268 28.0597 11.23 23.7822 9.83496C22.1743 9.31092 20.1716 9.00004 18.002 9Z" fill="#751F26"/>
</svg>
