<svg width="113" height="28" viewBox="0 0 113 28" fill="none" xmlns="http://www.w3.org/2000/svg">
<path d="M29.4199 28C32.7743 28 35.9616 24.8324 35.9616 21.6356C35.9616 20.6596 35.9616 0 35.9616 0H26.0058V17.3692C26.0058 18.0647 25.2239 19.4732 23.8451 19.4732H12.1225C10.7437 19.4732 9.96181 18.0647 9.96181 17.3692V0H0C0 0 0 20.9226 0 21.6356C0 24.8324 3.1873 28 6.54173 28H29.4258H29.4199Z" fill="#751F26"/>
<path d="M61.0959 0H49.6598L33.9322 27.9942H45.5951L47.7618 23.6343H62.982L65.1487 27.9942H76.8116L61.0959 0ZM51.5937 15.9257L55.3719 8.31643L59.1501 15.9257H51.5877H51.5937Z" fill="#751F26"/>
<path d="M103.086 0.04091C108.923 0.04091 111.526 2.54811 111.526 7.01315C111.526 9.47944 110.284 11.636 108.124 12.4542V12.5302C111.8 13.4711 113 16.8374 113 18.9121C113 24.3941 110.201 27.9942 101.844 27.9942H77.4085V0.04091H103.086ZM88.4506 10.4554H96.968C99.248 10.4554 99.7673 9.71321 99.7673 8.61449C99.7673 7.59758 99.248 6.85535 96.968 6.85535H88.4506V10.4554ZM88.4506 21.1856H98.0901C100.328 21.1856 101.009 20.2446 101.009 18.9939C101.009 17.7433 100.328 16.8023 98.0901 16.8023H88.4506V21.1856Z" fill="#751F26"/>
</svg>
