<svg width="86" height="31" viewBox="0 0 86 31" fill="none" xmlns="http://www.w3.org/2000/svg">
<path d="M40.6731 19.4825C40.6731 12.8715 40.5288 8.71452 47.9327 8.71452C55.3365 8.71452 55.5288 12.3706 55.5288 19.3322V21.5359H45.5769V22.3372C45.5769 24.3906 45.7692 25.4925 47.9327 25.4925H51.1058V24.5409H55.5769V29.9499H46.3462C40.7692 30 40.6731 24.9416 40.6731 19.4825ZM45.5769 16.3773V17.1786H50.625V16.3773C50.625 14.0735 50.4808 13.0217 48.2692 13.0217C45.7212 13.0217 45.5769 13.9733 45.5769 16.3773ZM56.9712 13.5225H56.0096V9.01502H62.7404C67.2596 9.01502 69.6635 9.96661 69.5192 14.8748V17.3289H64.9038V14.8748C64.9038 13.7229 63.7019 13.5225 62.8365 13.5225H61.875V25.5426H62.8365V30.0501H56.9231V13.5225H56.9712ZM34.1827 30V25.4925H35.0962V15.025C35.0962 13.2721 32.5 13.5225 31.5385 13.5225H30.2885V30.0501H25.3365V5.60935H24.375V0H30.2885V9.01502H32.2115C35.3365 9.01502 39.8558 9.06511 39.8558 14.0234V30H34.1827ZM5.72115 30L0 9.01502H5.09615L8.02885 21.3356L10.8654 9.01502H14.7596L17.3077 21.3356L19.375 12.6711H18.5096V9.01502H24.4231V12.1703L19.5673 30H15L12.6923 19.0317L10.2404 30H5.72115ZM70.1442 19.4825C70.1442 12.8715 70 8.71452 77.4038 8.71452C84.8077 8.71452 85 12.3706 85 19.3322V21.5359H75.0481V22.3372C75.0481 24.3906 75.2404 25.4925 77.4038 25.4925H80.5769V24.5409H85.0481V29.9499H75.8654C70.1923 30 70.1442 24.9416 70.1442 19.4825ZM75.0481 16.3773V17.1786H80.0962V16.3773C80.0962 14.0735 79.9519 13.0217 77.7404 13.0217C75.1442 13.0217 75.0481 13.9733 75.0481 16.3773Z" fill="#751F26"/>
</svg>
