<svg xmlns="http://www.w3.org/2000/svg" width="111.941" height="126.941" viewBox="0 0 111.941 126.941"><g transform="translate(-904.03 -1190.059)"><g transform="translate(921 1255)"><rect width="42" height="6" rx="3" transform="translate(6) rotate(90)" fill="#f0f0f0"/><rect width="42" height="6" rx="3" transform="translate(24) rotate(90)" fill="#f0f0f0"/><rect width="42" height="6" rx="3" transform="translate(60) rotate(90)" fill="#f0f0f0"/><rect width="42" height="6" rx="3" transform="translate(42) rotate(90)" fill="#f0f0f0"/><rect width="42" height="6" rx="3" transform="translate(78) rotate(90)" fill="#f0f0f0"/></g><g transform="translate(915 1301)"><rect width="42" height="6" rx="3" transform="translate(48 6) rotate(180)" fill="#f0f0f0"/><rect width="42" height="6" rx="3" transform="translate(42 16) rotate(180)" fill="#f0f0f0"/><rect width="42" height="6" rx="3" transform="translate(84 6) rotate(180)" fill="#f0f0f0"/><rect width="42" height="6" rx="3" transform="translate(90 16) rotate(180)" fill="#f0f0f0"/></g><g transform="translate(904.03 1190.059)"><rect width="42" height="6" rx="3" transform="translate(33.941 30.243) rotate(135)" fill="#f0f0f0"/><rect width="42" height="6" rx="3" transform="translate(85.941 30.243) rotate(135)" fill="#f0f0f0"/><rect width="42" height="6" rx="3" transform="translate(59.941 4.243) rotate(135)" fill="#f0f0f0"/><rect width="42" height="6" rx="3" transform="translate(55.698 59.941) rotate(-135)" fill="#f0f0f0"/><rect width="42" height="6" rx="3" transform="translate(107.698 59.941) rotate(-135)" fill="#f0f0f0"/><rect width="42" height="6" rx="3" transform="translate(81.698 33.941) rotate(-135)" fill="#f0f0f0"/><rect width="42" height="6" rx="3" transform="translate(94.97 60.941) rotate(180)" fill="#f0f0f0"/><rect width="42" height="6" rx="3" transform="translate(58.97 60.941) rotate(180)" fill="#f0f0f0"/></g></g></svg>